{"glyphs":{"0":{"ha":860,"x_min":28,"x_max":832,"o":"m 429 -18 q 728 117 625 -18 q 832 514 832 253 q 728 910 832 775 q 429 1046 625 1046 q 131 910 233 1046 q 28 514 28 775 q 131 117 28 253 q 429 -18 233 -18 m 685 514 q 622 215 685 319 q 429 110 558 110 q 238 215 301 110 q 174 514 174 319 q 238 813 174 707 q 429 918 301 918 q 622 813 558 918 q 685 514 685 707 z "},"1":{"ha":407,"x_min":18,"x_max":343,"o":"m 142 893 q 103 867 125 876 q 63 849 82 858 q 31 828 44 840 q 18 793 18 817 q 34 754 18 769 q 74 739 50 739 l 197 739 l 197 74 q 219 22 197 43 q 271 0 240 0 q 322 22 301 0 q 343 74 343 43 l 343 954 q 322 1006 343 985 q 271 1026 300 1026 q 229 1014 244 1026 q 201 981 214 1001 q 176 938 189 961 q 142 893 164 914 z "},"2":{"ha":806,"x_min":28,"x_max":778,"o":"m 51 740 q 74 674 51 696 q 124 653 96 653 q 174 675 151 653 q 197 742 197 697 q 216 817 197 783 q 265 872 235 850 q 335 906 296 894 q 415 918 374 918 q 496 908 457 918 q 565 874 535 897 q 613 815 594 851 q 631 728 631 779 q 601 633 631 674 q 524 554 572 592 q 413 481 475 517 q 283 401 350 444 q 197 335 242 374 q 114 255 151 297 q 52 170 76 213 q 28 92 28 128 q 54 27 28 54 q 119 0 81 0 l 678 0 q 723 19 704 0 q 742 64 742 38 q 723 109 742 90 q 678 128 704 128 l 219 128 q 210 139 210 128 q 220 169 210 150 q 250 212 231 189 q 297 259 269 235 q 358 306 324 283 q 521 400 444 360 q 654 483 597 440 q 744 580 711 525 q 778 718 778 635 q 751 851 778 790 q 675 954 724 911 q 560 1022 626 997 q 415 1046 493 1046 q 285 1024 350 1046 q 167 962 219 1001 q 83 865 115 922 q 51 740 51 808 z "},"3":{"ha":829,"x_min":28,"x_max":801,"o":"m 413 926 q 491 914 454 926 q 556 880 528 901 q 601 830 585 858 q 618 768 618 801 q 563 647 618 688 q 375 607 508 607 q 336 589 349 607 q 324 550 324 571 q 336 511 324 529 q 375 493 349 493 q 578 447 510 493 q 647 288 647 401 q 628 205 647 240 q 576 147 608 169 q 502 112 543 124 q 418 100 461 100 q 322 115 365 100 q 244 155 278 129 q 190 217 211 181 q 160 294 168 253 q 135 337 154 322 q 92 351 115 351 q 48 334 68 351 q 28 281 28 317 q 53 182 28 235 q 131 85 79 129 q 256 11 182 40 q 429 -18 331 -18 q 567 1 500 -18 q 685 57 633 19 q 769 152 738 94 q 801 289 801 210 q 781 408 801 360 q 729 486 760 456 q 663 533 699 517 q 599 554 628 549 q 675 592 644 568 q 724 644 706 615 q 749 706 742 674 q 756 769 756 739 q 731 881 756 831 q 662 969 707 932 q 553 1026 617 1006 q 413 1046 490 1046 q 241 1015 310 1046 q 131 942 172 985 q 71 856 89 900 q 53 786 53 813 q 72 726 53 746 q 122 707 92 707 q 159 719 142 707 q 183 758 176 732 q 266 890 206 853 q 413 926 326 926 z "},"4":{"ha":811,"x_min":18,"x_max":793,"o":"m 18 347 q 48 276 18 306 q 119 247 78 247 l 482 247 l 482 74 q 503 22 482 43 q 556 0 525 0 q 608 22 586 0 q 629 74 629 43 l 629 247 l 729 247 q 774 265 756 247 q 793 311 793 283 q 774 356 793 338 q 729 375 756 375 l 629 375 l 629 950 q 606 1004 629 982 q 551 1026 583 1026 q 516 1018 532 1026 q 493 999 500 1010 l 38 407 q 22 379 26 392 q 18 347 18 367 m 482 786 l 482 375 l 172 375 l 482 786 z "},"5":{"ha":817,"x_min":28,"x_max":789,"o":"m 265 1026 q 210 1019 231 1026 q 178 998 189 1011 q 161 967 167 985 q 151 928 156 949 l 69 556 q 67 535 67 542 q 85 480 67 503 q 132 457 103 457 q 155 460 143 457 q 179 474 167 464 q 211 499 193 483 q 256 531 229 515 q 318 557 282 546 q 404 568 354 568 q 495 553 451 568 q 572 510 539 539 q 624 440 604 482 q 643 343 643 399 q 624 249 643 290 q 572 178 604 207 q 495 135 539 150 q 404 119 451 119 q 247 163 304 119 q 158 278 190 206 q 133 310 149 300 q 99 319 117 319 q 50 301 72 319 q 28 251 28 282 q 50 181 28 226 q 119 91 72 135 q 238 15 165 47 q 410 -18 310 -18 q 555 7 486 -18 q 676 78 624 32 q 758 192 728 125 q 789 343 789 258 q 764 483 789 417 q 692 598 739 549 q 580 676 646 647 q 431 706 514 706 q 353 698 388 706 q 292 680 318 690 q 249 660 267 669 q 222 644 232 650 l 278 888 l 596 888 q 644 908 624 888 q 665 957 665 929 q 644 1006 665 986 q 596 1026 624 1026 l 265 1026 z "},"6":{"ha":831,"x_min":28,"x_max":803,"o":"m 436 103 q 345 121 388 103 q 271 170 303 139 q 220 244 239 201 q 201 336 201 286 q 219 424 201 383 q 268 494 238 465 q 340 540 299 524 q 428 557 381 557 q 522 539 478 557 q 599 490 567 521 q 651 417 632 460 q 669 328 669 375 q 651 240 669 281 q 600 168 632 199 q 526 120 568 138 q 436 103 483 103 m 28 508 q 59 276 28 375 q 145 112 90 178 q 275 14 200 46 q 436 -18 350 -18 q 578 5 511 -18 q 694 73 644 28 q 774 184 744 118 q 803 338 803 250 q 770 479 803 417 q 685 586 738 542 q 569 654 633 631 q 444 678 506 678 q 351 667 394 678 q 274 638 308 656 q 216 601 240 621 q 181 563 192 581 q 184 626 181 589 q 198 702 188 663 q 226 781 208 742 q 273 851 244 819 q 342 901 301 882 q 438 921 382 921 q 556 885 511 921 q 638 793 601 849 q 662 771 647 778 q 692 764 676 764 q 740 781 718 764 q 763 828 763 799 q 744 883 763 846 q 688 956 726 919 q 589 1019 649 992 q 446 1046 529 1046 q 267 1003 344 1046 q 135 888 189 961 q 55 717 82 815 q 28 508 28 619 z "},"7":{"ha":731,"x_min":18,"x_max":714,"o":"m 18 957 q 39 908 18 929 q 88 888 60 888 l 542 888 q 451 776 497 840 q 360 640 404 713 q 275 489 315 567 q 204 335 235 411 q 156 188 174 258 q 139 58 139 117 q 163 2 139 26 q 219 -22 186 -22 q 276 2 253 -22 q 300 58 300 26 q 332 280 300 168 q 412 492 364 392 q 517 678 460 593 q 624 818 574 763 q 656 851 640 836 q 685 880 672 865 q 706 913 697 894 q 714 954 714 931 q 692 1006 714 985 q 640 1026 671 1026 l 88 1026 q 39 1006 60 1026 q 18 957 18 986 z "},"8":{"ha":872,"x_min":28,"x_max":844,"o":"m 697 301 q 674 208 697 247 q 615 146 651 169 q 531 111 578 122 q 436 100 483 100 q 341 111 388 100 q 258 146 294 122 q 198 208 221 169 q 175 301 175 247 q 198 393 175 356 q 258 455 221 431 q 341 490 294 479 q 436 500 388 500 q 531 490 483 500 q 615 455 578 479 q 674 393 651 431 q 697 301 697 356 m 644 775 q 628 707 646 736 q 580 658 610 678 q 512 627 550 638 q 436 617 474 617 q 360 627 399 617 q 292 658 322 638 q 244 707 263 678 q 228 775 226 736 q 247 841 229 813 q 294 888 265 869 q 361 917 324 907 q 436 926 399 926 q 511 917 474 926 q 578 888 549 907 q 625 841 607 869 q 644 775 643 813 m 28 308 q 58 178 28 238 q 142 74 88 118 q 271 6 196 31 q 436 -18 346 -18 q 608 6 532 -18 q 736 74 683 31 q 817 178 789 118 q 844 308 844 238 q 818 414 844 367 q 756 494 792 461 q 687 547 721 528 q 639 567 653 565 q 697 599 669 579 q 744 644 724 618 q 776 703 764 671 q 788 775 788 736 q 761 891 788 840 q 688 976 735 942 q 576 1028 640 1010 q 436 1046 513 1046 q 295 1028 360 1046 q 184 976 231 1010 q 111 891 138 942 q 85 775 85 840 q 128 644 85 697 q 233 567 172 592 q 185 547 218 565 q 116 494 151 528 q 54 414 81 461 q 28 308 28 367 z "},"9":{"ha":831,"x_min":28,"x_max":803,"o":"m 393 925 q 485 907 442 925 q 560 857 528 889 q 610 783 592 825 q 629 690 629 740 q 611 603 629 643 q 563 533 593 563 q 491 486 532 503 q 403 469 450 469 q 308 488 353 469 q 231 537 264 506 q 180 610 199 568 q 161 700 161 651 q 180 788 161 747 q 231 860 199 829 q 304 908 263 890 q 393 925 346 925 m 803 519 q 772 751 803 653 q 685 915 740 850 q 555 1013 629 981 q 393 1046 481 1046 q 252 1023 318 1046 q 136 955 186 1000 q 57 843 86 910 q 28 689 28 776 q 60 547 28 610 q 145 440 93 485 q 261 372 197 396 q 386 349 325 349 q 483 361 439 349 q 560 391 526 374 q 616 427 593 408 q 650 460 639 446 q 624 278 650 347 q 558 171 597 210 q 475 119 519 132 q 393 106 431 106 q 311 118 346 106 q 251 152 276 131 q 206 204 225 174 q 174 271 188 235 q 153 297 167 289 q 122 304 139 304 q 72 286 96 304 q 49 236 49 268 q 69 173 49 215 q 131 88 89 131 q 235 14 172 46 q 385 -18 299 -18 q 564 24 486 -18 q 694 138 642 65 q 775 309 747 211 q 803 519 803 407 z "},"\u0007":{"ha":694,"x_min":0,"x_max":0,"o":""},"\u0005":{"ha":333,"x_min":28,"x_max":306,"o":"m 28 1081 q 68 982 28 1022 q 167 942 108 942 q 265 982 225 942 q 306 1081 306 1022 q 296 1106 306 1096 q 271 1115 286 1115 q 246 1106 256 1115 q 236 1081 236 1096 q 216 1031 236 1051 q 167 1011 196 1011 q 117 1031 138 1011 q 97 1081 97 1051 q 88 1106 97 1096 q 63 1115 78 1115 q 38 1106 47 1115 q 28 1081 28 1096 z "},"\u0006":{"ha":257,"x_min":28,"x_max":229,"o":"m 28 1014 q 58 944 28 974 q 129 914 88 914 q 199 944 169 914 q 229 1014 229 974 q 199 1085 229 1056 q 129 1115 169 1115 q 58 1085 88 1115 q 28 1014 28 1056 z "},"\b":{"ha":275,"x_min":28,"x_max":247,"o":"m 138 1115 q 60 1083 92 1115 q 28 1006 28 1051 q 60 928 28 960 q 138 896 92 896 q 215 928 183 896 q 247 1006 247 960 q 215 1083 247 1051 q 138 1115 183 1115 m 138 1079 q 190 1058 168 1079 q 211 1006 211 1036 q 190 953 211 975 q 138 932 168 932 q 85 953 107 932 q 64 1006 64 975 q 85 1058 64 1036 q 138 1079 107 1079 z "},"\f":{"ha":589,"x_min":17,"x_max":572,"o":"m 17 269 l 572 269 l 572 696 l 443 825 l 17 825 l 17 269 m 515 544 q 467 682 515 621 l 419 635 q 440 598 431 619 q 450 544 450 576 q 442 497 450 522 q 419 453 435 472 l 467 407 q 504 473 493 436 q 515 544 515 510 m 229 688 q 160 623 181 664 q 139 544 139 582 q 156 471 139 500 q 194 424 172 442 q 238 399 217 406 q 269 392 260 392 q 313 408 296 392 q 329 442 329 425 q 311 488 329 469 q 268 522 297 501 q 224 558 239 542 q 203 592 210 574 q 197 626 197 610 q 229 688 197 667 m 363 531 q 317 569 344 550 q 278 601 289 589 q 265 621 269 613 q 260 643 260 629 q 274 678 260 663 q 317 694 289 694 q 344 689 328 694 q 385 669 360 683 l 432 717 q 365 754 400 743 q 294 765 329 765 q 208 748 249 765 q 138 701 168 731 q 91 631 108 671 q 74 544 74 590 q 91 458 74 499 q 138 388 108 418 q 208 341 168 358 q 294 324 249 324 q 365 335 331 324 q 431 371 399 346 l 382 419 q 370 412 375 415 q 354 403 365 408 q 381 429 372 411 q 389 464 389 447 q 383 496 389 479 q 363 531 378 513 m 24 818 l 440 818 l 565 693 l 565 276 l 24 276 l 24 818 m 507 544 q 465 417 507 465 l 429 454 q 451 497 444 474 q 457 544 457 521 q 449 595 457 575 q 429 635 440 615 l 467 671 q 499 606 490 639 q 507 544 507 572 m 217 554 q 226 545 219 551 q 257 521 233 539 q 288 497 276 506 q 306 482 299 489 q 317 463 313 472 q 322 442 322 454 q 306 413 322 426 q 269 400 290 400 q 228 410 253 400 q 186 440 204 421 q 157 485 167 460 q 147 544 147 510 q 159 604 147 574 q 194 656 171 635 q 191 641 192 649 q 190 626 190 633 q 196 591 190 608 q 217 554 201 574 m 357 526 q 376 493 371 507 q 382 464 382 479 q 373 431 382 444 q 352 407 364 417 q 329 392 340 397 q 313 386 318 388 q 358 399 340 390 q 382 410 376 407 l 419 372 q 355 340 388 349 q 294 332 322 332 q 211 349 250 332 q 143 394 172 365 q 97 461 114 422 q 81 544 81 500 q 97 628 81 589 q 143 696 114 667 q 211 742 172 725 q 294 758 250 758 q 358 749 326 758 q 422 717 390 740 l 383 678 q 349 695 368 689 q 318 701 329 701 q 272 686 292 701 q 251 643 251 671 q 256 621 251 632 q 272 597 260 610 q 293 578 282 588 q 311 565 304 569 q 345 538 336 547 q 357 526 354 529 z "},"\r":{"ha":256,"x_min":54,"x_max":201,"o":"m 201 731 q 180 783 201 761 q 128 804 158 804 q 76 783 97 804 q 54 731 54 761 l 54 74 q 76 22 54 43 q 128 0 97 0 q 180 22 158 0 q 201 74 201 43 l 201 731 z "},"\u0019":{"ha":1242,"x_min":17,"x_max":1225,"o":"m 110 996 q 81 976 97 983 q 50 963 64 969 q 26 947 36 956 q 17 921 17 938 q 29 892 17 903 q 58 881 42 881 l 151 881 l 151 381 q 167 341 151 357 q 207 325 183 325 q 245 341 229 325 q 261 381 261 357 l 261 1042 q 245 1081 261 1065 q 207 1096 229 1096 q 175 1086 186 1096 q 154 1062 164 1076 q 135 1030 144 1047 q 110 996 126 1013 m 149 40 q 143 15 143 29 q 159 -24 143 -8 q 199 -40 175 -40 q 226 -32 214 -40 q 246 -11 239 -24 l 811 1065 q 818 1092 818 1079 q 802 1131 818 1115 q 763 1147 786 1147 q 733 1139 746 1147 q 713 1117 719 1131 l 149 40 m 1115 222 q 1098 152 1115 181 q 1053 106 1081 124 q 990 79 1025 88 q 919 71 956 71 q 848 79 883 71 q 785 106 813 88 q 740 152 757 124 q 724 222 724 181 q 741 291 724 263 q 786 337 758 319 q 849 363 814 354 q 919 371 883 371 q 990 363 956 371 q 1053 337 1025 354 q 1098 291 1081 319 q 1115 222 1115 263 m 1075 578 q 1063 527 1076 549 q 1026 490 1049 506 q 976 467 1004 475 q 919 460 949 460 q 863 467 890 460 q 812 490 835 475 q 776 527 789 506 q 763 578 763 549 q 778 627 764 606 q 813 663 792 649 q 863 685 835 678 q 919 692 890 692 q 976 685 949 692 q 1025 663 1003 678 q 1061 627 1047 649 q 1075 578 1075 606 m 613 228 q 635 131 613 175 q 699 53 658 86 q 796 2 739 21 q 919 -17 853 -17 q 1048 2 992 -17 q 1144 53 1104 21 q 1204 131 1183 86 q 1225 228 1225 175 q 1205 306 1225 271 q 1159 367 1185 342 q 1108 406 1133 392 q 1071 421 1082 421 q 1149 480 1117 440 q 1182 578 1182 519 q 1163 665 1182 628 q 1108 728 1143 703 q 1024 767 1072 754 q 919 781 976 781 q 814 767 863 781 q 730 728 765 754 q 675 665 694 703 q 656 578 656 628 q 689 480 656 519 q 767 421 722 440 q 731 406 756 421 q 679 367 706 392 q 633 306 653 342 q 613 228 613 271 z "},"\u001a":{"ha":722,"x_min":28,"x_max":678,"o":"m 92 658 l 143 658 l 143 74 q 164 22 143 43 q 215 0 185 0 q 267 22 246 0 q 289 74 289 43 l 289 658 l 522 658 l 522 74 q 544 22 522 43 q 596 0 565 0 q 648 22 626 0 q 669 74 669 43 l 669 713 q 648 765 669 743 q 596 786 626 786 l 289 786 l 289 915 q 302 944 289 939 q 324 950 315 950 l 349 950 q 401 972 379 950 q 422 1024 422 993 q 401 1075 422 1054 q 349 1096 379 1096 l 324 1096 q 246 1080 279 1096 q 190 1038 213 1064 q 155 979 167 1011 q 143 915 143 947 l 143 786 l 92 786 q 47 767 65 786 q 28 722 28 749 q 47 676 28 694 q 92 658 65 658 m 514 1014 q 538 956 514 981 q 596 932 561 932 q 654 956 631 932 q 678 1014 678 981 q 654 1072 678 1049 q 596 1096 631 1096 q 538 1072 561 1096 q 514 1014 514 1049 z "},"\u001b":{"ha":733,"x_min":28,"x_max":669,"o":"m 324 1096 q 246 1080 279 1096 q 190 1038 213 1064 q 155 979 167 1011 q 143 915 143 947 l 143 786 l 92 786 q 47 767 65 786 q 28 722 28 749 q 47 676 28 694 q 92 658 65 658 l 143 658 l 143 74 q 164 22 143 43 q 215 0 185 0 q 267 22 246 0 q 289 74 289 43 l 289 658 l 358 658 q 403 676 385 658 q 422 722 422 694 q 403 767 422 749 q 358 786 385 786 l 289 786 l 289 915 q 302 944 289 939 q 324 950 315 950 l 349 950 q 401 972 379 950 q 422 1024 422 993 q 401 1075 422 1054 q 349 1096 379 1096 l 324 1096 m 669 1024 q 648 1075 669 1054 q 596 1096 626 1096 q 544 1075 565 1096 q 522 1024 522 1054 l 522 74 q 544 22 522 43 q 596 0 565 0 q 648 22 626 0 q 669 74 669 43 l 669 1024 z "},"\u001c":{"ha":922,"x_min":28,"x_max":906,"o":"m 156 385 l 156 110 q 165 64 156 85 q 190 29 175 43 q 225 8 206 15 q 265 0 244 0 l 832 0 q 884 21 863 0 q 906 72 906 42 q 884 124 906 103 q 832 146 863 146 l 319 146 l 319 549 l 460 689 q 475 728 475 704 q 459 767 475 751 q 419 783 443 783 q 381 768 396 783 l 319 707 l 319 1014 q 296 1072 319 1049 q 238 1096 272 1096 q 180 1072 204 1096 q 156 1014 156 1049 l 156 543 l 44 432 q 28 392 28 415 q 44 352 28 368 q 83 336 60 336 q 124 353 107 336 l 156 385 z "},"\u001d":{"ha":485,"x_min":28,"x_max":457,"o":"m 156 403 l 156 74 q 177 22 156 43 q 229 0 199 0 q 281 22 260 0 q 301 74 301 43 l 301 549 l 442 689 q 457 728 457 704 q 441 767 457 751 q 401 783 425 783 q 363 768 378 783 l 301 707 l 301 1024 q 281 1075 301 1054 q 229 1096 260 1096 q 177 1075 199 1096 q 156 1024 156 1054 l 156 561 l 44 450 q 28 410 28 433 q 44 370 28 386 q 83 354 60 354 q 124 371 107 354 l 156 403 z "},"\u001e":{"ha":997,"x_min":64,"x_max":960,"o":"m 881 929 q 900 960 893 944 q 907 996 907 975 q 877 1067 907 1038 q 807 1096 847 1096 l 163 1096 q 111 1075 132 1096 q 90 1024 90 1054 q 111 972 90 993 q 163 950 132 950 l 694 950 l 90 169 q 70 138 76 153 q 64 100 64 122 q 94 30 64 60 q 165 0 124 0 l 886 0 q 938 21 917 0 q 960 72 960 42 q 938 124 960 103 q 886 146 917 146 l 269 146 l 881 929 m 365 1313 q 406 1214 365 1254 q 504 1174 446 1174 q 603 1214 563 1174 q 643 1313 643 1254 q 633 1338 643 1328 q 608 1347 624 1347 q 583 1338 593 1347 q 574 1313 574 1328 q 553 1263 574 1283 q 504 1243 533 1243 q 455 1263 475 1243 q 435 1313 435 1283 q 425 1338 435 1328 q 400 1347 415 1347 q 375 1338 385 1347 q 365 1313 365 1328 z "},"\u001f":{"ha":732,"x_min":28,"x_max":704,"o":"m 61 731 q 83 679 61 700 q 135 658 104 658 l 454 658 l 49 147 q 33 121 38 133 q 28 92 28 108 q 55 27 28 54 q 119 0 82 0 l 632 0 q 683 21 661 0 q 704 72 704 42 q 683 124 704 103 q 632 146 661 146 l 228 146 l 629 656 q 646 682 640 669 q 651 713 651 694 q 624 777 651 750 q 560 804 597 804 l 135 804 q 83 783 104 804 q 61 731 61 761 m 228 1040 q 268 942 228 982 q 367 901 308 901 q 465 942 425 901 q 506 1040 506 982 q 496 1065 506 1056 q 471 1075 486 1075 q 446 1065 456 1075 q 436 1040 436 1056 q 416 991 436 1011 q 367 971 396 971 q 317 991 338 971 q 297 1040 297 1011 q 288 1065 297 1056 q 263 1075 278 1075 q 238 1065 247 1075 q 228 1040 228 1056 z "}," ":{"ha":365,"x_min":0,"x_max":0,"o":""},"!":{"ha":329,"x_min":64,"x_max":265,"o":"m 64 100 q 94 30 64 60 q 164 0 124 0 q 235 30 206 0 q 265 100 265 60 q 235 172 265 142 q 164 201 206 201 q 94 172 124 201 q 64 100 64 142 m 246 1014 q 222 1072 246 1049 q 164 1096 199 1096 q 106 1072 131 1096 q 82 1014 82 1049 l 82 347 q 106 289 82 313 q 164 265 131 265 q 222 289 199 265 q 246 347 246 313 l 246 1014 z "},"\"":{"ha":397,"x_min":28,"x_max":369,"o":"m 57 918 q 72 888 61 900 q 100 875 82 875 q 128 888 118 875 q 143 918 139 900 l 171 1044 q 172 1057 172 1050 q 165 1080 172 1069 q 147 1099 157 1090 q 123 1111 136 1107 q 100 1115 110 1115 q 52 1099 76 1115 q 28 1057 28 1082 q 29 1044 28 1050 l 57 918 m 254 918 q 269 888 258 900 q 297 875 279 875 q 326 888 315 875 q 340 918 336 900 l 368 1044 q 369 1057 369 1050 q 362 1080 369 1069 q 344 1099 354 1090 q 320 1111 333 1107 q 297 1115 307 1115 q 249 1099 274 1115 q 225 1057 225 1082 q 226 1044 225 1050 l 254 918 z "},"#":{"ha":731,"x_min":36,"x_max":694,"o":"m 311 822 l 421 822 l 421 713 l 311 713 l 311 822 m 311 603 l 421 603 l 421 493 q 436 454 421 469 q 475 439 451 439 q 515 454 499 439 q 531 493 531 469 l 531 603 l 640 603 q 678 619 663 603 q 694 658 694 635 q 678 697 694 682 q 640 713 663 713 l 531 713 l 531 822 l 640 822 q 678 838 663 822 q 694 878 694 854 q 678 916 694 900 q 640 932 663 932 l 531 932 l 531 1042 q 515 1081 531 1065 q 475 1096 499 1096 q 436 1081 451 1096 q 421 1042 421 1065 l 421 932 l 311 932 l 311 1042 q 295 1081 311 1065 q 256 1096 279 1096 q 217 1081 232 1096 q 201 1042 201 1065 l 201 932 l 92 932 q 52 916 68 932 q 36 878 36 900 q 52 838 36 854 q 92 822 68 822 l 201 822 l 201 713 l 92 713 q 52 697 68 713 q 36 658 36 682 q 52 619 36 635 q 92 603 68 603 l 201 603 l 201 493 q 217 454 201 469 q 256 439 232 439 q 295 454 279 439 q 311 493 311 469 l 311 603 z "},"$":{"ha":756,"x_min":40,"x_max":718,"o":"m 413 274 l 413 507 q 468 491 442 500 q 515 469 494 482 q 549 438 536 457 q 561 394 561 419 q 517 307 561 339 q 413 274 474 275 m 349 78 q 358 55 349 64 q 381 46 367 46 q 403 55 394 46 q 413 78 413 64 l 413 154 q 528 170 472 156 q 626 215 583 185 q 693 291 668 244 q 718 404 718 338 q 692 508 718 467 q 624 576 667 549 q 526 619 582 603 q 413 649 471 636 l 413 854 q 455 843 438 850 q 486 825 472 836 q 511 797 500 814 q 533 754 522 781 q 557 726 542 735 q 590 717 572 717 q 644 735 619 717 q 669 786 669 754 q 653 835 669 804 q 603 895 636 865 q 523 948 571 925 q 413 974 475 971 l 413 1050 q 403 1073 413 1064 q 381 1082 394 1082 q 358 1073 367 1082 q 349 1050 349 1064 l 349 976 q 241 963 293 976 q 148 922 189 950 q 82 851 107 894 q 57 746 57 807 q 81 648 57 686 q 147 585 106 610 q 240 546 188 560 q 349 521 292 532 l 349 275 q 235 320 278 286 q 168 413 192 354 q 144 444 160 435 q 111 453 129 453 q 63 434 85 453 q 40 383 40 415 q 55 329 40 365 q 105 257 69 293 q 199 191 140 221 q 349 156 258 161 l 349 78 m 349 663 q 290 678 318 669 q 242 699 263 688 q 208 726 221 710 q 196 763 196 742 q 209 807 196 789 q 244 835 222 825 q 292 851 265 846 q 349 857 319 856 l 349 663 z "},"%":{"ha":971,"x_min":28,"x_max":943,"o":"m 822 1056 q 829 1086 829 1068 q 822 1117 829 1104 q 805 1138 815 1131 q 783 1148 794 1144 q 764 1151 772 1151 q 730 1142 746 1151 q 706 1117 714 1133 l 142 40 q 133 8 133 25 q 153 -37 133 -19 q 199 -56 172 -56 q 233 -47 217 -56 q 257 -21 249 -37 l 822 1056 m 228 583 q 378 651 326 583 q 429 849 429 718 q 378 1047 429 979 q 228 1115 326 1115 q 79 1047 131 1115 q 28 849 28 979 q 79 651 28 718 q 228 583 131 583 m 324 849 q 300 737 324 776 q 228 697 276 697 q 156 737 179 697 q 132 849 132 776 q 156 960 132 921 q 228 1000 179 1000 q 300 960 276 1000 q 324 849 324 921 m 742 -18 q 892 49 840 -18 q 943 247 943 117 q 892 446 943 378 q 742 514 840 514 q 592 446 644 514 q 540 247 540 378 q 592 49 540 117 q 742 -18 644 -18 m 838 247 q 814 135 838 175 q 742 96 790 96 q 669 135 693 96 q 646 247 646 175 q 669 359 646 319 q 742 399 693 399 q 814 359 790 399 q 838 247 838 319 z "},"&":{"ha":875,"x_min":28,"x_max":847,"o":"m 383 696 q 319 789 347 744 q 290 875 290 833 q 323 958 290 929 q 401 988 356 988 q 440 982 419 988 q 476 964 460 976 q 504 931 493 951 q 515 883 515 911 q 477 772 515 821 q 383 696 439 724 m 264 622 q 175 563 218 594 q 99 490 132 531 q 47 401 67 450 q 28 289 28 351 q 52 161 28 218 q 119 65 76 104 q 221 3 161 25 q 351 -18 281 -18 q 442 -7 400 -18 q 519 22 483 4 q 584 64 554 40 q 640 113 614 88 l 714 13 q 742 -10 725 -3 q 776 -18 758 -18 q 828 3 808 -18 q 847 56 847 24 q 832 103 847 83 l 726 243 q 760 330 746 283 q 779 432 774 376 q 758 499 783 478 q 706 519 733 519 q 660 503 681 519 q 635 454 639 488 q 631 416 632 432 q 624 378 631 400 l 461 593 q 533 643 497 615 q 596 705 568 671 q 641 779 624 739 q 658 867 658 819 q 639 969 658 924 q 585 1048 619 1015 q 505 1098 551 1081 q 404 1115 458 1115 q 307 1097 353 1115 q 226 1045 261 1078 q 172 968 192 1013 q 151 872 151 924 q 163 795 151 831 q 191 728 174 760 q 228 671 208 697 q 264 622 247 644 m 556 226 q 524 188 543 210 q 480 149 506 167 q 422 118 454 131 q 351 106 389 106 q 282 120 315 106 q 224 160 249 135 q 183 218 199 185 q 168 289 168 251 q 213 418 168 367 q 340 518 258 469 l 556 226 z "},"'":{"ha":200,"x_min":28,"x_max":172,"o":"m 57 918 q 72 888 61 900 q 100 875 82 875 q 128 888 118 875 q 143 918 139 900 l 171 1044 q 172 1057 172 1050 q 165 1080 172 1069 q 147 1099 157 1090 q 123 1111 136 1107 q 100 1115 110 1115 q 52 1099 76 1115 q 28 1057 28 1082 q 29 1044 28 1050 l 57 918 z "},"(":{"ha":440,"x_min":28,"x_max":424,"o":"m 404 58 q 250 271 308 150 q 192 549 192 392 q 250 826 192 706 q 404 1039 308 946 q 424 1083 424 1058 q 416 1116 424 1100 q 396 1144 408 1132 q 367 1165 383 1157 q 335 1172 351 1172 q 282 1147 306 1172 q 174 1016 221 1082 q 94 878 126 950 q 44 724 61 806 q 28 549 28 643 q 45 372 28 453 q 94 219 63 292 q 174 81 126 147 q 282 -50 221 15 q 335 -75 306 -75 q 397 -47 369 -75 q 424 14 424 -19 q 404 58 424 39 z "},")":{"ha":439,"x_min":17,"x_max":411,"o":"m 36 58 q 17 13 17 39 q 24 -19 17 -4 q 43 -47 31 -35 q 72 -67 56 -60 q 104 -75 88 -75 q 157 -50 133 -75 q 265 81 217 15 q 344 219 313 147 q 394 372 376 292 q 411 549 411 453 q 394 724 411 643 q 345 878 378 806 q 265 1016 313 950 q 157 1147 218 1082 q 104 1172 132 1172 q 72 1165 88 1172 q 43 1144 56 1157 q 24 1117 31 1132 q 17 1085 17 1101 q 36 1039 17 1058 q 190 826 132 947 q 247 549 247 706 q 189 271 247 392 q 36 58 131 150 z "},"*":{"ha":518,"x_min":28,"x_max":490,"o":"m 314 1042 q 298 1081 314 1065 q 260 1096 282 1096 q 220 1081 236 1096 q 204 1042 204 1065 l 204 932 l 110 988 q 83 994 99 994 q 42 976 56 994 q 28 939 28 958 q 54 892 28 907 l 150 838 l 54 782 q 28 735 28 767 q 47 692 28 703 q 82 681 65 681 q 110 688 99 681 l 204 743 l 204 633 q 220 594 204 610 q 260 578 236 578 q 298 594 282 578 q 314 633 314 610 l 314 743 l 408 688 q 422 682 415 683 q 435 681 428 681 q 478 700 465 681 q 490 735 490 719 q 464 782 490 767 l 369 838 l 464 892 q 483 912 476 899 q 490 940 490 925 q 474 980 490 965 q 436 994 458 994 q 408 988 418 994 l 314 932 l 314 1042 z "},"+":{"ha":581,"x_min":17,"x_max":564,"o":"m 354 485 l 500 485 q 545 503 526 485 q 564 549 564 521 q 545 594 564 575 q 500 613 526 613 l 354 613 l 354 758 q 335 803 354 785 q 290 822 317 822 q 244 803 263 822 q 226 758 226 785 l 226 613 l 81 613 q 35 594 54 613 q 17 549 17 575 q 35 503 17 521 q 81 485 54 485 l 226 485 l 226 338 q 244 292 226 311 q 290 274 263 274 q 335 292 317 274 q 354 338 354 311 l 354 485 z "},",":{"ha":264,"x_min":28,"x_max":236,"o":"m 28 100 q 58 30 28 60 q 129 0 88 0 q 110 -40 122 -24 q 79 -75 97 -56 q 69 -100 69 -86 q 83 -130 69 -117 q 114 -143 96 -143 q 143 -129 131 -143 q 212 -28 188 -83 q 236 81 236 28 q 226 135 236 113 q 201 173 217 158 q 167 194 186 188 q 131 201 149 201 q 58 172 89 201 q 28 100 28 143 z "},"-":{"ha":622,"x_min":28,"x_max":594,"o":"m 531 485 q 576 503 557 485 q 594 549 594 521 q 576 594 594 575 q 531 613 557 613 l 92 613 q 47 594 65 613 q 28 549 28 575 q 47 503 28 521 q 92 485 65 485 l 531 485 z "},".":{"ha":257,"x_min":28,"x_max":229,"o":"m 28 100 q 58 30 28 60 q 129 0 88 0 q 199 30 169 0 q 229 100 229 60 q 199 172 229 142 q 129 201 169 201 q 58 172 88 201 q 28 100 28 142 z "},"/":{"ha":728,"x_min":17,"x_max":711,"o":"m 704 1056 q 711 1086 711 1068 q 704 1117 711 1104 q 687 1138 697 1131 q 665 1148 676 1144 q 646 1151 654 1151 q 612 1142 628 1151 q 588 1117 596 1133 l 24 40 q 17 10 17 28 q 33 -33 17 -11 q 81 -56 49 -56 q 115 -47 99 -56 q 139 -21 131 -37 l 704 1056 z "},":":{"ha":313,"x_min":56,"x_max":257,"o":"m 56 703 q 85 633 56 663 q 157 603 115 603 q 227 633 197 603 q 257 703 257 663 q 227 774 257 744 q 157 804 197 804 q 85 774 115 804 q 56 703 56 744 m 56 100 q 85 30 56 60 q 157 0 115 0 q 227 30 197 0 q 257 100 257 60 q 227 172 257 142 q 157 201 197 201 q 85 172 115 201 q 56 100 56 142 z "},";":{"ha":319,"x_min":56,"x_max":264,"o":"m 56 100 q 85 30 56 60 q 157 0 115 0 q 138 -40 150 -24 q 107 -75 125 -56 q 97 -100 97 -86 q 110 -130 97 -117 q 142 -143 124 -143 q 171 -129 158 -143 q 240 -28 215 -83 q 264 81 264 28 q 254 135 264 113 q 229 173 244 158 q 195 194 214 188 q 158 201 176 201 q 86 172 117 201 q 56 100 56 143 m 56 703 q 85 633 56 663 q 157 603 115 603 q 227 633 197 603 q 257 703 257 663 q 227 774 257 744 q 157 804 197 804 q 85 774 115 804 q 56 703 56 744 z "},"<":{"ha":353,"x_min":17,"x_max":325,"o":"m 39 596 q 17 549 17 574 q 39 500 17 522 l 215 324 q 260 306 233 306 q 306 323 286 306 q 325 368 325 340 q 306 415 325 396 l 174 549 l 306 681 q 325 728 325 700 q 305 774 325 758 q 261 790 285 790 q 215 772 233 790 l 39 596 z "},"=":{"ha":618,"x_min":17,"x_max":601,"o":"m 547 383 q 586 399 571 383 q 601 439 601 415 q 586 478 601 463 q 547 493 571 493 l 72 493 q 33 478 49 493 q 17 439 17 463 q 33 399 17 415 q 72 383 49 383 l 547 383 m 547 603 q 586 619 571 603 q 601 658 601 635 q 586 697 601 682 q 547 713 571 713 l 72 713 q 33 697 49 713 q 17 658 17 682 q 33 619 17 635 q 72 603 49 603 l 547 603 z "},">":{"ha":353,"x_min":28,"x_max":336,"o":"m 314 596 l 138 772 q 92 790 119 790 q 48 774 68 790 q 28 728 28 758 q 47 681 28 700 l 179 549 l 47 415 q 28 368 28 396 q 47 323 28 340 q 93 306 67 306 q 138 324 119 306 l 314 500 q 336 549 336 522 q 314 596 336 574 z "},"?":{"ha":753,"x_min":28,"x_max":725,"o":"m 263 100 q 292 30 263 60 q 363 0 321 0 q 434 30 404 0 q 464 100 464 60 q 434 172 464 142 q 363 201 404 201 q 292 172 321 201 q 263 100 263 142 m 389 988 q 461 975 426 988 q 522 940 496 963 q 565 888 549 918 q 581 821 581 857 q 559 734 581 771 q 506 666 538 697 q 435 606 474 635 q 365 540 397 576 q 312 458 333 504 q 290 349 290 413 q 311 298 290 319 q 363 276 332 276 q 415 298 393 276 q 436 349 436 319 q 458 431 436 396 q 511 497 479 465 q 581 558 543 528 q 650 625 618 588 q 703 711 682 663 q 725 828 725 760 q 697 950 725 896 q 622 1040 668 1004 q 514 1096 575 1076 q 389 1115 453 1115 q 225 1081 293 1115 q 113 999 157 1047 q 49 901 69 951 q 28 819 28 851 q 51 763 28 783 q 101 742 74 742 q 141 756 122 742 q 167 800 160 769 q 240 935 186 883 q 389 988 293 988 z "},"@":{"ha":860,"x_min":28,"x_max":832,"o":"m 515 546 l 515 497 q 505 453 515 471 q 478 426 494 436 q 442 411 463 415 q 401 407 422 407 q 351 417 375 407 q 328 458 328 428 q 347 502 328 488 q 392 524 365 517 q 449 535 419 532 q 497 542 478 538 l 515 546 m 832 549 q 800 705 832 632 q 714 832 768 778 q 586 918 660 886 q 429 950 513 950 q 273 918 346 950 q 146 832 200 886 q 60 705 92 778 q 28 549 28 632 q 60 392 28 465 q 147 264 92 318 q 274 178 201 210 q 429 146 347 146 q 456 157 444 146 q 467 183 467 168 q 456 209 467 199 q 429 219 444 219 q 301 245 361 219 q 197 316 242 271 q 126 421 151 361 q 100 549 100 481 q 126 676 100 617 q 197 781 151 736 q 301 851 242 825 q 429 878 361 878 q 557 851 497 878 q 662 781 617 825 q 733 676 707 736 q 758 549 758 617 q 744 457 758 503 q 708 375 729 411 q 663 316 686 339 q 621 293 639 293 q 598 303 607 293 q 589 329 589 314 l 589 643 q 547 726 589 699 q 433 754 504 754 q 345 741 376 754 q 299 711 314 728 q 281 680 285 694 q 278 661 278 665 q 290 636 278 646 q 315 626 301 626 q 342 642 333 626 q 353 663 347 653 q 368 679 358 672 q 393 690 378 686 q 433 694 408 694 q 488 683 461 694 q 515 643 515 671 q 513 623 515 632 q 499 607 510 614 q 468 595 489 600 q 411 586 447 590 q 350 575 379 583 q 299 552 321 567 q 263 515 276 538 q 250 458 250 492 q 262 408 250 429 q 293 374 274 388 q 337 354 313 361 q 385 347 361 347 q 456 357 422 347 q 515 394 489 367 l 515 329 q 523 288 515 308 q 544 252 531 268 q 578 226 558 236 q 619 217 597 217 q 685 242 649 217 q 755 311 722 267 q 810 417 788 356 q 832 549 832 478 z "},"A":{"ha":963,"x_min":17,"x_max":946,"o":"m 465 933 l 625 476 l 322 476 l 465 933 m 471 1115 q 397 1090 426 1115 q 351 1024 367 1065 l 21 113 q 17 86 17 100 q 44 25 17 50 q 108 0 71 0 q 157 13 135 0 q 188 51 179 26 l 276 329 l 676 329 l 768 65 q 804 18 779 36 q 858 0 829 0 q 901 10 883 0 q 928 34 918 19 q 942 64 938 49 q 946 92 946 79 q 939 126 946 108 l 590 1024 q 545 1090 575 1065 q 471 1115 515 1115 z "},"B":{"ha":971,"x_min":64,"x_max":933,"o":"m 568 950 q 693 906 650 950 q 736 794 736 863 q 721 731 736 760 q 681 683 706 703 q 622 651 656 663 q 554 640 589 640 l 228 640 l 228 950 l 568 950 m 546 503 q 706 453 646 503 q 767 314 767 404 q 723 191 767 236 q 567 146 679 146 l 228 146 l 228 503 l 546 503 m 579 0 q 717 22 653 0 q 830 85 782 44 q 906 181 878 125 q 933 304 933 236 q 924 388 933 346 q 890 465 914 429 q 828 531 867 501 q 731 581 789 561 q 788 606 760 589 q 840 652 817 624 q 877 719 863 681 q 892 811 892 758 q 871 923 892 871 q 810 1013 850 975 q 710 1074 769 1051 q 575 1096 651 1096 l 174 1096 q 96 1064 128 1096 q 64 988 64 1032 l 64 110 q 74 64 64 85 q 99 29 83 43 q 133 8 114 15 q 174 0 153 0 l 579 0 z "},"C":{"ha":1006,"x_min":28,"x_max":968,"o":"m 526 969 q 634 951 588 969 q 715 901 681 932 q 772 833 750 871 q 807 757 794 796 q 836 717 815 729 q 881 706 857 706 q 940 727 913 706 q 968 786 968 749 q 935 885 968 828 q 844 992 903 942 q 703 1079 785 1043 q 526 1115 622 1115 q 308 1068 401 1115 q 152 942 214 1021 q 59 761 90 864 q 28 549 28 658 q 59 335 28 438 q 152 154 90 233 q 308 28 214 75 q 526 -19 401 -19 q 728 21 644 -19 q 865 116 813 61 q 943 226 918 171 q 968 313 968 282 q 940 371 968 350 q 881 392 913 392 q 836 380 857 392 q 807 340 815 368 q 772 263 794 301 q 715 194 750 225 q 634 145 681 164 q 526 126 588 126 q 396 156 457 126 q 290 242 335 186 q 218 375 244 297 q 192 549 192 453 q 218 722 192 644 q 290 855 244 800 q 396 940 335 910 q 526 969 457 969 z "},"D":{"ha":988,"x_min":64,"x_max":960,"o":"m 471 950 q 614 922 553 950 q 715 841 675 893 q 775 715 756 789 q 794 549 794 640 q 775 381 794 456 q 715 255 756 307 q 614 174 675 203 q 471 146 553 146 l 228 146 l 228 950 l 471 950 m 503 0 q 667 28 585 0 q 814 120 749 56 q 919 290 879 185 q 960 549 960 394 q 919 806 960 701 q 814 976 879 911 q 667 1068 749 1040 q 503 1096 585 1096 l 174 1096 q 96 1064 128 1096 q 64 988 64 1032 l 64 110 q 74 64 64 85 q 99 29 83 43 q 133 8 114 15 q 174 0 153 0 l 503 0 z "},"E":{"ha":914,"x_min":64,"x_max":886,"o":"m 814 0 q 865 21 843 0 q 886 72 886 42 q 865 124 886 103 q 814 146 843 146 l 228 146 l 228 503 l 768 503 q 819 524 799 503 q 840 575 840 546 q 819 627 840 606 q 768 649 799 649 l 228 649 l 228 950 l 803 950 q 854 972 833 950 q 875 1024 875 993 q 854 1075 875 1054 q 803 1096 833 1096 l 174 1096 q 96 1064 128 1096 q 64 988 64 1032 l 64 110 q 74 64 64 85 q 99 29 83 43 q 133 8 114 15 q 174 0 153 0 l 814 0 z "},"F":{"ha":808,"x_min":64,"x_max":781,"o":"m 228 503 l 664 503 q 715 524 694 503 q 736 575 736 546 q 715 627 736 606 q 664 649 694 649 l 228 649 l 228 950 l 707 950 q 759 972 738 950 q 781 1024 781 993 q 759 1075 781 1054 q 707 1096 738 1096 l 174 1096 q 96 1064 128 1096 q 64 988 64 1032 l 64 82 q 88 24 64 49 q 146 0 113 0 q 204 24 181 0 q 228 82 228 49 l 228 503 z "},"G":{"ha":1031,"x_min":28,"x_max":1003,"o":"m 526 969 q 630 957 588 969 q 703 923 672 944 q 755 873 733 901 q 796 811 776 844 q 835 774 811 786 q 882 763 858 763 q 938 781 914 763 q 961 833 961 800 q 939 906 961 858 q 866 999 917 953 q 732 1081 815 1046 q 526 1115 649 1115 q 308 1068 401 1115 q 152 942 214 1021 q 59 761 90 864 q 28 549 28 658 q 59 335 28 438 q 152 154 90 233 q 308 28 214 75 q 526 -19 401 -19 q 713 24 626 -19 q 865 136 800 67 q 966 293 929 206 q 1003 469 1003 381 q 1001 510 1003 486 q 991 554 1000 533 q 963 590 982 575 q 908 606 943 606 l 649 606 q 597 584 618 606 q 576 532 576 563 q 597 480 576 501 q 649 458 618 458 l 843 458 q 820 333 843 393 q 756 226 797 272 q 656 153 714 181 q 526 126 597 126 q 396 156 457 126 q 290 242 335 186 q 218 375 244 297 q 192 549 192 453 q 218 722 192 644 q 290 855 244 800 q 396 940 335 910 q 526 969 457 969 z "},"H":{"ha":1006,"x_min":64,"x_max":942,"o":"m 776 497 l 776 82 q 801 24 776 49 q 858 0 825 0 q 917 24 893 0 q 942 82 942 49 l 942 1014 q 917 1072 942 1049 q 858 1096 893 1096 q 801 1072 825 1096 q 776 1014 776 1049 l 776 643 l 228 643 l 228 1014 q 204 1072 228 1049 q 146 1096 181 1096 q 88 1072 113 1096 q 64 1014 64 1049 l 64 82 q 88 24 64 49 q 146 0 113 0 q 204 24 181 0 q 228 82 228 49 l 228 497 l 776 497 z "},"I":{"ha":292,"x_min":64,"x_max":228,"o":"m 228 1014 q 204 1072 228 1049 q 146 1096 181 1096 q 88 1072 113 1096 q 64 1014 64 1049 l 64 82 q 88 24 64 49 q 146 0 113 0 q 204 24 181 0 q 228 82 228 49 l 228 1014 z "},"J":{"ha":739,"x_min":17,"x_max":675,"o":"m 346 126 q 285 137 315 126 q 233 168 256 147 q 196 219 210 189 q 182 290 182 250 q 158 348 182 324 q 99 372 133 372 q 41 348 65 372 q 17 290 17 324 q 41 160 17 218 q 109 63 65 103 q 213 2 153 24 q 346 -19 274 -19 q 593 63 511 -19 q 675 290 675 144 l 675 1014 q 651 1072 675 1049 q 593 1096 626 1096 q 534 1072 558 1096 q 510 1014 510 1049 l 510 290 q 462 167 510 208 q 346 126 414 126 z "},"K":{"ha":933,"x_min":64,"x_max":917,"o":"m 786 28 q 844 0 808 0 q 865 3 853 0 q 890 14 878 6 q 909 36 901 22 q 917 72 917 50 q 903 117 917 99 l 501 640 l 843 971 q 865 1022 865 992 q 847 1071 865 1046 q 792 1096 829 1096 q 742 1076 761 1096 l 228 581 l 228 1014 q 204 1072 228 1049 q 146 1096 181 1096 q 88 1072 113 1096 q 64 1014 64 1049 l 64 82 q 88 24 64 49 q 146 0 113 0 q 204 24 181 0 q 228 82 228 49 l 228 378 l 394 539 l 786 28 z "},"L":{"ha":831,"x_min":64,"x_max":814,"o":"m 228 1014 q 204 1072 228 1049 q 146 1096 181 1096 q 88 1072 113 1096 q 64 1014 64 1049 l 64 110 q 74 64 64 85 q 99 29 83 43 q 133 8 114 15 q 174 0 153 0 l 740 0 q 792 21 771 0 q 814 72 814 42 q 792 124 814 103 q 740 146 771 146 l 228 146 l 228 1014 z "},"M":{"ha":1169,"x_min":64,"x_max":1106,"o":"m 879 985 l 585 224 l 290 985 q 244 1063 272 1031 q 167 1096 215 1096 q 94 1066 124 1096 q 64 994 64 1036 l 64 74 q 85 22 64 43 q 138 0 107 0 q 189 22 168 0 q 210 74 210 43 l 210 786 l 481 81 q 520 22 494 44 q 585 0 546 0 q 649 22 624 0 q 689 81 675 44 l 960 786 l 960 74 q 981 22 960 43 q 1032 0 1001 0 q 1084 22 1063 0 q 1106 74 1106 43 l 1106 994 q 1076 1066 1106 1036 q 1003 1096 1046 1096 q 926 1063 954 1096 q 879 985 897 1031 z "},"N":{"ha":985,"x_min":64,"x_max":921,"o":"m 839 0 q 897 24 874 0 q 921 82 921 49 l 921 1014 q 897 1072 921 1049 q 839 1096 874 1096 q 781 1072 804 1096 q 757 1014 757 1049 l 757 283 l 260 1029 q 211 1078 238 1061 q 146 1096 185 1096 q 88 1072 113 1096 q 64 1014 64 1049 l 64 82 q 88 24 64 49 q 146 0 113 0 q 204 24 181 0 q 228 82 228 49 l 228 807 l 726 67 q 774 17 747 35 q 839 0 800 0 z "},"O":{"ha":1133,"x_min":28,"x_max":1106,"o":"m 567 -19 q 790 26 690 -19 q 959 150 889 72 q 1067 331 1029 228 q 1106 549 1106 433 q 1067 765 1106 663 q 959 946 1029 868 q 790 1069 889 1024 q 567 1115 690 1115 q 344 1069 443 1115 q 174 946 244 1024 q 66 765 104 868 q 28 549 28 663 q 66 331 28 433 q 174 150 104 228 q 344 26 244 72 q 567 -19 443 -19 m 942 549 q 913 375 942 453 q 833 242 883 297 q 714 158 782 188 q 567 128 646 128 q 419 158 488 128 q 301 242 351 188 q 221 375 250 297 q 192 549 192 453 q 221 722 192 644 q 301 854 250 800 q 419 938 351 908 q 567 968 488 968 q 714 938 646 968 q 833 854 782 908 q 913 722 883 800 q 942 549 942 644 z "},"P":{"ha":914,"x_min":64,"x_max":886,"o":"m 554 950 q 619 937 589 950 q 673 901 650 924 q 709 847 696 878 q 722 782 722 817 q 709 717 722 747 q 673 663 696 686 q 619 627 650 640 q 554 614 589 614 l 228 614 l 228 950 l 554 950 m 228 468 l 572 468 q 694 492 638 468 q 794 560 751 517 q 862 660 838 603 q 886 782 886 717 q 862 904 886 847 q 794 1004 838 961 q 694 1072 751 1047 q 572 1096 638 1096 l 174 1096 q 96 1064 128 1096 q 64 988 64 1032 l 64 82 q 88 24 64 49 q 146 0 113 0 q 204 24 181 0 q 228 82 228 49 l 228 468 z "},"Q":{"ha":1133,"x_min":28,"x_max":1106,"o":"m 567 128 q 419 158 488 128 q 301 242 351 188 q 221 375 250 297 q 192 549 192 453 q 221 722 192 644 q 301 854 250 800 q 419 938 351 908 q 567 968 488 968 q 714 938 646 968 q 833 854 782 908 q 913 722 883 800 q 942 549 942 644 q 913 375 942 456 q 811 221 885 294 l 776 269 q 750 291 765 285 q 718 297 735 297 q 663 274 681 297 q 644 225 644 250 q 658 182 644 200 l 685 147 q 624 132 651 136 q 567 128 596 128 m 1106 549 q 1067 765 1106 663 q 959 946 1029 868 q 790 1069 889 1024 q 567 1115 690 1115 q 344 1069 443 1115 q 174 946 244 1024 q 66 765 104 868 q 28 549 28 663 q 66 331 28 433 q 174 151 104 228 q 344 28 244 74 q 567 -18 443 -18 q 665 -10 611 -18 q 776 22 718 -1 l 863 -92 q 889 -114 874 -107 q 921 -121 904 -121 q 967 -103 944 -121 q 990 -46 990 -85 q 979 -6 990 -19 l 903 99 q 997 199 958 146 q 1059 310 1035 253 q 1094 428 1083 368 q 1106 549 1106 489 z "},"R":{"ha":990,"x_min":64,"x_max":953,"o":"m 619 950 q 685 937 654 950 q 738 901 715 924 q 774 847 761 878 q 788 782 788 817 q 774 717 788 747 q 738 663 761 686 q 685 627 715 640 q 619 614 654 614 l 228 614 l 228 950 l 619 950 m 953 782 q 928 903 953 846 q 860 1003 903 961 q 760 1071 818 1046 q 638 1096 703 1096 l 174 1096 q 96 1064 128 1096 q 64 988 64 1032 l 64 82 q 88 24 64 49 q 146 0 113 0 q 204 24 181 0 q 228 82 228 49 l 228 468 l 538 468 q 607 460 574 468 q 667 433 640 451 q 712 385 694 415 q 733 313 729 356 l 754 75 q 781 21 757 42 q 839 0 804 0 q 900 28 878 0 q 919 89 922 56 l 889 381 q 876 426 886 401 q 847 472 865 450 q 801 513 828 494 q 740 539 775 531 q 834 574 794 549 q 900 633 874 599 q 940 706 926 667 q 953 782 953 744 z "},"S":{"ha":951,"x_min":40,"x_max":914,"o":"m 914 317 q 885 446 914 393 q 810 535 857 499 q 703 594 763 571 q 580 633 643 617 q 457 665 517 650 q 350 701 397 681 q 274 753 303 722 q 246 831 246 783 q 263 892 246 865 q 312 938 281 919 q 385 967 343 957 q 478 978 428 978 q 547 973 511 978 q 616 953 583 968 q 676 913 649 939 q 719 846 703 888 q 749 808 731 819 q 788 796 767 796 q 841 817 817 796 q 865 875 865 839 q 838 961 865 918 q 759 1039 810 1004 q 638 1094 708 1074 q 485 1115 568 1115 q 326 1096 399 1115 q 201 1039 254 1076 q 119 947 149 1001 q 89 824 89 893 q 117 701 89 750 q 192 617 146 651 q 299 562 239 583 q 421 524 358 540 q 543 491 483 507 q 649 451 603 475 q 724 393 696 428 q 753 306 753 358 q 728 222 753 257 q 666 166 704 188 q 581 134 628 144 q 492 124 535 124 q 386 138 438 124 q 293 178 335 151 q 223 246 251 206 q 186 339 194 286 q 163 385 182 371 q 119 400 143 400 q 66 379 92 400 q 40 308 40 358 q 65 210 40 267 q 144 103 90 154 q 285 17 199 53 q 496 -18 372 -18 q 658 3 582 -18 q 792 65 735 24 q 881 169 849 107 q 914 317 914 232 z "},"T":{"ha":867,"x_min":18,"x_max":849,"o":"m 351 950 l 351 82 q 375 24 351 49 q 433 0 399 0 q 491 24 467 0 q 515 82 515 49 l 515 950 l 775 950 q 827 972 806 950 q 849 1024 849 993 q 827 1075 849 1054 q 775 1096 806 1096 l 92 1096 q 40 1075 61 1096 q 18 1024 18 1054 q 40 972 18 993 q 92 950 61 950 l 351 950 z "},"U":{"ha":1006,"x_min":64,"x_max":942,"o":"m 776 365 q 753 254 776 300 q 692 181 731 208 q 605 140 654 153 q 503 128 556 128 q 400 140 450 128 q 312 181 350 153 q 251 254 274 208 q 228 365 228 300 l 228 1014 q 204 1072 228 1049 q 146 1096 181 1096 q 88 1072 113 1096 q 64 1014 64 1049 l 64 365 q 101 185 64 258 q 198 66 138 111 q 338 1 258 21 q 503 -18 417 -18 q 667 1 588 -18 q 808 66 747 21 q 905 185 868 111 q 942 365 942 258 l 942 1014 q 917 1072 942 1049 q 858 1096 893 1096 q 801 1072 825 1096 q 776 1014 776 1049 l 776 365 z "},"V":{"ha":908,"x_min":17,"x_max":892,"o":"m 349 78 q 388 21 361 42 q 454 0 415 0 q 520 21 493 0 q 560 78 547 42 l 888 986 q 892 1014 892 1000 q 884 1053 892 1038 q 864 1078 876 1069 q 838 1092 851 1088 q 811 1096 824 1096 q 763 1082 785 1096 q 733 1043 742 1068 l 454 219 l 175 1043 q 145 1082 167 1068 q 97 1096 124 1096 q 53 1086 69 1096 q 29 1063 38 1076 q 19 1036 21 1050 q 17 1014 17 1022 q 21 986 17 1000 l 349 78 z "},"W":{"ha":1372,"x_min":17,"x_max":1356,"o":"m 1090 68 l 1353 990 q 1356 1001 1356 997 q 1356 1014 1356 1007 q 1334 1069 1356 1043 q 1274 1094 1313 1094 q 1224 1079 1246 1094 q 1196 1036 1203 1064 l 992 257 l 803 996 q 761 1063 792 1039 q 686 1088 731 1088 q 612 1063 643 1088 q 569 996 581 1039 l 382 257 l 178 1036 q 149 1079 171 1064 q 99 1094 126 1094 q 58 1085 74 1094 q 33 1063 42 1076 q 20 1036 24 1050 q 17 1013 17 1022 q 19 990 17 1004 l 282 68 q 317 18 292 36 q 378 0 343 0 q 435 17 410 0 q 468 67 460 35 l 686 914 l 904 67 q 938 17 913 35 q 996 0 963 0 q 1056 18 1031 0 q 1090 68 1081 36 z "},"X":{"ha":876,"x_min":28,"x_max":849,"o":"m 54 982 l 349 558 l 40 114 q 28 72 28 94 q 49 22 28 43 q 100 0 69 0 q 134 8 118 0 q 161 31 150 15 l 438 431 l 715 31 q 775 0 736 0 q 831 25 813 0 q 849 72 849 50 q 836 114 849 94 l 526 558 l 821 982 q 835 1024 835 1000 q 810 1078 835 1061 q 761 1096 785 1096 q 728 1088 744 1096 q 701 1065 713 1081 l 438 686 l 175 1065 q 114 1096 153 1096 q 81 1088 94 1096 q 58 1070 67 1081 q 46 1047 50 1060 q 42 1024 42 1033 q 54 982 42 1000 z "},"Y":{"ha":946,"x_min":17,"x_max":929,"o":"m 917 982 q 929 1024 929 1000 q 922 1058 929 1044 q 903 1081 914 1072 q 879 1092 892 1089 q 857 1096 867 1096 q 824 1088 840 1096 q 797 1065 808 1081 l 472 601 l 149 1065 q 122 1088 138 1081 q 89 1096 106 1096 q 38 1076 60 1096 q 17 1024 17 1056 q 29 982 17 1000 l 390 464 l 390 82 q 415 24 390 49 q 472 0 439 0 q 531 24 507 0 q 556 82 556 49 l 556 464 l 917 982 z "},"Z":{"ha":997,"x_min":64,"x_max":960,"o":"m 881 929 q 900 960 893 944 q 907 996 907 975 q 877 1067 907 1038 q 807 1096 847 1096 l 163 1096 q 111 1075 132 1096 q 90 1024 90 1054 q 111 972 90 993 q 163 950 132 950 l 694 950 l 90 169 q 70 138 76 153 q 64 100 64 122 q 94 30 64 60 q 165 0 124 0 l 886 0 q 938 21 917 0 q 960 72 960 42 q 938 124 960 103 q 886 146 917 146 l 269 146 l 881 929 z "},"[":{"ha":467,"x_min":64,"x_max":429,"o":"m 64 -36 q 78 -109 64 -81 q 114 -154 92 -137 q 161 -177 136 -171 q 210 -183 186 -183 l 356 -183 q 408 -162 386 -183 q 429 -110 429 -140 q 408 -58 429 -79 q 356 -36 386 -36 l 283 -36 q 228 -14 247 -36 q 210 36 210 8 l 210 1060 q 233 1116 210 1099 q 283 1133 257 1133 l 356 1133 q 408 1154 386 1133 q 429 1206 429 1175 q 408 1258 429 1236 q 356 1279 386 1279 l 210 1279 q 140 1265 168 1279 q 94 1229 111 1251 q 71 1181 78 1207 q 64 1133 64 1156 l 64 -36 z "},"\\":{"ha":728,"x_min":17,"x_max":711,"o":"m 588 -21 q 612 -47 596 -37 q 646 -56 628 -56 q 696 -34 681 -56 q 711 10 711 -12 q 704 40 711 28 l 139 1117 q 115 1142 131 1133 q 81 1151 99 1151 q 49 1144 61 1151 q 30 1127 38 1138 q 19 1106 22 1117 q 17 1086 17 1094 q 24 1056 17 1068 l 588 -21 z "},"]":{"ha":457,"x_min":28,"x_max":393,"o":"m 393 1133 q 381 1199 393 1171 q 347 1244 368 1226 q 300 1270 326 1261 q 247 1279 274 1279 l 101 1279 q 49 1258 71 1279 q 28 1206 28 1236 q 49 1154 28 1175 q 101 1133 71 1133 l 175 1133 q 210 1126 196 1133 q 232 1107 224 1118 q 244 1083 240 1096 q 247 1060 247 1069 l 247 36 q 225 -18 247 0 q 175 -36 203 -36 l 101 -36 q 49 -58 71 -36 q 28 -110 28 -79 q 49 -162 28 -140 q 101 -183 71 -183 l 247 -183 q 315 -170 288 -183 q 360 -136 343 -157 q 385 -89 378 -115 q 393 -36 393 -62 l 393 1133 z "},"^":{"ha":333,"x_min":28,"x_max":306,"o":"m 194 1101 q 167 1115 181 1115 q 139 1101 153 1115 l 39 1001 q 28 975 28 990 q 40 947 28 956 q 64 939 53 939 q 92 950 81 939 l 167 1025 l 242 950 q 269 939 253 939 q 297 953 289 939 q 306 976 306 968 q 294 1001 306 990 l 194 1101 z "},"_":{"ha":950,"x_min":0,"x_max":1024,"o":"m 950 -256 q 1002 -235 981 -256 q 1024 -183 1024 -214 q 1002 -131 1024 -153 q 950 -110 981 -110 l 74 -110 q 22 -131 43 -110 q 0 -183 0 -153 q 22 -235 0 -214 q 74 -256 43 -256 l 950 -256 z "},"`":{"ha":258,"x_min":28,"x_max":231,"o":"m 160 904 q 193 893 175 893 q 223 907 215 893 q 231 932 231 921 q 219 964 231 949 l 149 1074 q 104 1096 135 1096 q 69 1088 83 1096 q 46 1069 56 1081 q 32 1045 36 1058 q 28 1021 28 1032 q 33 994 28 1007 q 50 975 39 982 l 160 904 z "},"a":{"ha":757,"x_min":28,"x_max":703,"o":"m 210 590 q 231 631 219 611 q 263 664 243 650 q 313 686 282 678 q 393 694 343 694 q 450 688 421 694 q 503 669 479 682 q 542 638 526 657 q 557 592 557 618 q 552 551 557 569 q 526 519 547 533 q 464 495 506 506 q 349 476 422 485 q 227 454 285 469 q 125 410 169 439 q 54 335 81 381 q 28 224 28 290 q 51 124 28 165 q 113 54 75 82 q 199 13 151 26 q 294 0 247 0 q 437 19 369 0 q 557 96 504 39 l 557 74 q 578 22 557 43 q 631 0 600 0 q 682 22 661 0 q 703 74 703 43 l 703 592 q 619 758 703 701 q 393 814 535 814 q 266 801 318 814 q 178 765 214 788 q 122 715 143 743 q 89 657 101 686 q 82 626 82 639 q 106 576 82 594 q 157 558 129 558 q 187 566 172 558 q 210 590 201 574 m 557 399 l 557 300 q 537 214 557 249 q 484 158 517 179 q 411 128 451 138 q 331 119 371 119 q 278 124 304 119 q 231 141 251 129 q 197 173 210 153 q 183 224 183 193 q 201 288 183 263 q 247 328 218 313 q 313 353 276 344 q 387 367 349 361 q 460 376 425 372 q 522 389 496 381 l 557 399 z "},"b":{"ha":804,"x_min":64,"x_max":776,"o":"m 210 86 q 262 46 238 63 q 313 19 286 29 q 371 4 339 8 q 444 0 403 0 q 573 29 513 0 q 678 112 633 58 q 750 239 724 165 q 776 401 776 313 q 753 565 776 490 q 685 692 729 639 q 581 775 642 746 q 444 804 519 804 q 346 790 388 804 q 276 758 304 776 q 233 721 249 739 q 210 694 217 703 l 210 1024 q 189 1075 210 1054 q 138 1096 168 1096 q 85 1075 107 1096 q 64 1024 64 1054 l 64 74 q 85 22 64 43 q 138 0 107 0 q 189 22 168 0 q 210 74 210 43 l 210 86 m 640 401 q 626 296 640 347 q 583 206 611 244 q 513 143 554 167 q 421 119 472 119 q 327 143 368 119 q 258 206 286 167 q 216 296 231 244 q 201 401 201 347 q 216 508 201 457 q 258 598 231 558 q 327 661 286 638 q 421 685 368 685 q 513 661 472 685 q 583 598 554 638 q 626 508 611 558 q 640 401 640 457 z "},"c":{"ha":764,"x_min":28,"x_max":736,"o":"m 411 -10 q 573 18 510 -10 q 672 82 636 46 q 722 153 708 118 q 736 204 736 189 q 713 252 736 235 q 663 269 690 269 q 626 260 643 269 q 603 226 610 250 q 580 183 596 204 q 540 146 564 163 q 483 119 515 129 q 411 110 450 110 q 326 126 368 110 q 249 176 283 142 q 194 267 215 211 q 174 401 174 322 q 194 537 174 481 q 249 628 215 593 q 326 678 283 663 q 411 694 368 694 q 483 685 450 694 q 540 658 515 675 q 580 621 564 642 q 603 578 596 600 q 626 544 610 554 q 663 535 643 535 q 713 552 690 535 q 735 601 735 569 q 715 663 735 626 q 656 732 696 699 q 556 790 617 765 q 411 814 494 814 q 259 784 329 814 q 138 700 189 754 q 57 570 86 646 q 28 401 28 494 q 57 234 28 310 q 138 104 86 158 q 259 20 189 50 q 411 -10 329 -10 z "},"d":{"ha":804,"x_min":28,"x_max":740,"o":"m 594 86 l 594 74 q 615 22 594 43 q 667 0 636 0 q 719 22 697 0 q 740 74 740 43 l 740 1024 q 719 1075 740 1054 q 667 1096 697 1096 q 615 1075 636 1096 q 594 1024 594 1054 l 594 694 q 572 721 588 703 q 528 758 556 739 q 458 790 500 776 q 360 804 417 804 q 224 775 285 804 q 119 692 163 746 q 51 565 75 639 q 28 401 28 490 q 54 239 28 313 q 126 112 81 165 q 231 29 171 58 q 360 0 292 0 q 433 4 401 0 q 492 19 465 8 q 542 46 518 29 q 594 86 567 63 m 164 401 q 178 508 164 457 q 222 598 193 558 q 290 661 250 638 q 383 685 331 685 q 477 661 436 685 q 546 598 518 638 q 588 508 574 558 q 603 401 603 457 q 588 296 603 347 q 546 206 574 244 q 477 143 518 167 q 383 119 436 119 q 290 143 331 119 q 222 206 250 167 q 178 296 193 244 q 164 401 164 347 z "},"e":{"ha":808,"x_min":28,"x_max":781,"o":"m 697 358 q 756 385 731 358 q 781 463 781 411 q 751 611 781 546 q 672 722 722 676 q 552 790 621 767 q 404 814 483 814 q 249 781 318 814 q 130 693 179 749 q 54 562 81 638 q 28 401 28 486 q 53 244 28 319 q 128 113 79 169 q 250 24 178 57 q 414 -10 322 -10 q 567 15 504 -10 q 669 74 629 40 q 726 140 708 107 q 744 190 744 174 q 724 236 744 218 q 678 254 703 254 q 649 247 663 254 q 624 224 635 240 q 585 173 604 194 q 542 138 565 151 q 488 117 518 124 q 414 110 457 110 q 324 127 361 110 q 263 171 288 144 q 223 228 238 197 q 201 288 208 260 q 191 335 193 315 q 189 358 189 356 l 697 358 m 407 694 q 511 676 467 694 q 584 628 556 658 q 626 560 613 599 q 640 478 640 521 l 190 478 q 192 498 190 481 q 200 539 193 515 q 221 590 207 563 q 259 641 235 618 q 319 679 283 664 q 407 694 356 694 z "},"f":{"ha":450,"x_min":28,"x_max":422,"o":"m 324 1096 q 246 1080 279 1096 q 190 1038 213 1064 q 155 979 167 1011 q 143 915 143 947 l 143 786 l 92 786 q 47 767 65 786 q 28 722 28 749 q 47 676 28 694 q 92 658 65 658 l 143 658 l 143 74 q 164 22 143 43 q 215 0 185 0 q 267 22 246 0 q 289 74 289 43 l 289 658 l 358 658 q 403 676 385 658 q 422 722 422 694 q 403 767 422 749 q 358 786 385 786 l 289 786 l 289 915 q 302 944 289 939 q 324 950 315 950 l 349 950 q 401 972 379 950 q 422 1024 422 993 q 401 1075 422 1054 q 349 1096 379 1096 l 324 1096 z "},"g":{"ha":813,"x_min":28,"x_max":758,"o":"m 613 718 q 513 778 572 751 q 369 804 454 804 q 238 781 300 804 q 130 708 176 757 q 56 583 83 658 q 28 401 28 507 q 53 221 28 297 q 123 96 78 144 q 231 24 168 47 q 369 0 294 0 q 460 12 421 0 q 528 40 499 24 q 578 76 557 57 q 613 110 599 94 l 613 18 q 596 -66 613 -31 q 550 -124 579 -101 q 482 -158 521 -147 q 399 -168 443 -168 q 327 -162 357 -168 q 274 -146 297 -157 q 233 -119 251 -135 q 197 -82 215 -103 q 147 -56 172 -56 q 104 -76 122 -56 q 86 -125 86 -97 q 104 -170 86 -142 q 161 -226 122 -199 q 258 -273 200 -253 q 399 -293 317 -293 q 539 -270 474 -293 q 653 -206 604 -247 q 730 -108 701 -165 q 758 18 758 -51 l 758 731 q 737 783 758 761 q 685 804 715 804 q 633 783 654 804 q 613 731 613 761 l 613 718 m 164 401 q 225 613 164 540 q 393 685 286 685 q 560 613 500 685 q 621 401 621 540 q 560 191 621 263 q 393 119 500 119 q 225 191 286 119 q 164 401 164 263 z "},"h":{"ha":776,"x_min":64,"x_max":722,"o":"m 210 485 q 226 563 210 526 q 270 626 242 599 q 336 669 299 653 q 415 685 374 685 q 476 673 447 685 q 528 640 506 661 q 563 591 550 619 q 576 531 576 563 l 576 74 q 597 22 576 43 q 649 0 618 0 q 701 22 679 0 q 722 74 722 43 l 722 531 q 701 644 722 593 q 640 730 679 694 q 547 785 601 765 q 429 804 493 804 q 306 776 357 804 q 210 697 254 749 l 210 1024 q 189 1075 210 1054 q 138 1096 168 1096 q 85 1075 107 1096 q 64 1024 64 1054 l 64 74 q 85 22 64 43 q 138 0 107 0 q 189 22 168 0 q 210 74 210 43 l 210 485 z "},"i":{"ha":254,"x_min":44,"x_max":210,"o":"m 44 1014 q 69 956 44 981 q 128 932 93 932 q 185 956 161 932 q 210 1014 210 981 q 185 1072 210 1049 q 128 1096 161 1096 q 69 1072 93 1096 q 44 1014 44 1049 m 200 731 q 179 783 200 761 q 128 804 158 804 q 76 783 97 804 q 54 731 54 761 l 54 74 q 76 22 54 43 q 128 0 97 0 q 179 22 158 0 q 200 74 200 43 l 200 731 z "},"j":{"ha":274,"x_min":-93,"x_max":219,"o":"m 210 731 q 189 783 210 761 q 138 804 168 804 q 85 783 107 804 q 64 731 64 761 l 64 -74 q -10 -146 64 -146 l -19 -146 q -72 -167 -50 -146 q -93 -219 -93 -189 q -72 -272 -93 -250 q -19 -293 -50 -293 l 28 -293 q 99 -278 65 -293 q 156 -239 132 -264 q 195 -181 181 -214 q 210 -110 210 -147 l 210 731 m 54 1014 q 78 956 54 981 q 138 932 103 932 q 195 956 171 932 q 219 1014 219 981 q 195 1072 219 1049 q 138 1096 171 1096 q 78 1072 103 1096 q 54 1014 54 1049 z "},"k":{"ha":743,"x_min":64,"x_max":715,"o":"m 210 493 l 210 1024 q 189 1075 210 1054 q 138 1096 168 1096 q 85 1075 107 1096 q 64 1024 64 1054 l 64 74 q 85 22 64 43 q 138 0 107 0 q 189 22 168 0 q 210 74 210 43 l 210 324 l 317 415 l 583 29 q 610 7 594 14 q 643 0 625 0 q 667 4 654 0 q 690 17 679 8 q 708 38 701 25 q 715 71 715 51 q 703 113 715 93 l 422 510 l 635 693 q 657 740 657 713 q 636 788 657 771 q 593 804 615 804 q 550 789 569 804 l 210 493 z "},"l":{"ha":274,"x_min":64,"x_max":210,"o":"m 210 1024 q 189 1075 210 1054 q 138 1096 168 1096 q 85 1075 107 1096 q 64 1024 64 1054 l 64 74 q 85 22 64 43 q 138 0 107 0 q 189 22 168 0 q 210 74 210 43 l 210 1024 z "},"m":{"ha":1132,"x_min":54,"x_max":1078,"o":"m 844 804 q 709 774 767 804 q 614 676 651 744 q 536 767 586 731 q 417 804 486 804 q 330 792 367 804 q 267 763 293 779 q 224 728 240 746 q 200 700 208 710 l 200 731 q 179 783 200 761 q 128 804 158 804 q 76 783 97 804 q 54 731 54 761 l 54 74 q 76 22 54 43 q 128 0 97 0 q 179 22 158 0 q 200 74 200 43 l 200 476 q 210 554 200 517 q 242 621 221 592 q 297 667 264 650 q 376 685 331 685 q 463 650 432 685 q 493 567 493 615 l 493 74 q 515 22 493 43 q 567 0 536 0 q 618 22 597 0 q 639 74 639 43 l 639 476 q 649 554 639 517 q 681 621 660 592 q 736 667 703 650 q 815 685 769 685 q 900 650 868 685 q 932 567 932 615 l 932 74 q 953 22 932 43 q 1006 0 975 0 q 1057 22 1036 0 q 1078 74 1078 43 l 1078 574 q 1060 674 1078 631 q 1010 746 1042 717 q 937 790 979 775 q 844 804 894 804 z "},"n":{"ha":760,"x_min":54,"x_max":706,"o":"m 439 804 q 351 794 389 804 q 283 768 313 783 q 234 735 254 753 q 200 706 214 718 l 200 731 q 179 783 200 761 q 128 804 158 804 q 76 783 97 804 q 54 731 54 761 l 54 74 q 76 22 54 43 q 128 0 97 0 q 179 22 158 0 q 200 74 200 43 l 200 476 q 214 559 200 521 q 253 625 228 597 q 317 669 279 653 q 400 685 354 685 q 456 676 428 685 q 508 652 485 668 q 545 612 531 636 q 560 557 560 588 l 560 74 q 581 22 560 43 q 632 0 601 0 q 684 22 663 0 q 706 74 706 43 l 706 574 q 683 674 706 631 q 624 746 661 717 q 538 790 586 775 q 439 804 490 804 z "},"o":{"ha":822,"x_min":28,"x_max":794,"o":"m 411 -10 q 563 18 493 -10 q 685 98 633 46 q 765 226 736 150 q 794 401 794 303 q 765 576 794 500 q 685 706 736 653 q 563 786 633 758 q 411 814 493 814 q 259 786 329 814 q 138 706 189 758 q 57 576 86 653 q 28 401 28 500 q 57 226 28 303 q 138 98 86 150 q 259 18 189 46 q 411 -10 329 -10 m 649 401 q 631 270 649 325 q 581 180 613 215 q 506 127 550 144 q 411 110 463 110 q 316 127 360 110 q 241 180 272 144 q 192 270 210 215 q 174 401 174 325 q 192 533 174 478 q 241 624 210 589 q 316 677 272 660 q 411 694 360 694 q 506 677 463 694 q 581 624 550 660 q 631 533 613 589 q 649 401 649 478 z "},"p":{"ha":804,"x_min":64,"x_max":776,"o":"m 210 731 q 189 783 210 761 q 138 804 168 804 q 85 783 107 804 q 64 731 64 761 l 64 -219 q 85 -272 64 -250 q 138 -293 107 -293 q 189 -272 168 -293 q 210 -219 210 -250 l 210 106 q 247 70 226 89 q 294 36 267 51 q 358 10 321 21 q 444 0 394 0 q 581 29 519 0 q 685 112 642 58 q 753 239 729 165 q 776 401 776 313 q 750 565 776 490 q 678 692 724 639 q 573 775 633 746 q 444 804 513 804 q 371 800 403 804 q 313 785 339 796 q 262 758 286 775 q 210 718 238 742 l 210 731 m 421 119 q 327 143 368 119 q 258 206 286 167 q 216 296 231 244 q 201 401 201 347 q 216 508 201 457 q 258 598 231 558 q 327 661 286 638 q 421 685 368 685 q 513 661 472 685 q 583 598 554 638 q 626 508 611 558 q 640 401 640 457 q 626 296 640 347 q 583 206 611 244 q 513 143 554 167 q 421 119 472 119 z "},"q":{"ha":804,"x_min":28,"x_max":740,"o":"m 594 731 l 594 718 q 542 758 567 742 q 492 785 518 775 q 433 800 465 796 q 360 804 401 804 q 231 775 292 804 q 126 692 171 746 q 54 565 81 639 q 28 401 28 490 q 51 239 28 313 q 119 112 75 165 q 224 29 163 58 q 360 0 285 0 q 447 10 410 0 q 510 36 483 21 q 558 70 538 51 q 594 106 578 89 l 594 -219 q 615 -272 594 -250 q 667 -293 636 -293 q 719 -272 697 -293 q 740 -219 740 -250 l 740 731 q 719 783 740 761 q 667 804 697 804 q 615 783 636 804 q 594 731 594 761 m 383 119 q 290 143 331 119 q 222 206 250 167 q 178 296 193 244 q 164 401 164 347 q 178 508 164 457 q 222 598 193 558 q 290 661 250 638 q 383 685 331 685 q 477 661 436 685 q 546 598 518 638 q 588 508 574 558 q 603 401 603 457 q 588 296 603 347 q 546 206 574 244 q 477 143 518 167 q 383 119 436 119 z "},"r":{"ha":463,"x_min":54,"x_max":444,"o":"m 200 447 q 207 507 200 471 q 233 576 214 543 q 285 634 251 610 q 371 658 318 658 q 423 680 401 658 q 444 731 444 701 q 423 783 444 761 q 371 804 401 804 q 310 791 339 804 q 259 760 282 778 q 221 726 236 743 q 200 704 206 710 l 200 731 q 179 783 200 761 q 128 804 158 804 q 76 783 97 804 q 54 731 54 761 l 54 74 q 76 22 54 43 q 128 0 97 0 q 179 22 158 0 q 200 74 200 43 l 200 447 z "},"s":{"ha":749,"x_min":35,"x_max":713,"o":"m 713 242 q 690 339 713 300 q 631 405 668 378 q 547 448 594 432 q 451 476 500 464 q 356 497 403 488 q 272 519 308 506 q 213 551 235 532 q 190 600 190 569 q 228 667 190 640 q 351 694 267 694 q 423 688 394 694 q 472 669 451 682 q 504 638 492 657 q 528 592 517 618 q 551 563 536 572 q 585 554 567 554 q 639 573 614 554 q 664 624 664 592 q 655 656 664 638 q 632 692 646 674 q 603 727 618 711 q 574 754 588 743 q 485 797 539 781 q 351 814 431 814 q 131 753 210 814 q 51 583 51 692 q 89 466 51 508 q 182 401 126 424 q 303 366 238 378 q 425 340 369 354 q 518 303 481 326 q 556 232 556 279 q 546 187 556 208 q 516 148 536 165 q 464 120 496 131 q 388 110 432 110 q 238 150 290 110 q 163 250 186 190 q 139 281 154 271 q 107 290 124 290 q 58 270 81 290 q 35 218 35 250 q 53 161 35 199 q 112 85 71 124 q 217 19 153 47 q 376 -10 282 -10 q 504 3 443 -10 q 611 47 565 17 q 685 124 657 76 q 713 242 713 172 z "},"t":{"ha":457,"x_min":28,"x_max":429,"o":"m 289 960 q 267 1011 289 990 q 215 1032 246 1032 q 164 1011 185 1032 q 143 960 143 990 l 143 786 l 92 786 q 47 767 65 786 q 28 722 28 749 q 47 676 28 694 q 92 658 65 658 l 143 658 l 143 74 q 164 22 143 43 q 215 0 185 0 q 267 22 246 0 q 289 74 289 43 l 289 658 l 365 658 q 410 676 392 658 q 429 722 429 694 q 410 767 429 749 q 365 786 392 786 l 289 786 l 289 960 z "},"u":{"ha":760,"x_min":54,"x_max":706,"o":"m 321 0 q 409 10 371 0 q 476 36 447 21 q 526 69 506 51 q 560 99 546 86 l 560 74 q 581 22 560 43 q 632 0 601 0 q 684 22 663 0 q 706 74 706 43 l 706 731 q 684 783 706 761 q 632 804 663 804 q 581 783 601 804 q 560 731 560 761 l 560 328 q 546 245 560 283 q 506 179 532 207 q 443 135 481 151 q 360 119 406 119 q 303 128 332 119 q 252 152 275 136 q 215 192 229 168 q 200 247 200 215 l 200 731 q 179 783 200 761 q 128 804 158 804 q 76 783 97 804 q 54 731 54 761 l 54 231 q 76 131 54 174 q 136 58 99 88 q 222 15 174 29 q 321 0 269 0 z "},"v":{"ha":711,"x_min":18,"x_max":693,"o":"m 356 0 q 422 22 394 0 q 464 81 450 44 l 689 707 q 693 731 693 719 q 685 766 693 751 q 665 789 676 781 q 641 801 654 797 q 619 804 628 804 q 576 791 596 804 q 550 756 557 778 l 356 167 l 160 756 q 133 791 153 778 q 90 804 114 804 q 57 797 71 804 q 35 777 43 789 q 22 753 26 765 q 18 731 18 740 q 22 707 18 719 l 246 81 q 288 22 260 44 q 356 0 315 0 z "},"w":{"ha":1126,"x_min":18,"x_max":1108,"o":"m 900 81 l 1104 708 q 1108 732 1108 718 q 1101 767 1108 753 q 1081 789 1093 781 q 1057 801 1069 797 q 1035 804 1044 804 q 992 791 1011 804 q 965 754 972 778 l 794 189 l 656 710 q 623 768 646 744 q 563 792 600 792 q 502 767 525 792 q 469 710 479 743 l 331 189 l 161 754 q 134 791 154 778 q 90 804 114 804 q 53 796 67 804 q 31 776 39 788 q 21 752 24 764 q 18 732 18 740 q 22 708 18 718 l 226 81 q 264 22 238 44 q 329 0 290 0 q 391 22 365 0 q 428 81 417 44 l 563 571 l 697 81 q 734 22 708 44 q 797 0 760 0 q 862 22 835 0 q 900 81 889 44 z "},"x":{"ha":701,"x_min":28,"x_max":674,"o":"m 272 417 l 43 121 q 28 75 28 101 q 35 40 28 54 q 55 16 43 25 q 81 3 67 7 q 107 0 94 0 q 137 6 122 0 q 161 26 151 11 l 351 319 l 540 26 q 565 6 550 11 q 596 0 579 0 q 651 22 629 0 q 674 75 674 43 q 658 121 674 101 l 429 417 l 643 688 q 658 732 658 707 q 640 781 658 758 q 589 804 622 804 q 526 769 550 804 l 351 515 l 175 769 q 113 804 151 804 q 61 781 79 804 q 43 732 43 758 q 58 688 43 707 l 272 417 z "},"y":{"ha":781,"x_min":18,"x_max":763,"o":"m 310 -85 q 288 -127 300 -112 q 261 -148 275 -142 q 233 -156 247 -154 q 206 -157 218 -157 l 163 -157 q 116 -176 135 -157 q 97 -224 97 -196 q 116 -270 97 -251 q 163 -289 135 -289 l 229 -289 q 316 -274 281 -289 q 374 -235 351 -258 q 412 -181 397 -211 q 438 -124 426 -151 l 757 699 q 761 713 760 706 q 763 726 763 719 q 739 785 763 767 q 690 804 715 804 q 645 788 665 804 q 615 747 625 772 l 404 174 l 163 754 q 133 791 153 778 q 89 804 113 804 q 56 797 69 804 q 35 778 43 789 q 22 753 26 767 q 18 729 18 740 q 25 699 18 715 l 344 13 l 310 -85 z "},"z":{"ha":732,"x_min":28,"x_max":704,"o":"m 61 731 q 83 679 61 700 q 135 658 104 658 l 454 658 l 49 147 q 33 121 38 133 q 28 92 28 108 q 55 27 28 54 q 119 0 82 0 l 632 0 q 683 21 661 0 q 704 72 704 42 q 683 124 704 103 q 632 146 661 146 l 228 146 l 629 656 q 646 682 640 669 q 651 713 651 694 q 624 777 651 750 q 560 804 597 804 l 135 804 q 83 783 104 804 q 61 731 61 761 z "},"{":{"ha":596,"x_min":38,"x_max":558,"o":"m 267 439 q 210 463 228 439 q 193 513 193 486 l 193 585 q 217 641 193 624 q 267 658 240 658 l 339 658 l 339 1060 q 363 1116 339 1099 q 413 1133 386 1133 l 486 1133 q 538 1154 517 1133 q 558 1206 558 1175 q 538 1258 558 1236 q 486 1279 517 1279 l 339 1279 q 269 1265 297 1279 q 224 1229 240 1251 q 200 1181 207 1207 q 193 1133 193 1156 l 193 804 l 185 804 q 115 790 143 804 q 69 755 86 776 q 45 708 53 733 q 38 658 38 682 l 38 439 q 51 372 38 400 q 85 327 64 344 q 132 301 106 310 q 185 293 158 293 l 193 293 l 193 -36 q 208 -109 193 -81 q 244 -154 222 -137 q 292 -177 267 -171 q 339 -183 318 -183 l 486 -183 q 538 -162 517 -183 q 558 -110 558 -140 q 538 -58 558 -79 q 486 -36 517 -36 l 413 -36 q 358 -14 376 -36 q 339 36 339 8 l 339 439 l 267 439 z "},"|":{"ha":274,"x_min":64,"x_max":210,"o":"m 210 1096 q 188 1148 210 1126 q 136 1169 167 1169 q 85 1148 106 1169 q 64 1096 64 1126 l 64 0 q 85 -52 64 -31 q 136 -74 106 -74 q 188 -52 167 -74 q 210 0 210 -31 l 210 1096 z "},"}":{"ha":596,"x_min":38,"x_max":558,"o":"m 329 439 l 257 439 l 257 36 q 238 -14 257 8 q 183 -36 219 -36 l 110 -36 q 58 -58 79 -36 q 38 -110 38 -79 q 58 -162 38 -140 q 110 -183 79 -183 l 257 -183 q 303 -177 278 -183 q 351 -154 329 -171 q 388 -109 374 -137 q 403 -36 403 -81 l 403 293 l 411 293 q 464 301 438 293 q 511 327 490 310 q 545 372 532 344 q 558 439 558 400 l 558 658 q 551 708 558 682 q 526 755 543 733 q 481 790 510 776 q 411 804 453 804 l 403 804 l 403 1133 q 396 1181 403 1156 q 372 1229 389 1207 q 327 1265 356 1251 q 257 1279 299 1279 l 110 1279 q 58 1258 79 1279 q 38 1206 38 1236 q 58 1154 38 1175 q 110 1133 79 1133 l 183 1133 q 233 1116 210 1133 q 257 1060 257 1099 l 257 658 l 329 658 q 379 641 356 658 q 403 585 403 624 l 403 513 q 385 463 403 486 q 329 439 368 439 z "},"~":{"ha":551,"x_min":28,"x_max":524,"o":"m 103 922 q 133 931 122 922 q 153 949 144 939 q 171 967 163 958 q 194 975 179 975 q 206 972 197 975 l 369 928 q 401 924 386 924 q 446 931 424 924 q 485 951 468 938 q 513 983 503 964 q 524 1024 524 1001 q 502 1075 524 1054 q 450 1096 481 1096 q 421 1088 432 1096 q 401 1071 410 1081 q 382 1053 392 1061 q 358 1046 372 1046 q 351 1046 356 1046 q 346 1047 349 1046 l 182 1092 q 150 1096 165 1096 q 105 1089 126 1096 q 66 1069 83 1082 q 38 1037 49 1056 q 28 996 28 1018 q 50 944 28 965 q 103 922 72 922 z "},"":{"ha":264,"x_min":28,"x_max":236,"o":"m 28 100 q 58 30 28 60 q 129 0 88 0 q 110 -40 122 -24 q 79 -75 97 -56 q 69 -100 69 -86 q 83 -130 69 -117 q 114 -143 96 -143 q 143 -129 131 -143 q 212 -28 188 -83 q 236 81 236 28 q 226 135 236 113 q 201 173 217 158 q 167 194 186 188 q 131 201 149 201 q 58 172 89 201 q 28 100 28 143 z "},"":{"ha":1224,"x_min":64,"x_max":1160,"o":"m 64 1096 l 64 0 l 1160 0 l 1160 1096 l 64 1096 z "},"":{"ha":264,"x_min":28,"x_max":500,"o":"m 28 100 q 58 30 28 60 q 129 0 88 0 q 110 -40 122 -24 q 79 -75 97 -56 q 69 -100 69 -86 q 83 -130 69 -117 q 114 -143 96 -143 q 143 -129 131 -143 q 212 -28 188 -83 q 236 81 236 28 q 226 135 236 113 q 201 173 217 158 q 167 194 186 188 q 131 201 149 201 q 58 172 89 201 q 28 100 28 143 m 292 100 q 322 30 292 60 q 393 0 351 0 q 374 -40 386 -24 q 343 -75 361 -56 q 333 -100 333 -86 q 347 -130 333 -117 q 378 -143 360 -143 q 407 -129 394 -143 q 476 -28 451 -83 q 500 81 500 28 q 490 135 500 113 q 465 173 481 158 q 431 194 450 188 q 394 201 413 201 q 322 172 353 201 q 292 100 292 143 z "},"":{"ha":732,"x_min":28,"x_max":704,"o":"m 503 100 q 533 30 503 60 q 604 0 563 0 q 674 30 644 0 q 704 100 704 60 q 674 172 704 142 q 604 201 644 201 q 533 172 563 201 q 503 100 503 142 m 265 100 q 295 30 265 60 q 367 0 325 0 q 437 30 407 0 q 467 100 467 60 q 437 172 467 142 q 367 201 407 201 q 295 172 325 201 q 265 100 265 142 m 28 100 q 58 30 28 60 q 129 0 88 0 q 199 30 169 0 q 229 100 229 60 q 199 172 229 142 q 129 201 169 201 q 58 172 88 201 q 28 100 28 142 z "},"":{"ha":519,"x_min":28,"x_max":492,"o":"m 324 758 l 428 758 q 473 776 454 758 q 492 822 492 794 q 473 867 492 849 q 428 886 454 886 l 324 886 l 324 1032 q 306 1077 324 1058 q 261 1096 288 1096 q 215 1077 233 1096 q 196 1032 196 1058 l 196 886 l 92 886 q 47 867 65 886 q 28 822 28 849 q 47 776 28 794 q 92 758 65 758 l 196 758 l 196 363 q 215 317 196 336 q 261 299 233 299 q 306 317 288 299 q 324 363 324 336 l 324 758 z "},"":{"ha":603,"x_min":28,"x_max":575,"o":"m 365 694 l 511 694 q 556 713 538 694 q 575 758 575 732 q 556 803 575 785 q 511 822 538 822 l 365 822 l 365 968 q 347 1014 365 996 q 303 1032 329 1032 q 256 1014 275 1032 q 238 968 238 996 l 238 822 l 92 822 q 47 803 65 822 q 28 758 28 785 q 47 713 28 732 q 92 694 65 694 l 238 694 l 238 475 l 92 475 q 47 456 65 475 q 28 411 28 438 q 47 366 28 385 q 92 347 65 347 l 238 347 l 238 201 q 256 156 238 174 q 303 138 275 138 q 347 156 329 138 q 365 201 365 174 l 365 347 l 511 347 q 556 366 538 347 q 575 411 575 385 q 556 456 575 438 q 511 475 538 475 l 365 475 l 365 694 z "},"":{"ha":333,"x_min":28,"x_max":306,"o":"m 194 1101 q 167 1115 181 1115 q 139 1101 153 1115 l 39 1001 q 28 975 28 990 q 40 947 28 956 q 64 939 53 939 q 92 950 81 939 l 167 1025 l 242 950 q 269 939 253 939 q 297 953 289 939 q 306 976 306 968 q 294 1001 306 990 l 194 1101 z "},"":{"ha":1429,"x_min":28,"x_max":1401,"o":"m 822 1056 q 829 1086 829 1068 q 822 1117 829 1104 q 805 1138 815 1131 q 783 1148 794 1144 q 764 1151 772 1151 q 730 1142 746 1151 q 706 1117 714 1133 l 142 40 q 133 8 133 25 q 153 -37 133 -19 q 199 -56 172 -56 q 233 -47 217 -56 q 257 -21 249 -37 l 822 1056 m 228 583 q 378 651 326 583 q 429 849 429 718 q 378 1047 429 979 q 228 1115 326 1115 q 79 1047 131 1115 q 28 849 28 979 q 79 651 28 718 q 228 583 131 583 m 324 849 q 300 737 324 776 q 228 697 276 697 q 156 737 179 697 q 132 849 132 776 q 156 960 132 921 q 228 1000 179 1000 q 300 960 276 1000 q 324 849 324 921 m 742 -18 q 892 49 840 -18 q 943 247 943 117 q 892 446 943 378 q 742 514 840 514 q 592 446 644 514 q 540 247 540 378 q 592 49 540 117 q 742 -18 644 -18 m 838 247 q 814 135 838 175 q 742 96 790 96 q 669 135 693 96 q 646 247 646 175 q 669 359 646 319 q 742 399 693 399 q 814 359 790 399 q 838 247 838 319 m 1200 -18 q 1350 49 1299 -18 q 1401 247 1401 117 q 1350 446 1401 378 q 1200 514 1299 514 q 1051 446 1103 514 q 999 247 999 378 q 1051 49 999 117 q 1200 -18 1103 -18 m 1296 247 q 1272 135 1296 175 q 1200 96 1249 96 q 1128 135 1151 96 q 1104 247 1104 175 q 1128 359 1104 319 q 1200 399 1151 399 q 1272 359 1249 399 q 1296 247 1296 319 z "},"":{"ha":951,"x_min":40,"x_max":914,"o":"m 346 1313 q 386 1214 346 1254 q 485 1174 426 1174 q 583 1214 543 1174 q 624 1313 624 1254 q 614 1338 624 1328 q 589 1347 604 1347 q 564 1338 574 1347 q 554 1313 554 1328 q 534 1263 554 1283 q 485 1243 514 1243 q 435 1263 456 1243 q 415 1313 415 1283 q 406 1338 415 1328 q 381 1347 396 1347 q 356 1338 365 1347 q 346 1313 346 1328 m 914 317 q 885 446 914 393 q 810 535 857 499 q 703 594 763 571 q 580 633 643 617 q 457 665 517 650 q 350 701 397 681 q 274 753 303 722 q 246 831 246 783 q 263 892 246 865 q 312 938 281 919 q 385 967 343 957 q 478 978 428 978 q 547 973 511 978 q 616 953 583 968 q 676 913 649 939 q 719 846 703 888 q 749 808 731 819 q 788 796 767 796 q 841 817 817 796 q 865 875 865 839 q 838 961 865 918 q 759 1039 810 1004 q 638 1094 708 1074 q 485 1115 568 1115 q 326 1096 399 1115 q 201 1039 254 1076 q 119 947 149 1001 q 89 824 89 893 q 117 701 89 750 q 192 617 146 651 q 299 562 239 583 q 421 524 358 540 q 543 491 483 507 q 649 451 603 475 q 724 393 696 428 q 753 306 753 358 q 728 222 753 257 q 666 166 704 188 q 581 134 628 144 q 492 124 535 124 q 386 138 438 124 q 293 178 335 151 q 223 246 251 206 q 186 339 194 286 q 163 385 182 371 q 119 400 143 400 q 66 379 92 400 q 40 308 40 358 q 65 210 40 267 q 144 103 90 154 q 285 17 199 53 q 496 -18 372 -18 q 658 3 582 -18 q 792 65 735 24 q 881 169 849 107 q 914 317 914 232 z "},"":{"ha":353,"x_min":17,"x_max":325,"o":"m 39 596 q 17 549 17 574 q 39 500 17 522 l 215 324 q 260 306 233 306 q 306 323 286 306 q 325 368 325 340 q 306 415 325 396 l 174 549 l 306 681 q 325 728 325 700 q 305 774 325 758 q 261 790 285 790 q 215 772 233 790 l 39 596 z "},"":{"ha":1792,"x_min":28,"x_max":1764,"o":"m 942 547 q 913 374 942 451 q 833 242 883 296 q 714 158 782 188 q 567 128 646 128 q 419 158 488 128 q 301 242 351 188 q 221 374 250 296 q 192 547 192 451 q 221 721 192 643 q 301 853 250 799 q 419 938 351 908 q 567 968 488 968 q 714 938 646 968 q 833 853 782 908 q 913 721 883 799 q 942 547 942 643 m 942 110 q 974 31 942 63 q 1051 0 1007 0 l 1690 0 q 1742 21 1721 0 q 1764 72 1764 42 q 1742 124 1764 103 q 1690 146 1721 146 l 1106 146 l 1106 503 l 1644 503 q 1697 524 1675 503 q 1718 575 1718 544 q 1697 627 1718 606 q 1644 649 1675 649 l 1106 649 l 1106 950 l 1679 950 q 1731 972 1710 950 q 1753 1024 1753 993 q 1731 1075 1753 1054 q 1679 1096 1710 1096 l 1051 1096 q 1006 1086 1026 1096 q 971 1061 985 1076 q 949 1026 957 1046 q 942 986 942 1007 l 942 964 q 567 1114 783 1114 q 344 1068 443 1114 q 174 945 244 1022 q 66 765 104 868 q 28 547 28 661 q 66 331 28 433 q 174 151 104 228 q 344 28 244 74 q 567 -18 443 -18 q 762 16 668 -18 q 942 132 856 50 l 942 110 z "},"":{"ha":258,"x_min":28,"x_max":231,"o":"m 160 1104 l 50 1033 q 33 1014 39 1026 q 28 988 28 1001 q 32 963 28 976 q 46 939 36 950 q 69 920 56 928 q 104 913 83 913 q 149 935 135 913 l 219 1044 q 231 1076 231 1060 q 223 1101 231 1088 q 193 1115 215 1115 q 160 1104 175 1115 z "},"":{"ha":258,"x_min":28,"x_max":231,"o":"m 99 924 l 208 994 q 225 1014 219 1001 q 231 1040 231 1026 q 226 1065 231 1051 q 213 1089 222 1078 q 189 1108 203 1100 q 154 1115 175 1115 q 110 1093 124 1115 l 39 983 q 28 951 28 968 q 35 926 28 940 q 65 913 43 913 q 99 924 83 913 z "},"":{"ha":481,"x_min":28,"x_max":453,"o":"m 160 1104 l 50 1033 q 33 1014 39 1026 q 28 988 28 1001 q 32 963 28 976 q 46 939 36 950 q 69 920 56 928 q 104 913 83 913 q 149 935 135 913 l 219 1044 q 231 1076 231 1060 q 223 1101 231 1088 q 193 1115 215 1115 q 160 1104 175 1115 m 382 1104 l 272 1033 q 256 1014 261 1026 q 250 988 250 1001 q 254 963 250 976 q 268 939 258 950 q 292 920 278 928 q 326 913 306 913 q 371 935 357 913 l 442 1044 q 453 1076 453 1060 q 445 1101 453 1088 q 415 1115 438 1115 q 382 1104 397 1115 z "},"":{"ha":481,"x_min":28,"x_max":453,"o":"m 321 924 l 431 994 q 447 1014 442 1001 q 453 1040 453 1026 q 449 1065 453 1051 q 435 1089 444 1078 q 411 1108 425 1100 q 376 1115 397 1115 q 332 1093 346 1115 l 261 983 q 250 951 250 968 q 258 926 250 940 q 288 913 265 913 q 321 924 306 913 m 99 924 l 208 994 q 225 1014 219 1001 q 231 1040 231 1026 q 226 1065 231 1051 q 213 1089 222 1078 q 189 1108 203 1100 q 154 1115 175 1115 q 110 1093 124 1115 l 39 983 q 28 951 28 968 q 35 926 28 940 q 65 913 43 913 q 99 924 83 913 z "},"":{"ha":376,"x_min":28,"x_max":349,"o":"m 28 549 q 40 486 28 515 q 75 435 53 457 q 126 400 97 413 q 189 388 156 388 q 251 400 222 388 q 301 435 279 413 q 336 486 324 457 q 349 549 349 515 q 336 611 349 582 q 301 662 324 640 q 251 697 279 683 q 189 710 222 710 q 126 697 156 710 q 75 662 97 683 q 40 611 53 640 q 28 549 28 582 z "},"":{"ha":750,"x_min":28,"x_max":722,"o":"m 658 485 q 703 503 685 485 q 722 549 722 521 q 703 594 722 575 q 658 613 685 613 l 92 613 q 47 594 65 613 q 28 549 28 575 q 47 503 28 521 q 92 485 65 485 l 658 485 z "},"":{"ha":1444,"x_min":28,"x_max":1417,"o":"m 1353 485 q 1398 503 1379 485 q 1417 549 1417 521 q 1398 594 1417 575 q 1353 613 1379 613 l 92 613 q 47 594 65 613 q 28 549 28 575 q 47 503 28 521 q 92 485 65 485 l 1353 485 z "},"":{"ha":551,"x_min":28,"x_max":524,"o":"m 103 922 q 133 931 122 922 q 153 949 144 939 q 171 967 163 958 q 194 975 179 975 q 206 972 197 975 l 369 928 q 401 924 386 924 q 446 931 424 924 q 485 951 468 938 q 513 983 503 964 q 524 1024 524 1001 q 502 1075 524 1054 q 450 1096 481 1096 q 421 1088 432 1096 q 401 1071 410 1081 q 382 1053 392 1061 q 358 1046 372 1046 q 351 1046 356 1046 q 346 1047 349 1046 l 182 1092 q 150 1096 165 1096 q 105 1089 126 1096 q 66 1069 83 1082 q 38 1037 49 1056 q 28 996 28 1018 q 50 944 28 965 q 103 922 72 922 z "},"":{"ha":1575,"x_min":18,"x_max":1511,"o":"m 261 989 l 261 353 q 279 310 261 328 q 322 292 297 292 q 365 310 347 292 q 382 353 382 328 l 382 989 l 572 989 q 610 1004 594 989 q 626 1043 626 1019 q 610 1081 626 1065 q 572 1096 594 1096 l 71 1096 q 33 1081 49 1096 q 18 1043 18 1065 q 33 1004 18 1019 q 71 989 49 989 l 261 989 m 1346 1015 l 1129 456 l 914 1015 q 881 1072 901 1047 q 824 1096 860 1096 q 769 1074 792 1096 q 747 1021 747 1053 l 747 346 q 763 308 747 324 q 801 292 779 292 q 840 308 824 292 q 856 346 856 324 l 856 869 l 1054 351 q 1083 308 1065 325 q 1129 292 1101 292 q 1176 308 1158 292 q 1206 351 1194 325 l 1404 869 l 1404 346 q 1420 308 1404 324 q 1458 292 1436 292 q 1496 308 1481 292 q 1511 346 1511 324 l 1511 1021 q 1490 1074 1511 1053 q 1438 1096 1468 1096 q 1380 1072 1401 1096 q 1346 1015 1358 1047 z "},"":{"ha":749,"x_min":35,"x_max":713,"o":"m 713 242 q 690 339 713 300 q 631 405 668 378 q 547 448 594 432 q 451 476 500 464 q 356 497 403 488 q 272 519 308 506 q 213 551 235 532 q 190 600 190 569 q 228 667 190 640 q 351 694 267 694 q 423 688 394 694 q 472 669 451 682 q 504 638 492 657 q 528 592 517 618 q 551 563 536 572 q 585 554 567 554 q 639 573 614 554 q 664 624 664 592 q 655 656 664 638 q 632 692 646 674 q 603 727 618 711 q 574 754 588 743 q 485 797 539 781 q 351 814 431 814 q 131 753 210 814 q 51 583 51 692 q 89 466 51 508 q 182 401 126 424 q 303 366 238 378 q 425 340 369 354 q 518 303 481 326 q 556 232 556 279 q 546 187 556 208 q 516 148 536 165 q 464 120 496 131 q 388 110 432 110 q 238 150 290 110 q 163 250 186 190 q 139 281 154 271 q 107 290 124 290 q 58 270 81 290 q 35 218 35 250 q 53 161 35 199 q 112 85 71 124 q 217 19 153 47 q 376 -10 282 -10 q 504 3 443 -10 q 611 47 565 17 q 685 124 657 76 q 713 242 713 172 m 213 1040 q 253 942 213 982 q 351 901 293 901 q 450 942 410 901 q 490 1040 490 982 q 481 1065 490 1056 q 456 1075 471 1075 q 431 1065 440 1075 q 421 1040 421 1056 q 401 991 421 1011 q 351 971 381 971 q 302 991 322 971 q 282 1040 282 1011 q 272 1065 282 1056 q 247 1075 263 1075 q 222 1065 232 1075 q 213 1040 213 1056 z "},"":{"ha":353,"x_min":28,"x_max":336,"o":"m 314 596 l 138 772 q 92 790 119 790 q 48 774 68 790 q 28 728 28 758 q 47 681 28 700 l 179 549 l 47 415 q 28 368 28 396 q 47 323 28 340 q 93 306 67 306 q 138 324 119 306 l 314 500 q 336 549 336 522 q 314 596 336 574 z "},"":{"ha":1429,"x_min":28,"x_max":1401,"o":"m 649 401 q 631 270 649 325 q 581 180 613 215 q 506 127 550 144 q 411 110 463 110 q 316 127 360 110 q 241 180 272 144 q 192 270 210 215 q 174 401 174 325 q 192 533 174 478 q 241 624 210 589 q 316 677 272 660 q 411 694 360 694 q 506 677 463 694 q 581 624 550 660 q 631 533 613 589 q 649 401 649 478 m 1036 -10 q 1185 15 1122 -10 q 1288 74 1247 40 q 1347 140 1328 107 q 1365 190 1365 174 q 1345 236 1365 218 q 1299 254 1325 254 q 1269 247 1283 254 q 1244 224 1256 240 q 1206 173 1225 194 q 1163 138 1186 151 q 1110 117 1140 124 q 1036 110 1079 110 q 923 140 967 110 q 855 213 879 171 q 822 296 831 254 q 814 358 814 338 l 1318 358 q 1377 385 1353 358 q 1401 463 1401 411 q 1372 611 1401 546 q 1292 722 1343 676 q 1173 790 1242 767 q 1025 814 1104 814 q 858 776 935 814 q 724 658 782 739 q 588 777 663 740 q 411 814 514 814 q 259 786 329 814 q 138 706 189 758 q 57 576 86 653 q 28 401 28 500 q 57 226 28 303 q 138 98 86 150 q 259 18 189 46 q 411 -10 329 -10 q 588 27 514 -10 q 725 147 663 64 q 861 28 786 65 q 1036 -10 936 -10 m 1028 694 q 1132 676 1088 694 q 1205 628 1176 658 q 1247 560 1233 599 q 1261 478 1261 521 l 811 478 q 813 498 811 481 q 821 539 814 515 q 842 590 828 563 q 880 641 856 618 q 940 679 904 664 q 1028 694 976 694 z "},"":{"ha":946,"x_min":17,"x_max":929,"o":"m 299 1250 q 322 1193 299 1217 q 379 1169 346 1169 q 436 1193 413 1169 q 460 1250 460 1217 q 436 1307 460 1283 q 379 1331 413 1331 q 322 1307 346 1331 q 299 1250 299 1283 m 496 1250 q 519 1193 496 1217 q 576 1169 543 1169 q 633 1193 610 1169 q 657 1250 657 1217 q 633 1307 657 1283 q 576 1331 610 1331 q 519 1307 543 1331 q 496 1250 496 1283 m 917 982 q 929 1024 929 1000 q 922 1058 929 1044 q 903 1081 914 1072 q 879 1092 892 1089 q 857 1096 867 1096 q 824 1088 840 1096 q 797 1065 808 1081 l 472 601 l 149 1065 q 122 1088 138 1081 q 89 1096 106 1096 q 38 1076 60 1096 q 17 1024 17 1056 q 29 982 17 1000 l 390 464 l 390 82 q 415 24 390 49 q 472 0 439 0 q 531 24 507 0 q 556 82 556 49 l 556 464 l 917 982 z "},"":{"ha":329,"x_min":64,"x_max":265,"o":"m 164 896 q 235 925 206 896 q 265 996 265 954 q 235 1067 265 1038 q 164 1096 206 1096 q 94 1067 124 1096 q 64 996 64 1038 q 94 925 64 954 q 164 896 124 896 m 246 749 q 222 808 246 783 q 164 832 199 832 q 106 808 131 832 q 82 749 82 783 l 82 82 q 106 24 82 49 q 164 0 131 0 q 222 24 199 0 q 246 82 246 49 l 246 749 z "},"":{"ha":763,"x_min":28,"x_max":735,"o":"m 436 1038 q 427 1059 436 1050 q 406 1068 418 1068 q 384 1059 393 1068 q 375 1038 375 1050 l 375 976 q 241 939 304 969 q 131 857 178 908 q 56 733 83 806 q 28 567 28 660 q 56 400 28 474 q 133 274 85 326 q 244 191 181 221 q 375 157 307 161 l 375 69 q 384 48 375 57 q 406 39 393 39 q 427 48 418 39 q 436 69 436 57 l 436 156 q 567 181 511 156 q 661 241 624 207 q 717 311 699 275 q 735 368 735 347 q 712 417 735 400 q 663 435 689 435 q 626 424 643 435 q 603 392 610 414 q 544 315 588 347 q 436 275 500 282 l 436 858 q 545 819 501 851 q 603 742 589 786 q 626 708 610 718 q 663 699 643 699 q 713 716 690 699 q 735 765 735 733 q 718 818 735 783 q 665 888 701 853 q 572 949 628 922 q 436 976 515 975 l 436 1038 m 375 276 q 310 298 346 282 q 244 347 275 314 q 194 434 214 381 q 174 567 174 488 q 193 699 174 646 q 243 785 213 751 q 308 834 274 818 q 375 857 343 850 l 375 276 z "},"":{"ha":769,"x_min":28,"x_max":742,"o":"m 415 983 q 498 968 465 983 q 550 930 531 953 q 580 880 569 907 q 596 828 590 853 q 624 790 603 803 q 668 778 644 778 q 719 793 696 778 q 742 844 742 808 q 724 931 742 883 q 667 1019 706 979 q 567 1088 628 1060 q 422 1115 507 1115 q 294 1095 356 1115 q 185 1035 232 1075 q 110 938 138 996 q 82 804 82 879 q 88 756 82 782 q 100 703 93 729 q 115 656 107 678 q 128 621 124 635 l 86 621 q 45 603 63 621 q 28 563 28 586 q 45 522 28 539 q 86 504 63 504 l 168 504 q 192 416 185 456 q 200 343 200 376 q 183 246 200 285 q 144 180 165 207 q 105 133 122 153 q 88 89 88 113 q 94 68 88 81 q 111 44 100 56 q 138 24 122 32 q 171 15 153 15 q 205 22 188 15 q 241 36 222 28 q 279 51 260 44 q 319 57 299 57 q 394 45 367 57 q 446 19 421 33 q 501 -6 471 6 q 585 -18 531 -18 q 652 -8 624 -18 q 699 15 681 1 q 727 46 718 29 q 736 75 736 63 q 717 125 736 107 q 669 143 697 143 q 644 138 653 143 q 628 128 636 133 q 606 119 619 124 q 567 114 593 114 q 504 124 529 114 q 455 148 479 135 q 403 172 431 161 q 335 182 376 182 q 315 181 325 182 q 292 179 304 181 q 288 190 279 179 q 324 265 311 224 q 338 358 338 306 q 332 426 338 390 q 317 504 326 463 l 461 504 q 503 522 486 504 q 519 563 519 539 q 503 603 519 586 q 461 621 486 621 l 278 621 q 253 703 269 657 q 238 811 238 749 q 247 878 238 847 q 278 933 257 910 q 333 970 300 957 q 415 983 367 983 z "},"":{"ha":831,"x_min":28,"x_max":803,"o":"m 172 554 q 140 483 151 522 q 128 401 128 444 q 140 321 128 360 q 172 249 151 282 l 47 124 q 28 78 28 104 q 47 33 28 53 q 92 14 67 14 q 138 33 118 14 l 263 158 q 333 126 294 138 q 415 114 372 114 q 497 126 458 114 q 569 158 536 138 l 693 33 q 739 14 713 14 q 783 33 764 14 q 803 78 803 53 q 783 124 803 104 l 658 249 q 691 321 679 282 q 703 401 703 360 q 691 482 703 443 q 658 554 679 521 l 783 679 q 803 725 803 699 q 783 769 803 750 q 739 789 764 789 q 693 769 713 789 l 568 644 q 497 677 536 665 q 415 689 458 689 q 335 677 374 689 q 263 644 296 665 l 138 769 q 92 789 118 789 q 47 769 67 789 q 28 725 28 750 q 47 679 28 699 l 172 554 m 415 561 q 478 549 449 561 q 528 515 507 536 q 563 464 550 493 q 575 401 575 435 q 563 339 575 368 q 528 288 550 310 q 478 254 507 267 q 415 242 449 242 q 353 254 382 242 q 302 288 324 267 q 268 339 281 310 q 256 401 256 368 q 268 464 256 435 q 302 515 281 493 q 353 549 324 536 q 415 561 382 561 z "},"":{"ha":947,"x_min":17,"x_max":931,"o":"m 918 982 q 931 1024 931 1000 q 906 1079 931 1063 q 858 1096 881 1096 q 799 1065 819 1096 l 474 601 l 150 1065 q 123 1088 139 1081 q 90 1096 107 1096 q 52 1088 67 1096 q 30 1067 38 1079 q 19 1044 22 1056 q 17 1024 17 1032 q 31 982 17 1000 l 289 613 l 200 613 q 161 597 176 613 q 146 557 146 581 q 161 518 146 533 q 200 503 176 503 l 365 503 l 392 464 l 392 429 l 236 429 q 198 414 214 429 q 182 375 182 399 q 198 335 182 351 q 236 319 214 319 l 392 319 l 392 82 q 416 24 392 49 q 474 0 440 0 q 533 24 508 0 q 557 82 557 49 l 557 319 l 711 319 q 751 335 735 319 q 767 375 767 351 q 751 414 767 399 q 711 429 735 429 l 557 429 l 557 464 l 583 503 l 749 503 q 788 518 772 503 q 803 557 803 533 q 788 597 803 581 q 749 613 772 613 l 660 613 l 918 982 z "},"":{"ha":274,"x_min":64,"x_max":210,"o":"m 210 440 q 188 492 210 471 q 136 514 167 514 q 85 492 106 514 q 64 440 64 471 l 64 74 q 85 22 64 43 q 136 0 106 0 q 188 22 167 0 q 210 74 210 43 l 210 440 m 210 1022 q 188 1074 210 1053 q 136 1096 167 1096 q 85 1074 106 1096 q 64 1022 64 1053 l 64 656 q 85 603 64 625 q 136 582 106 582 q 188 603 167 582 q 210 656 210 625 l 210 1022 z "},"":{"ha":797,"x_min":38,"x_max":760,"o":"m 243 700 l 611 488 q 636 442 636 474 q 621 403 636 418 q 582 388 606 388 q 557 393 568 388 l 189 607 q 161 654 161 624 q 176 693 161 678 q 215 708 192 708 q 230 706 224 708 q 243 700 236 703 m 126 500 l 460 310 q 499 269 485 294 q 514 211 514 243 q 481 129 514 163 q 399 96 447 96 q 344 107 369 96 q 299 137 318 118 q 269 181 281 156 q 258 236 258 207 q 246 268 258 256 q 214 281 233 281 q 182 268 194 281 q 169 236 169 256 q 188 147 169 189 q 237 74 206 106 q 310 25 268 43 q 399 7 351 7 q 488 25 446 7 q 560 74 529 43 q 610 147 592 106 q 628 236 628 189 q 627 254 628 246 q 625 269 626 263 q 722 331 683 283 q 760 442 760 379 q 736 531 760 490 q 672 594 713 571 l 346 783 q 301 826 318 799 q 283 886 283 853 q 317 968 283 935 q 399 1001 350 1001 q 453 990 428 1001 q 498 960 479 979 q 528 916 517 942 q 539 861 539 890 q 551 829 539 842 q 583 817 564 817 q 615 829 603 817 q 628 861 628 842 q 610 950 628 908 q 560 1023 592 992 q 488 1072 529 1054 q 399 1090 446 1090 q 310 1072 351 1090 q 237 1023 268 1054 q 188 950 206 992 q 169 861 169 908 q 170 843 169 851 q 172 826 171 835 q 76 765 114 813 q 38 654 38 717 q 62 565 38 606 q 126 500 86 524 z "},"":{"ha":414,"x_min":28,"x_max":386,"o":"m 28 1017 q 51 960 28 983 q 108 936 75 936 q 165 960 142 936 q 189 1017 189 983 q 165 1072 189 1049 q 108 1096 142 1096 q 51 1072 75 1096 q 28 1017 28 1049 m 225 1017 q 249 960 225 983 q 306 936 272 936 q 363 960 339 936 q 386 1017 386 983 q 363 1072 386 1049 q 306 1096 339 1096 q 249 1072 272 1096 q 225 1017 225 1049 z "},"":{"ha":1151,"x_min":28,"x_max":1124,"o":"m 575 0 q 789 43 689 0 q 963 160 889 86 q 1081 335 1038 235 q 1124 549 1124 435 q 1081 761 1124 661 q 963 935 1038 861 q 789 1053 889 1010 q 575 1096 689 1096 q 363 1053 463 1096 q 188 935 263 1010 q 71 761 114 861 q 28 549 28 661 q 71 335 28 435 q 188 160 114 235 q 363 43 263 86 q 575 0 463 0 m 119 549 q 156 726 119 643 q 253 872 192 810 q 398 969 315 933 q 575 1006 481 1006 q 753 969 669 1006 q 898 872 836 933 q 996 726 960 810 q 1032 549 1032 643 q 996 371 1032 454 q 898 226 960 288 q 753 128 836 164 q 575 92 669 92 q 398 128 481 92 q 253 226 315 164 q 156 371 192 288 q 119 549 119 454 m 572 800 q 638 789 610 800 q 686 760 665 778 q 720 719 707 742 q 740 674 733 696 q 758 650 746 657 q 785 643 769 643 q 822 655 804 643 q 839 690 839 667 q 820 747 839 714 q 767 812 801 781 q 683 865 732 843 q 572 888 633 888 q 441 859 497 888 q 348 784 385 831 q 292 676 311 738 q 274 549 274 615 q 292 421 274 482 q 348 313 311 360 q 441 237 385 265 q 572 208 497 208 q 684 230 635 208 q 767 283 733 251 q 820 347 801 314 q 839 406 839 381 q 822 442 839 429 q 785 454 804 454 q 758 447 769 454 q 740 424 746 439 q 719 378 732 400 q 685 337 706 356 q 638 307 665 318 q 572 296 610 296 q 494 314 531 296 q 430 365 457 332 q 388 444 403 397 q 372 549 372 490 q 388 652 372 606 q 430 731 403 699 q 494 782 457 764 q 572 800 531 800 z "},"":{"ha":489,"x_min":28,"x_max":435,"o":"m 138 760 q 151 783 144 772 q 169 803 158 794 q 199 817 181 813 q 247 822 218 822 q 314 808 282 822 q 346 761 346 793 q 343 737 346 747 q 328 718 340 726 q 290 703 315 710 q 221 692 265 696 q 148 678 183 688 q 86 652 113 669 q 44 608 60 635 q 28 540 28 581 q 42 480 28 506 q 80 438 57 454 q 131 413 103 421 q 189 406 160 406 q 272 417 231 406 q 346 464 313 428 l 346 450 q 359 418 346 431 q 390 406 372 406 q 422 418 408 406 q 435 450 435 431 l 435 761 q 384 860 435 828 q 247 893 333 893 q 156 881 192 893 q 99 850 119 868 q 70 813 78 832 q 63 781 63 793 q 76 751 63 763 q 106 740 90 740 q 138 760 126 740 m 346 646 l 346 586 q 334 533 346 554 q 303 500 322 513 q 259 482 283 488 q 210 476 235 476 q 150 490 178 476 q 122 540 122 503 q 145 593 122 575 q 200 619 168 611 q 267 631 232 628 q 325 640 301 633 l 346 646 m 38 296 l 433 296 l 433 351 l 38 351 l 38 296 z "},"":{"ha":353,"x_min":17,"x_max":625,"o":"m 39 596 q 17 549 17 574 q 39 500 17 522 l 215 324 q 260 306 233 306 q 306 323 286 306 q 325 368 325 340 q 306 415 325 396 l 174 549 l 306 681 q 325 728 325 700 q 305 774 325 758 q 261 790 285 790 q 215 772 233 790 l 39 596 m 339 596 q 317 549 317 574 q 339 500 317 522 l 515 324 q 560 306 533 306 q 606 323 586 306 q 625 368 625 340 q 606 415 625 396 l 474 549 l 606 681 q 625 728 625 700 q 605 774 625 758 q 561 790 585 790 q 515 772 533 790 l 339 596 z "},"":{"ha":603,"x_min":28,"x_max":575,"o":"m 575 549 q 556 594 575 575 q 511 613 538 613 l 92 613 q 47 594 65 613 q 28 549 28 575 q 47 503 28 521 q 92 485 65 485 l 447 485 l 447 357 q 465 312 447 331 q 511 293 483 293 q 556 312 538 293 q 575 357 575 331 l 575 549 z "},"":{"ha":842,"x_min":28,"x_max":814,"o":"m 421 311 q 574 342 501 311 q 699 426 646 374 q 783 551 751 479 q 814 704 814 622 q 783 856 814 785 q 699 981 751 928 q 574 1065 646 1035 q 421 1096 501 1096 q 267 1065 339 1096 q 143 981 196 1035 q 59 856 90 928 q 28 704 28 785 q 59 551 28 622 q 143 426 90 479 q 267 342 196 374 q 421 311 339 311 m 92 704 q 117 832 92 772 q 188 936 143 892 q 293 1006 233 981 q 421 1032 353 1032 q 549 1006 489 1032 q 653 936 608 981 q 723 832 697 892 q 749 704 749 772 q 723 576 749 636 q 653 472 697 517 q 549 401 608 426 q 421 375 489 375 q 293 401 353 375 q 188 472 233 426 q 117 576 143 517 q 92 704 92 636 m 482 871 q 530 851 510 871 q 550 804 550 832 q 530 757 550 776 q 482 738 510 738 l 326 738 l 326 871 l 482 871 m 615 804 q 578 893 615 857 q 490 929 542 929 l 304 929 q 271 914 282 929 q 260 886 260 899 l 260 524 q 269 501 260 510 q 293 492 279 492 q 317 501 307 492 q 326 524 326 510 l 326 678 l 450 678 q 506 660 488 678 q 528 617 525 643 l 536 521 q 548 499 538 507 q 572 492 558 490 q 595 503 586 493 q 603 526 604 514 l 590 643 q 571 683 588 667 q 542 703 554 699 q 533 706 533 706 q 542 710 533 707 q 594 745 574 718 q 615 804 615 772 z "},"":{"ha":622,"x_min":28,"x_max":594,"o":"m 531 968 q 576 986 557 968 q 594 1032 594 1004 q 576 1077 594 1058 q 531 1096 557 1096 l 92 1096 q 47 1077 65 1096 q 28 1032 28 1058 q 47 986 28 1004 q 92 968 65 968 l 531 968 z "},"":{"ha":494,"x_min":28,"x_max":467,"o":"m 247 1096 q 162 1078 201 1096 q 92 1031 122 1061 q 45 962 63 1001 q 28 876 28 922 q 45 791 28 831 q 92 722 63 751 q 162 674 122 692 q 247 657 201 657 q 333 674 293 657 q 402 722 372 692 q 449 791 432 751 q 467 876 467 831 q 449 962 467 922 q 402 1031 432 1001 q 333 1078 372 1061 q 247 1096 293 1096 m 247 1024 q 352 981 310 1024 q 394 876 394 939 q 352 772 394 814 q 247 729 310 729 q 142 772 185 729 q 100 876 100 814 q 142 981 100 939 q 247 1024 185 1024 z "},"":{"ha":606,"x_min":28,"x_max":578,"o":"m 365 581 l 511 581 q 556 599 538 581 q 575 644 575 617 q 556 690 575 671 q 511 708 538 708 l 365 708 l 365 854 q 347 899 365 881 q 301 918 328 918 q 256 899 274 918 q 238 854 238 881 l 238 708 l 92 708 q 47 690 65 708 q 28 644 28 671 q 47 599 28 617 q 92 581 65 581 l 238 581 l 238 433 q 256 388 238 407 q 301 369 274 369 q 347 388 328 369 q 365 433 365 407 l 365 581 m 514 178 q 559 196 540 178 q 578 242 578 214 q 559 287 578 268 q 514 306 540 306 l 92 306 q 47 287 65 306 q 28 242 28 268 q 47 196 28 214 q 92 178 65 178 l 514 178 z "},"":{"ha":506,"x_min":28,"x_max":478,"o":"m 42 913 q 56 873 42 886 q 85 860 69 860 q 115 874 101 860 q 129 914 129 888 q 140 958 129 939 q 170 992 151 978 q 212 1013 189 1006 q 260 1019 235 1019 q 349 993 310 1019 q 389 906 389 967 q 372 849 389 874 q 325 801 354 824 q 258 758 296 779 q 181 710 221 736 q 128 670 156 693 q 79 622 101 647 q 42 570 57 596 q 28 524 28 544 q 44 484 28 500 q 83 468 60 468 l 418 468 q 444 480 433 468 q 456 507 456 492 q 444 534 456 522 q 418 546 433 546 l 138 546 q 161 595 138 565 q 226 651 185 625 q 324 708 278 685 q 403 758 369 732 q 458 817 438 783 q 478 900 478 850 q 461 979 478 943 q 415 1041 444 1015 q 347 1081 386 1067 q 260 1096 307 1096 q 182 1083 221 1096 q 112 1045 143 1069 q 61 988 81 1021 q 42 913 42 954 z "},"":{"ha":519,"x_min":28,"x_max":492,"o":"m 258 1024 q 345 997 308 1024 q 382 929 382 969 q 349 856 382 881 q 236 832 317 832 q 213 822 221 832 q 206 799 206 811 q 213 775 206 786 q 236 764 221 764 q 358 737 317 764 q 400 640 400 710 q 388 591 400 613 q 357 556 376 569 q 313 535 338 542 q 263 528 289 528 q 158 561 200 528 q 107 644 117 594 q 92 670 104 661 q 67 679 81 679 q 40 669 51 679 q 28 636 28 658 q 44 577 28 608 q 90 519 60 546 q 166 474 121 492 q 269 457 211 457 q 351 468 311 457 q 423 502 392 479 q 473 560 454 525 q 492 642 492 594 q 479 713 492 683 q 449 760 467 742 q 410 788 431 778 q 371 800 389 797 q 446 856 426 818 q 465 929 465 893 q 409 1050 465 1004 q 258 1096 353 1096 q 156 1077 197 1096 q 90 1033 115 1058 q 54 982 65 1008 q 43 940 43 956 q 55 904 43 917 q 85 892 67 892 q 107 900 96 892 q 121 924 118 908 q 172 1002 136 981 q 258 1024 207 1024 z "},"":{"ha":258,"x_min":28,"x_max":231,"o":"m 65 892 q 99 903 83 892 l 208 974 q 231 1018 231 988 q 207 1074 231 1051 q 153 1096 183 1096 q 110 1072 125 1096 l 39 963 q 28 931 28 947 q 38 903 28 915 q 65 892 47 892 z "},"":{"ha":788,"x_min":28,"x_max":733,"o":"m 196 38 q 269 9 229 18 q 349 0 308 0 q 437 10 399 0 q 504 36 475 21 q 553 69 533 51 q 586 99 574 86 l 586 0 q 608 -52 586 -31 q 660 -74 629 -74 q 712 -52 690 -74 q 733 0 733 -31 l 733 731 q 712 783 733 761 q 660 804 690 804 q 608 783 629 804 q 586 731 586 761 l 586 328 q 572 245 586 283 q 533 179 558 207 q 470 135 507 151 q 388 119 433 119 q 331 128 360 119 q 280 152 303 136 q 242 192 257 168 q 228 247 228 215 l 228 731 q 207 783 228 761 q 156 804 186 804 q 103 783 125 804 q 82 731 82 761 l 82 231 q 74 41 82 111 q 55 -69 65 -29 q 36 -128 44 -108 q 28 -165 28 -147 q 50 -193 28 -193 q 87 -174 67 -193 q 126 -124 107 -156 q 164 -51 146 -93 q 196 38 182 -10 z "},"":{"ha":914,"x_min":28,"x_max":850,"o":"m 604 950 l 686 950 l 686 82 q 710 24 686 49 q 768 0 733 0 q 826 24 801 0 q 850 82 850 49 l 850 988 q 818 1064 850 1032 q 740 1096 786 1096 l 342 1096 q 219 1072 276 1096 q 119 1004 163 1047 q 52 904 76 961 q 28 782 28 847 q 52 660 28 717 q 119 560 76 603 q 219 492 163 517 q 342 468 276 468 l 440 468 l 440 82 q 464 24 440 49 q 522 0 488 0 q 580 24 556 0 q 604 82 604 49 l 604 950 z "},"":{"ha":257,"x_min":28,"x_max":229,"o":"m 28 547 q 58 477 28 507 q 129 447 88 447 q 199 477 169 447 q 229 547 229 507 q 199 619 229 589 q 129 649 169 649 q 58 619 88 649 q 28 547 28 589 z "},"":{"ha":276,"x_min":28,"x_max":222,"o":"m 101 1017 q 78 1001 90 1006 q 54 990 65 996 q 35 978 43 985 q 28 957 28 971 q 38 933 28 942 q 61 924 47 924 l 135 924 l 135 525 q 148 493 135 506 q 179 481 161 481 q 210 493 197 481 q 222 525 222 506 l 222 1053 q 210 1084 222 1072 q 179 1096 197 1096 q 153 1088 163 1096 q 137 1069 144 1081 q 122 1043 129 1057 q 101 1017 114 1029 z "},"":{"ha":517,"x_min":28,"x_max":489,"o":"m 28 296 l 489 296 l 489 351 l 28 351 l 28 296 m 258 400 q 350 417 308 400 q 423 465 392 433 q 472 542 454 496 q 489 647 489 589 q 472 751 489 706 q 423 828 454 797 q 350 876 392 860 q 258 893 308 893 q 167 876 208 893 q 94 828 125 860 q 45 751 63 797 q 28 647 28 706 q 45 542 28 589 q 94 465 63 496 q 167 417 125 433 q 258 400 208 400 m 401 647 q 361 513 401 556 q 258 471 321 471 q 156 513 196 471 q 117 647 117 556 q 156 781 117 739 q 258 822 196 822 q 361 781 321 822 q 401 647 401 739 z "},"":{"ha":353,"x_min":28,"x_max":636,"o":"m 314 596 l 138 772 q 92 790 119 790 q 48 774 68 790 q 28 728 28 758 q 47 681 28 700 l 179 549 l 47 415 q 28 368 28 396 q 47 323 28 340 q 93 306 67 306 q 138 324 119 306 l 314 500 q 336 549 336 522 q 314 596 336 574 m 614 596 l 438 772 q 392 790 419 790 q 348 774 368 790 q 328 728 328 758 q 347 681 328 700 l 479 549 l 347 415 q 328 368 328 396 q 347 323 328 340 q 393 306 367 306 q 438 324 419 306 l 614 500 q 636 549 636 522 q 614 596 636 574 z "},"":{"ha":1131,"x_min":28,"x_max":1103,"o":"m 121 996 q 92 976 108 983 q 61 963 75 969 q 38 947 47 956 q 28 921 28 938 q 40 892 28 903 q 69 881 53 881 l 163 881 l 163 381 q 178 341 163 357 q 218 325 194 325 q 256 341 240 325 q 272 381 272 357 l 272 1042 q 256 1081 272 1065 q 218 1096 240 1096 q 186 1086 197 1096 q 165 1062 175 1076 q 147 1030 156 1047 q 121 996 138 1013 m 160 40 q 154 15 154 29 q 170 -24 154 -8 q 210 -40 186 -40 q 238 -32 225 -40 q 257 -11 250 -24 l 822 1065 q 829 1092 829 1079 q 813 1131 829 1115 q 774 1147 797 1147 q 744 1139 757 1147 q 724 1117 731 1131 l 160 40 m 521 261 q 543 208 521 229 q 597 186 565 186 l 869 186 l 869 56 q 885 16 869 32 q 924 0 901 0 q 963 16 947 0 q 979 56 979 32 l 979 186 l 1054 186 q 1088 199 1074 186 q 1103 233 1103 213 q 1088 267 1103 253 q 1054 281 1074 281 l 979 281 l 979 713 q 963 753 979 736 q 921 769 946 769 q 895 763 907 769 q 878 749 883 757 l 536 306 q 521 261 521 285 m 869 589 l 869 281 l 638 281 l 869 589 z "},"":{"ha":1222,"x_min":28,"x_max":1185,"o":"m 121 996 q 92 976 108 983 q 61 963 75 969 q 38 947 47 956 q 28 921 28 938 q 40 892 28 903 q 69 881 53 881 l 163 881 l 163 381 q 178 341 163 357 q 218 325 194 325 q 256 341 240 325 q 272 381 272 357 l 272 1042 q 256 1081 272 1065 q 218 1096 240 1096 q 186 1086 197 1096 q 165 1062 175 1076 q 147 1030 156 1047 q 121 996 138 1013 m 640 556 q 658 506 640 522 q 694 489 675 489 q 733 506 715 489 q 750 556 750 524 q 764 613 750 588 q 801 654 778 638 q 853 680 824 671 q 914 689 883 689 q 974 681 944 689 q 1026 656 1003 674 q 1062 612 1049 639 q 1075 546 1075 585 q 1053 474 1075 506 q 995 415 1032 443 q 912 360 958 388 q 815 301 865 333 q 749 251 783 281 q 688 191 715 222 q 642 128 660 160 q 624 69 624 96 q 643 20 624 40 q 692 0 663 0 l 1110 0 q 1144 14 1129 0 q 1158 47 1158 28 q 1144 81 1158 67 q 1110 96 1129 96 l 767 96 q 760 104 760 96 q 789 159 760 121 q 871 229 818 197 q 992 301 935 271 q 1092 363 1050 331 q 1160 435 1135 394 q 1185 539 1185 476 q 1165 638 1185 593 q 1108 716 1144 683 q 1022 767 1071 749 q 914 785 972 785 q 815 768 864 785 q 728 722 767 751 q 665 649 689 692 q 640 556 640 607 m 160 40 q 154 15 154 29 q 170 -24 154 -8 q 210 -40 186 -40 q 238 -32 225 -40 q 257 -11 250 -24 l 822 1065 q 829 1092 829 1079 q 813 1131 829 1115 q 774 1147 797 1147 q 744 1139 757 1147 q 724 1117 731 1131 l 160 40 z "},"":{"ha":1440,"x_min":28,"x_max":1413,"o":"m 469 40 q 464 15 464 29 q 480 -24 464 -8 q 519 -40 496 -40 q 547 -32 535 -40 q 567 -11 560 -24 l 1132 1065 q 1139 1092 1139 1079 q 1123 1131 1139 1115 q 1083 1147 1107 1147 q 1053 1139 1067 1147 q 1033 1117 1040 1131 l 469 40 m 831 261 q 853 208 831 229 q 907 186 875 186 l 1179 186 l 1179 56 q 1195 16 1179 32 q 1233 0 1211 0 q 1273 16 1257 0 q 1289 56 1289 32 l 1289 186 l 1364 186 q 1398 199 1383 186 q 1413 233 1413 213 q 1398 267 1413 253 q 1364 281 1383 281 l 1289 281 l 1289 713 q 1272 753 1289 736 q 1231 769 1256 769 q 1205 763 1217 769 q 1188 749 1193 757 l 846 306 q 831 261 831 285 m 1179 589 l 1179 281 l 947 281 l 1179 589 m 317 1006 q 375 997 347 1006 q 424 972 403 988 q 458 934 446 956 q 471 888 471 913 q 430 797 471 826 q 289 767 389 767 q 260 753 269 767 q 250 724 250 739 q 260 694 250 708 q 289 681 269 681 q 441 647 389 681 q 493 526 493 613 q 478 465 493 490 q 440 421 464 439 q 384 394 415 403 q 321 386 353 386 q 190 427 242 386 q 128 532 139 468 q 108 564 124 553 q 76 575 93 575 q 43 562 58 575 q 28 522 28 549 q 47 448 28 488 q 105 375 67 408 q 199 319 143 342 q 329 297 256 297 q 432 311 382 297 q 522 353 482 325 q 585 426 561 382 q 608 528 608 469 q 593 617 608 581 q 555 676 578 653 q 505 710 532 699 q 456 726 478 722 q 513 756 490 738 q 549 795 536 774 q 568 841 563 817 q 574 889 574 865 q 556 973 574 935 q 503 1038 538 1011 q 422 1081 469 1065 q 317 1096 375 1096 q 188 1073 240 1096 q 105 1018 136 1050 q 60 953 74 986 q 47 900 47 919 q 62 856 47 871 q 99 842 76 842 q 127 851 114 842 q 144 881 140 861 q 207 978 163 951 q 317 1006 251 1006 z "},"":{"ha":753,"x_min":28,"x_max":725,"o":"m 307 996 q 337 925 307 954 q 407 896 367 896 q 478 925 449 896 q 508 996 508 954 q 478 1067 508 1038 q 407 1096 449 1096 q 337 1067 367 1096 q 307 996 307 1038 m 364 110 q 290 122 325 110 q 229 157 256 135 q 187 210 203 179 q 171 276 171 240 q 192 363 171 326 q 247 430 214 399 q 317 491 279 461 q 387 556 354 521 q 441 638 419 592 q 463 747 463 683 q 441 799 463 778 q 389 821 419 821 q 338 799 358 821 q 317 747 317 778 q 295 665 317 700 q 242 599 274 631 q 172 538 210 568 q 103 471 135 508 q 49 385 71 433 q 28 268 28 336 q 56 147 28 200 q 131 57 85 93 q 238 1 178 21 q 364 -18 299 -18 q 513 12 446 -18 q 626 86 579 42 q 699 182 674 131 q 725 278 725 233 q 702 335 725 314 q 651 356 679 356 q 610 342 629 356 q 585 297 592 328 q 511 163 565 215 q 364 110 457 110 z "},"":{"ha":963,"x_min":17,"x_max":946,"o":"m 465 933 l 625 476 l 322 476 l 465 933 m 471 1115 q 397 1090 426 1115 q 351 1024 367 1065 l 21 113 q 17 86 17 100 q 44 25 17 50 q 108 0 71 0 q 157 13 135 0 q 188 51 179 26 l 276 329 l 676 329 l 768 65 q 804 18 779 36 q 858 0 829 0 q 901 10 883 0 q 928 34 918 19 q 942 64 938 49 q 946 92 946 79 q 939 126 946 108 l 590 1024 q 545 1090 575 1065 q 471 1115 515 1115 m 458 1181 q 492 1169 474 1169 q 522 1183 514 1169 q 529 1208 529 1197 q 518 1240 529 1225 l 447 1350 q 403 1372 433 1372 q 368 1365 382 1372 q 344 1346 354 1357 q 331 1322 335 1335 q 326 1297 326 1308 q 332 1271 326 1283 q 349 1251 338 1258 l 458 1181 z "},"":{"ha":963,"x_min":17,"x_max":946,"o":"m 465 933 l 625 476 l 322 476 l 465 933 m 471 1115 q 397 1090 426 1115 q 351 1024 367 1065 l 21 113 q 17 86 17 100 q 44 25 17 50 q 108 0 71 0 q 157 13 135 0 q 188 51 179 26 l 276 329 l 676 329 l 768 65 q 804 18 779 36 q 858 0 829 0 q 901 10 883 0 q 928 34 918 19 q 942 64 938 49 q 946 92 946 79 q 939 126 946 108 l 590 1024 q 545 1090 575 1065 q 471 1115 515 1115 m 506 1182 l 615 1253 q 632 1272 626 1260 q 638 1299 638 1285 q 633 1323 638 1310 q 619 1347 629 1336 q 596 1366 610 1358 q 561 1374 582 1374 q 517 1351 531 1374 l 446 1242 q 435 1210 435 1226 q 442 1185 435 1199 q 472 1171 450 1171 q 506 1182 490 1171 z "},"":{"ha":963,"x_min":17,"x_max":946,"o":"m 465 933 l 625 476 l 322 476 l 465 933 m 471 1115 q 397 1090 426 1115 q 351 1024 367 1065 l 21 113 q 17 86 17 100 q 44 25 17 50 q 108 0 71 0 q 157 13 135 0 q 188 51 179 26 l 276 329 l 676 329 l 768 65 q 804 18 779 36 q 858 0 829 0 q 901 10 883 0 q 928 34 918 19 q 942 64 938 49 q 946 92 946 79 q 939 126 946 108 l 590 1024 q 545 1090 575 1065 q 471 1115 515 1115 m 506 1332 q 479 1344 493 1344 q 451 1332 464 1344 l 351 1231 q 340 1204 340 1217 q 356 1174 340 1179 q 376 1168 372 1168 q 403 1179 392 1168 l 479 1256 l 554 1179 q 581 1168 565 1168 q 608 1179 599 1168 q 617 1206 617 1190 q 607 1231 617 1221 l 506 1332 z "},"":{"ha":963,"x_min":17,"x_max":946,"o":"m 465 933 l 625 476 l 322 476 l 465 933 m 471 1115 q 397 1090 426 1115 q 351 1024 367 1065 l 21 113 q 17 86 17 100 q 44 25 17 50 q 108 0 71 0 q 157 13 135 0 q 188 51 179 26 l 276 329 l 676 329 l 768 65 q 804 18 779 36 q 858 0 829 0 q 901 10 883 0 q 928 34 918 19 q 942 64 938 49 q 946 92 946 79 q 939 126 946 108 l 590 1024 q 545 1090 575 1065 q 471 1115 515 1115 m 339 1168 q 363 1176 354 1168 q 381 1192 372 1183 q 397 1207 389 1201 q 421 1208 406 1213 l 553 1172 q 579 1168 565 1168 q 645 1190 615 1168 q 675 1249 675 1213 q 658 1290 675 1272 q 617 1307 642 1307 q 592 1299 601 1307 q 575 1283 583 1292 q 557 1269 567 1275 q 533 1268 547 1264 l 403 1303 q 390 1306 396 1306 q 378 1306 385 1306 q 310 1284 342 1306 q 279 1226 279 1263 q 297 1185 279 1203 q 339 1168 315 1168 z "},"":{"ha":963,"x_min":17,"x_max":946,"o":"m 299 1250 q 322 1193 299 1217 q 379 1169 346 1169 q 436 1193 413 1169 q 460 1250 460 1217 q 436 1307 460 1283 q 379 1331 413 1331 q 322 1307 346 1331 q 299 1250 299 1283 m 496 1250 q 519 1193 496 1217 q 576 1169 543 1169 q 633 1193 610 1169 q 657 1250 657 1217 q 633 1307 657 1283 q 576 1331 610 1331 q 519 1307 543 1331 q 496 1250 496 1283 m 465 933 l 625 476 l 322 476 l 465 933 m 471 1115 q 397 1090 426 1115 q 351 1024 367 1065 l 21 113 q 17 86 17 100 q 44 25 17 50 q 108 0 71 0 q 157 13 135 0 q 188 51 179 26 l 276 329 l 676 329 l 768 65 q 804 18 779 36 q 858 0 829 0 q 901 10 883 0 q 928 34 918 19 q 942 64 938 49 q 946 92 946 79 q 939 126 946 108 l 590 1024 q 545 1090 575 1065 q 471 1115 515 1115 z "},"":{"ha":963,"x_min":17,"x_max":946,"o":"m 465 933 l 625 476 l 322 476 l 465 933 m 471 1115 q 397 1090 426 1115 q 351 1024 367 1065 l 21 113 q 17 86 17 100 q 44 25 17 50 q 108 0 71 0 q 157 13 135 0 q 188 51 179 26 l 276 329 l 676 329 l 768 65 q 804 18 779 36 q 858 0 829 0 q 901 10 883 0 q 928 34 918 19 q 942 64 938 49 q 946 92 946 79 q 939 126 946 108 l 590 1024 q 545 1090 575 1065 q 471 1115 515 1115 m 474 1388 q 396 1356 428 1388 q 364 1278 364 1324 q 396 1200 364 1232 q 474 1168 428 1168 q 551 1200 519 1168 q 583 1278 583 1232 q 551 1356 583 1324 q 474 1388 519 1388 m 474 1351 q 526 1330 504 1351 q 547 1278 547 1308 q 526 1226 547 1247 q 474 1204 504 1204 q 422 1226 443 1204 q 400 1278 400 1247 q 422 1330 400 1308 q 474 1351 443 1351 z "},"":{"ha":1483,"x_min":17,"x_max":1456,"o":"m 669 738 l 669 485 l 489 485 l 669 738 m 1382 0 q 1434 21 1413 0 q 1456 72 1456 42 q 1434 124 1456 103 q 1382 146 1413 146 l 835 146 l 835 503 l 1336 503 q 1388 524 1367 503 q 1410 575 1410 546 q 1388 627 1410 606 q 1336 649 1367 649 l 835 649 l 835 950 l 1371 950 q 1423 972 1401 950 q 1444 1024 1444 993 q 1423 1075 1444 1054 q 1371 1096 1401 1096 l 779 1096 q 735 1087 760 1096 q 693 1054 710 1078 l 31 128 q 17 83 17 108 q 41 26 17 51 q 101 0 65 0 q 164 31 142 0 l 385 338 l 669 338 l 669 110 q 679 60 669 81 q 705 26 689 39 q 740 6 721 13 q 779 0 760 0 l 1382 0 z "},"":{"ha":1006,"x_min":28,"x_max":968,"o":"m 490 -17 l 490 -90 q 476 -119 490 -112 q 453 -126 463 -126 l 399 -126 q 373 -137 383 -126 q 363 -162 363 -147 q 373 -189 363 -178 q 399 -200 383 -200 l 453 -200 q 537 -167 511 -200 q 563 -90 563 -135 l 563 -17 q 694 8 635 -12 q 797 60 753 29 q 874 126 842 90 q 928 198 907 163 q 958 264 949 233 q 968 313 968 294 q 940 371 968 350 q 881 392 913 392 q 836 380 857 392 q 807 340 815 368 q 772 263 794 301 q 715 195 750 225 q 634 147 681 165 q 526 128 588 128 q 396 158 457 128 q 290 242 335 188 q 218 375 244 297 q 192 549 192 453 q 218 722 192 644 q 290 854 244 800 q 396 938 335 908 q 526 968 457 968 q 634 949 588 968 q 715 901 681 931 q 772 833 750 871 q 807 757 794 796 q 836 717 815 729 q 881 706 857 706 q 940 727 913 706 q 968 786 968 749 q 935 885 968 828 q 844 992 903 942 q 703 1079 785 1043 q 526 1115 622 1115 q 308 1068 401 1115 q 152 942 214 1021 q 59 761 90 864 q 28 549 28 658 q 57 342 28 442 q 144 165 86 243 q 288 38 201 88 q 490 -17 375 -11 z "},"":{"ha":914,"x_min":64,"x_max":886,"o":"m 814 0 q 865 21 843 0 q 886 72 886 42 q 865 124 886 103 q 814 146 843 146 l 228 146 l 228 503 l 768 503 q 819 524 799 503 q 840 575 840 546 q 819 627 840 606 q 768 649 799 649 l 228 649 l 228 950 l 803 950 q 854 972 833 950 q 875 1024 875 993 q 854 1075 875 1054 q 803 1096 833 1096 l 174 1096 q 96 1064 128 1096 q 64 988 64 1032 l 64 110 q 74 64 64 85 q 99 29 83 43 q 133 8 114 15 q 174 0 153 0 l 814 0 m 451 1181 q 485 1169 467 1169 q 515 1183 507 1169 q 522 1208 522 1197 q 511 1240 522 1225 l 440 1350 q 396 1372 426 1372 q 361 1365 375 1372 q 338 1346 347 1357 q 324 1322 328 1335 q 319 1297 319 1308 q 325 1271 319 1283 q 342 1251 331 1258 l 451 1181 z "},"":{"ha":914,"x_min":64,"x_max":886,"o":"m 432 1185 l 542 1256 q 558 1275 553 1263 q 564 1301 564 1288 q 560 1326 564 1313 q 546 1350 556 1339 q 522 1369 536 1361 q 488 1376 508 1376 q 443 1354 457 1376 l 372 1244 q 361 1213 361 1229 q 369 1188 361 1201 q 399 1174 376 1174 q 432 1185 417 1174 m 814 0 q 865 21 843 0 q 886 72 886 42 q 865 124 886 103 q 814 146 843 146 l 228 146 l 228 503 l 768 503 q 819 524 799 503 q 840 575 840 546 q 819 627 840 606 q 768 649 799 649 l 228 649 l 228 950 l 803 950 q 854 972 833 950 q 875 1024 875 993 q 854 1075 875 1054 q 803 1096 833 1096 l 174 1096 q 96 1064 128 1096 q 64 988 64 1032 l 64 110 q 74 64 64 85 q 99 29 83 43 q 133 8 114 15 q 174 0 153 0 l 814 0 z "},"":{"ha":914,"x_min":64,"x_max":886,"o":"m 814 0 q 865 21 843 0 q 886 72 886 42 q 865 124 886 103 q 814 146 843 146 l 228 146 l 228 503 l 768 503 q 819 524 799 503 q 840 575 840 546 q 819 627 840 606 q 768 649 799 649 l 228 649 l 228 950 l 803 950 q 854 972 833 950 q 875 1024 875 993 q 854 1075 875 1054 q 803 1096 833 1096 l 174 1096 q 96 1064 128 1096 q 64 988 64 1032 l 64 110 q 74 64 64 85 q 99 29 83 43 q 133 8 114 15 q 174 0 153 0 l 814 0 m 494 1332 q 468 1344 482 1344 q 440 1332 453 1344 l 340 1231 q 329 1204 329 1217 q 345 1174 329 1179 q 365 1168 361 1168 q 392 1179 381 1168 l 468 1256 l 543 1179 q 569 1168 554 1168 q 597 1179 588 1168 q 606 1206 606 1190 q 596 1231 606 1221 l 494 1332 z "},"":{"ha":914,"x_min":64,"x_max":886,"o":"m 293 1250 q 317 1193 293 1217 q 372 1169 340 1169 q 429 1193 406 1169 q 453 1250 453 1217 q 429 1307 453 1283 q 372 1331 406 1331 q 317 1307 340 1331 q 293 1250 293 1283 m 490 1250 q 514 1193 490 1217 q 571 1169 538 1169 q 626 1193 603 1169 q 650 1250 650 1217 q 626 1307 650 1283 q 571 1331 603 1331 q 514 1307 538 1331 q 490 1250 490 1283 m 814 0 q 865 21 843 0 q 886 72 886 42 q 865 124 886 103 q 814 146 843 146 l 228 146 l 228 503 l 768 503 q 819 524 799 503 q 840 575 840 546 q 819 627 840 606 q 768 649 799 649 l 228 649 l 228 950 l 803 950 q 854 972 833 950 q 875 1024 875 993 q 854 1075 875 1054 q 803 1096 833 1096 l 174 1096 q 96 1064 128 1096 q 64 988 64 1032 l 64 110 q 74 64 64 85 q 99 29 83 43 q 133 8 114 15 q 174 0 153 0 l 814 0 z "},"":{"ha":293,"x_min":-3,"x_max":229,"o":"m 229 1014 q 206 1072 229 1049 q 147 1096 182 1096 q 90 1072 114 1096 q 65 1014 65 1049 l 65 82 q 90 24 65 49 q 147 0 114 0 q 206 24 182 0 q 229 82 229 49 l 229 1014 m 129 1179 q 163 1168 144 1168 q 192 1182 185 1168 q 200 1207 200 1196 q 189 1239 200 1224 l 118 1349 q 74 1371 104 1371 q 39 1363 53 1371 q 15 1344 25 1356 q 1 1320 6 1333 q -3 1296 -3 1307 q 3 1269 -3 1282 q 19 1250 8 1257 l 129 1179 z "},"":{"ha":292,"x_min":64,"x_max":310,"o":"m 228 1014 q 204 1072 228 1049 q 146 1096 181 1096 q 88 1072 113 1096 q 64 1014 64 1049 l 64 82 q 88 24 64 49 q 146 0 113 0 q 204 24 181 0 q 228 82 228 49 l 228 1014 m 178 1185 l 288 1256 q 304 1275 299 1263 q 310 1301 310 1288 q 306 1326 310 1313 q 292 1350 301 1339 q 268 1369 282 1361 q 233 1376 254 1376 q 189 1354 203 1376 l 118 1244 q 107 1213 107 1229 q 115 1188 107 1201 q 144 1174 122 1174 q 178 1185 163 1174 z "},"":{"ha":292,"x_min":7,"x_max":285,"o":"m 228 1014 q 204 1072 228 1049 q 146 1096 181 1096 q 88 1072 113 1096 q 64 1014 64 1049 l 64 82 q 88 24 64 49 q 146 0 113 0 q 204 24 181 0 q 228 82 228 49 l 228 1014 m 174 1331 q 146 1344 160 1344 q 118 1331 132 1344 l 18 1231 q 7 1204 7 1219 q 19 1176 7 1185 q 43 1168 32 1168 q 71 1179 60 1168 l 146 1254 l 221 1179 q 249 1168 232 1168 q 276 1183 268 1168 q 285 1206 285 1197 q 274 1231 285 1219 l 174 1331 z "},"":{"ha":292,"x_min":-33,"x_max":325,"o":"m -33 1250 q -10 1193 -33 1217 q 47 1169 14 1169 q 103 1193 79 1169 q 126 1250 126 1217 q 103 1307 126 1283 q 47 1331 79 1331 q -10 1307 14 1331 q -33 1250 -33 1283 m 164 1250 q 188 1193 164 1217 q 244 1169 211 1169 q 301 1193 276 1169 q 325 1250 325 1217 q 301 1307 325 1283 q 244 1331 276 1331 q 188 1307 211 1331 q 164 1250 164 1283 m 228 1014 q 204 1072 228 1049 q 146 1096 181 1096 q 88 1072 113 1096 q 64 1014 64 1049 l 64 82 q 88 24 64 49 q 146 0 113 0 q 204 24 181 0 q 228 82 228 49 l 228 1014 z "},"":{"ha":1118,"x_min":28,"x_max":1090,"o":"m 358 618 l 358 950 l 601 950 q 744 922 683 950 q 846 841 806 893 q 906 715 886 789 q 925 549 925 640 q 906 381 925 456 q 846 255 886 307 q 744 174 806 203 q 601 146 683 146 l 358 146 l 358 479 l 497 479 q 547 499 526 479 q 567 549 567 519 q 547 598 567 578 q 497 618 526 618 l 358 618 m 194 479 l 194 110 q 204 64 194 85 q 229 29 214 43 q 264 8 244 15 q 304 0 283 0 l 633 0 q 797 28 715 0 q 944 120 879 56 q 1050 290 1010 185 q 1090 549 1090 394 q 1050 806 1090 701 q 944 976 1010 911 q 797 1068 879 1040 q 633 1096 715 1096 l 304 1096 q 226 1064 258 1096 q 194 988 194 1032 l 194 618 l 97 618 q 48 598 68 618 q 28 549 28 578 q 48 499 28 519 q 97 479 68 479 l 194 479 z "},"":{"ha":985,"x_min":64,"x_max":921,"o":"m 357 1168 q 381 1176 372 1168 q 399 1192 390 1183 q 415 1207 407 1201 q 439 1208 424 1213 l 571 1172 q 597 1168 583 1168 q 663 1190 633 1168 q 693 1249 693 1213 q 676 1290 693 1272 q 635 1307 660 1307 q 610 1299 619 1307 q 593 1283 601 1292 q 575 1269 585 1275 q 551 1268 565 1264 l 421 1303 q 408 1306 414 1306 q 396 1306 403 1306 q 328 1284 360 1306 q 297 1226 297 1263 q 315 1185 297 1203 q 357 1168 333 1168 m 839 0 q 897 24 874 0 q 921 82 921 49 l 921 1014 q 897 1072 921 1049 q 839 1096 874 1096 q 781 1072 804 1096 q 757 1014 757 1049 l 757 283 l 260 1029 q 211 1078 238 1061 q 146 1096 185 1096 q 88 1072 113 1096 q 64 1014 64 1049 l 64 82 q 88 24 64 49 q 146 0 113 0 q 204 24 181 0 q 228 82 228 49 l 228 807 l 726 67 q 774 17 747 35 q 839 0 800 0 z "},"":{"ha":1133,"x_min":28,"x_max":1106,"o":"m 567 -19 q 790 26 690 -19 q 959 150 889 72 q 1067 331 1029 228 q 1106 549 1106 433 q 1067 765 1106 663 q 959 946 1029 868 q 790 1069 889 1024 q 567 1115 690 1115 q 344 1069 443 1115 q 174 946 244 1024 q 66 765 104 868 q 28 549 28 663 q 66 331 28 433 q 174 150 104 228 q 344 26 244 72 q 567 -19 443 -19 m 942 549 q 913 375 942 453 q 833 242 883 297 q 714 158 782 188 q 567 128 646 128 q 419 158 488 128 q 301 242 351 188 q 221 375 250 297 q 192 549 192 453 q 221 722 192 644 q 301 854 250 800 q 419 938 351 908 q 567 968 488 968 q 714 938 646 968 q 833 854 782 908 q 913 722 883 800 q 942 549 942 644 m 560 1181 q 593 1169 575 1169 q 623 1183 615 1169 q 631 1208 631 1197 q 619 1240 631 1225 l 549 1350 q 504 1372 535 1372 q 469 1365 483 1372 q 446 1346 456 1357 q 432 1322 436 1335 q 428 1297 428 1308 q 433 1271 428 1283 q 450 1251 439 1258 l 560 1181 z "},"":{"ha":1133,"x_min":28,"x_max":1106,"o":"m 567 -19 q 790 26 690 -19 q 959 150 889 72 q 1067 331 1029 228 q 1106 549 1106 433 q 1067 765 1106 663 q 959 946 1029 868 q 790 1069 889 1024 q 567 1115 690 1115 q 344 1069 443 1115 q 174 946 244 1024 q 66 765 104 868 q 28 549 28 663 q 66 331 28 433 q 174 150 104 228 q 344 26 244 72 q 567 -19 443 -19 m 942 549 q 913 375 942 453 q 833 242 883 297 q 714 158 782 188 q 567 128 646 128 q 419 158 488 128 q 301 242 351 188 q 221 375 250 297 q 192 549 192 453 q 221 722 192 644 q 301 854 250 800 q 419 938 351 908 q 567 968 488 968 q 714 938 646 968 q 833 854 782 908 q 913 722 883 800 q 942 549 942 644 m 586 1181 l 696 1251 q 713 1271 707 1258 q 718 1297 718 1283 q 714 1322 718 1308 q 700 1346 710 1335 q 676 1365 690 1357 q 642 1372 663 1372 q 597 1350 611 1372 l 526 1240 q 515 1208 515 1225 q 523 1183 515 1197 q 553 1169 531 1169 q 586 1181 571 1169 z "},"":{"ha":1133,"x_min":28,"x_max":1106,"o":"m 567 -19 q 790 26 690 -19 q 959 150 889 72 q 1067 331 1029 228 q 1106 549 1106 433 q 1067 765 1106 663 q 959 946 1029 868 q 790 1069 889 1024 q 567 1115 690 1115 q 344 1069 443 1115 q 174 946 244 1024 q 66 765 104 868 q 28 549 28 663 q 66 331 28 433 q 174 150 104 228 q 344 26 244 72 q 567 -19 443 -19 m 942 549 q 913 375 942 453 q 833 242 883 297 q 714 158 782 188 q 567 128 646 128 q 419 158 488 128 q 301 242 351 188 q 221 375 250 297 q 192 549 192 453 q 221 722 192 644 q 301 854 250 800 q 419 938 351 908 q 567 968 488 968 q 714 938 646 968 q 833 854 782 908 q 913 722 883 800 q 942 549 942 644 m 596 1331 q 568 1344 582 1344 q 540 1331 554 1344 l 440 1231 q 429 1204 429 1219 q 442 1176 429 1185 q 465 1168 454 1168 q 493 1179 482 1168 l 568 1254 l 643 1179 q 671 1168 654 1168 q 699 1183 690 1168 q 707 1206 707 1197 q 696 1231 707 1219 l 596 1331 z "},"":{"ha":1133,"x_min":28,"x_max":1106,"o":"m 567 -19 q 790 26 690 -19 q 959 150 889 72 q 1067 331 1029 228 q 1106 549 1106 433 q 1067 765 1106 663 q 959 946 1029 868 q 790 1069 889 1024 q 567 1115 690 1115 q 344 1069 443 1115 q 174 946 244 1024 q 66 765 104 868 q 28 549 28 663 q 66 331 28 433 q 174 150 104 228 q 344 26 244 72 q 567 -19 443 -19 m 942 549 q 913 375 942 453 q 833 242 883 297 q 714 158 782 188 q 567 128 646 128 q 419 158 488 128 q 301 242 351 188 q 221 375 250 297 q 192 549 192 453 q 221 722 192 644 q 301 854 250 800 q 419 938 351 908 q 567 968 488 968 q 714 938 646 968 q 833 854 782 908 q 913 722 883 800 q 942 549 942 644 m 424 1168 q 448 1176 439 1168 q 465 1192 457 1183 q 482 1207 474 1201 q 506 1208 490 1213 l 638 1172 q 664 1168 650 1168 q 730 1190 700 1168 q 760 1249 760 1213 q 743 1290 760 1272 q 701 1307 726 1307 q 677 1299 686 1307 q 660 1283 668 1292 q 642 1269 651 1275 q 618 1268 632 1264 l 488 1303 q 475 1306 481 1306 q 463 1306 469 1306 q 395 1284 426 1306 q 364 1226 364 1263 q 382 1185 364 1203 q 424 1168 400 1168 z "},"":{"ha":1133,"x_min":28,"x_max":1106,"o":"m 388 1250 q 411 1193 388 1217 q 468 1169 435 1169 q 525 1193 501 1169 q 549 1250 549 1217 q 525 1307 549 1283 q 468 1331 501 1331 q 411 1307 435 1331 q 388 1250 388 1283 m 585 1250 q 608 1193 585 1217 q 665 1169 632 1169 q 722 1193 699 1169 q 746 1250 746 1217 q 722 1307 746 1283 q 665 1331 699 1331 q 608 1307 632 1331 q 585 1250 585 1283 m 567 -19 q 790 26 690 -19 q 959 150 889 72 q 1067 331 1029 228 q 1106 549 1106 433 q 1067 765 1106 663 q 959 946 1029 868 q 790 1069 889 1024 q 567 1115 690 1115 q 344 1069 443 1115 q 174 946 244 1024 q 66 765 104 868 q 28 549 28 663 q 66 331 28 433 q 174 150 104 228 q 344 26 244 72 q 567 -19 443 -19 m 942 549 q 913 375 942 453 q 833 242 883 297 q 714 158 782 188 q 567 128 646 128 q 419 158 488 128 q 301 242 351 188 q 221 375 250 297 q 192 549 192 453 q 221 722 192 644 q 301 854 250 800 q 419 938 351 908 q 567 968 488 968 q 714 938 646 968 q 833 854 782 908 q 913 722 883 800 q 942 549 942 644 z "},"":{"ha":481,"x_min":28,"x_max":453,"o":"m 331 549 l 433 651 q 453 697 453 671 q 435 740 453 719 q 389 761 417 761 q 343 742 363 761 l 240 639 l 138 742 q 92 761 118 761 q 45 740 63 761 q 28 697 28 718 q 47 651 28 671 l 150 549 l 47 446 q 28 400 28 426 q 49 353 28 369 q 92 336 71 336 q 138 356 118 336 l 240 458 l 344 354 q 389 336 363 336 q 421 343 408 336 q 440 360 433 350 q 450 381 447 369 q 453 400 453 392 q 435 444 453 426 l 331 549 z "},"":{"ha":1133,"x_min":28,"x_max":1106,"o":"m 192 549 q 221 722 192 644 q 301 854 250 800 q 419 938 351 908 q 567 968 488 968 q 684 949 625 968 q 800 886 743 931 l 251 308 q 203 433 215 371 q 192 549 192 496 m 338 207 l 885 783 q 931 658 919 721 q 942 549 942 596 q 913 375 942 453 q 833 242 883 297 q 714 158 782 188 q 567 128 646 128 q 452 146 510 128 q 338 207 394 164 m 140 192 l 63 110 q 44 64 44 89 q 65 17 44 35 q 111 0 85 0 q 158 19 140 0 l 232 96 q 398 7 314 32 q 567 -18 482 -18 q 790 28 690 -18 q 959 151 889 74 q 1067 331 1029 228 q 1106 549 1106 433 q 1082 722 1106 631 q 996 900 1058 813 l 1075 985 q 1093 1031 1093 1003 q 1073 1078 1093 1060 q 1028 1096 1053 1096 q 981 1075 999 1096 l 906 997 q 738 1089 822 1063 q 567 1115 653 1115 q 344 1069 443 1115 q 174 946 244 1024 q 66 765 104 868 q 28 549 28 663 q 33 464 28 508 q 52 374 39 419 q 87 281 65 328 q 140 192 108 235 z "},"":{"ha":1006,"x_min":64,"x_max":942,"o":"m 776 365 q 753 254 776 300 q 692 181 731 208 q 605 140 654 153 q 503 128 556 128 q 400 140 450 128 q 312 181 350 153 q 251 254 274 208 q 228 365 228 300 l 228 1014 q 204 1072 228 1049 q 146 1096 181 1096 q 88 1072 113 1096 q 64 1014 64 1049 l 64 365 q 101 185 64 258 q 198 66 138 111 q 338 1 258 21 q 503 -18 417 -18 q 667 1 588 -18 q 808 66 747 21 q 905 185 868 111 q 942 365 942 258 l 942 1014 q 917 1072 942 1049 q 858 1096 893 1096 q 801 1072 825 1096 q 776 1014 776 1049 l 776 365 m 479 1181 q 513 1169 494 1169 q 542 1183 535 1169 q 550 1208 550 1197 q 539 1240 550 1225 l 468 1350 q 424 1372 454 1372 q 389 1365 403 1372 q 365 1346 375 1357 q 351 1322 356 1335 q 347 1297 347 1308 q 353 1271 347 1283 q 369 1251 358 1258 l 479 1181 z "},"":{"ha":1006,"x_min":64,"x_max":942,"o":"m 776 365 q 753 254 776 300 q 692 181 731 208 q 605 140 654 153 q 503 128 556 128 q 400 140 450 128 q 312 181 350 153 q 251 254 274 208 q 228 365 228 300 l 228 1014 q 204 1072 228 1049 q 146 1096 181 1096 q 88 1072 113 1096 q 64 1014 64 1049 l 64 365 q 101 185 64 258 q 198 66 138 111 q 338 1 258 21 q 503 -18 417 -18 q 667 1 588 -18 q 808 66 747 21 q 905 185 868 111 q 942 365 942 258 l 942 1014 q 917 1072 942 1049 q 858 1096 893 1096 q 801 1072 825 1096 q 776 1014 776 1049 l 776 365 m 507 1179 l 617 1250 q 633 1269 628 1257 q 639 1296 639 1282 q 635 1320 639 1307 q 621 1344 631 1333 q 597 1363 611 1356 q 563 1371 583 1371 q 518 1349 532 1371 l 447 1239 q 436 1207 436 1224 q 444 1182 436 1196 q 474 1168 451 1168 q 507 1179 492 1168 z "},"":{"ha":1006,"x_min":64,"x_max":942,"o":"m 776 365 q 753 254 776 300 q 692 181 731 208 q 605 140 654 153 q 503 128 556 128 q 400 140 450 128 q 312 181 350 153 q 251 254 274 208 q 228 365 228 300 l 228 1014 q 204 1072 228 1049 q 146 1096 181 1096 q 88 1072 113 1096 q 64 1014 64 1049 l 64 365 q 101 185 64 258 q 198 66 138 111 q 338 1 258 21 q 503 -18 417 -18 q 667 1 588 -18 q 808 66 747 21 q 905 185 868 111 q 942 365 942 258 l 942 1014 q 917 1072 942 1049 q 858 1096 893 1096 q 801 1072 825 1096 q 776 1014 776 1049 l 776 365 m 532 1331 q 504 1344 518 1344 q 476 1331 490 1344 l 376 1231 q 365 1204 365 1219 q 378 1176 365 1185 q 401 1168 390 1168 q 429 1179 418 1168 l 504 1254 l 579 1179 q 607 1168 590 1168 q 635 1183 626 1168 q 643 1206 643 1197 q 632 1231 643 1219 l 532 1331 z "},"":{"ha":1006,"x_min":64,"x_max":942,"o":"m 324 1250 q 347 1193 324 1217 q 404 1169 371 1169 q 461 1193 438 1169 q 485 1250 485 1217 q 461 1307 485 1283 q 404 1331 438 1331 q 347 1307 371 1331 q 324 1250 324 1283 m 521 1250 q 544 1193 521 1217 q 601 1169 568 1169 q 658 1193 635 1169 q 682 1250 682 1217 q 658 1307 682 1283 q 601 1331 635 1331 q 544 1307 568 1331 q 521 1250 521 1283 m 776 365 q 753 254 776 300 q 692 181 731 208 q 605 140 654 153 q 503 128 556 128 q 400 140 450 128 q 312 181 350 153 q 251 254 274 208 q 228 365 228 300 l 228 1014 q 204 1072 228 1049 q 146 1096 181 1096 q 88 1072 113 1096 q 64 1014 64 1049 l 64 365 q 101 185 64 258 q 198 66 138 111 q 338 1 258 21 q 503 -18 417 -18 q 667 1 588 -18 q 808 66 747 21 q 905 185 868 111 q 942 365 942 258 l 942 1014 q 917 1072 942 1049 q 858 1096 893 1096 q 801 1072 825 1096 q 776 1014 776 1049 l 776 365 z "},"":{"ha":946,"x_min":17,"x_max":929,"o":"m 917 982 q 929 1024 929 1000 q 922 1058 929 1044 q 903 1081 914 1072 q 879 1092 892 1089 q 857 1096 867 1096 q 824 1088 840 1096 q 797 1065 808 1081 l 472 601 l 149 1065 q 122 1088 138 1081 q 89 1096 106 1096 q 38 1076 60 1096 q 17 1024 17 1056 q 29 982 17 1000 l 390 464 l 390 82 q 415 24 390 49 q 472 0 439 0 q 531 24 507 0 q 556 82 556 49 l 556 464 l 917 982 m 506 1181 l 615 1251 q 632 1271 626 1258 q 638 1297 638 1283 q 633 1322 638 1308 q 619 1346 629 1335 q 596 1365 610 1357 q 561 1372 582 1372 q 517 1350 531 1372 l 446 1240 q 435 1208 435 1225 q 442 1183 435 1197 q 472 1169 450 1169 q 506 1181 490 1169 z "},"":{"ha":914,"x_min":64,"x_max":886,"o":"m 554 717 q 619 703 589 717 q 673 667 650 690 q 709 614 696 644 q 722 549 722 583 q 709 483 722 514 q 673 430 696 453 q 619 394 650 407 q 554 381 589 381 l 228 381 l 228 717 l 554 717 m 228 863 l 228 1014 q 204 1072 228 1047 q 146 1096 181 1096 q 88 1072 113 1096 q 64 1014 64 1047 l 64 82 q 88 24 64 49 q 146 0 113 0 q 204 24 181 0 q 228 82 228 49 l 228 235 l 572 235 q 694 259 638 235 q 794 326 751 283 q 862 426 838 369 q 886 549 886 483 q 862 671 886 614 q 794 771 838 728 q 694 838 751 814 q 572 863 638 863 l 228 863 z "},"":{"ha":1076,"x_min":28,"x_max":1040,"o":"m 579 679 q 667 724 633 701 q 720 773 701 746 q 746 834 739 800 q 753 915 753 868 q 741 979 753 947 q 706 1038 729 1011 q 649 1080 683 1064 q 572 1096 615 1096 l 324 1096 q 246 1080 279 1096 q 190 1038 213 1064 q 155 979 167 1011 q 143 915 143 947 l 143 786 l 92 786 q 47 767 65 786 q 28 722 28 749 q 47 676 28 694 q 92 658 65 658 l 143 658 l 143 74 q 164 22 143 43 q 215 0 185 0 q 267 22 246 0 q 289 74 289 43 l 289 915 q 302 944 289 939 q 324 950 315 950 l 535 950 q 586 929 565 950 q 607 878 607 908 q 603 854 607 865 q 590 832 600 843 q 560 808 579 821 q 508 782 540 796 q 413 703 446 754 q 379 583 379 653 q 417 466 379 508 q 510 401 454 424 q 631 366 565 378 q 753 340 697 354 q 846 303 808 326 q 883 232 883 279 q 874 187 883 208 q 844 148 864 165 q 792 120 824 131 q 715 110 760 110 q 566 150 618 110 q 490 250 514 190 q 467 281 482 271 q 435 290 451 290 q 385 270 408 290 q 363 218 363 250 q 381 161 363 199 q 440 85 399 124 q 545 19 481 47 q 704 -10 610 -10 q 832 3 771 -10 q 939 47 893 17 q 1013 124 985 76 q 1040 242 1040 172 q 1018 339 1040 300 q 959 405 996 378 q 875 448 922 432 q 779 476 828 464 q 683 497 731 488 q 599 519 636 506 q 540 551 563 532 q 518 600 518 569 q 533 646 518 625 q 579 679 547 667 z "},"":{"ha":757,"x_min":28,"x_max":703,"o":"m 451 932 q 443 958 451 946 l 386 1046 q 350 1064 374 1064 q 332 1061 342 1064 q 313 1051 322 1058 q 297 1031 303 1043 q 290 1003 290 1019 q 308 967 290 979 l 396 910 q 422 901 408 901 q 440 907 429 901 q 451 932 451 913 m 210 590 q 231 631 219 611 q 263 664 243 650 q 313 686 282 678 q 393 694 343 694 q 450 688 421 694 q 503 669 479 682 q 542 638 526 657 q 557 592 557 618 q 552 551 557 569 q 526 519 547 533 q 464 495 506 506 q 349 476 422 485 q 227 454 285 469 q 125 410 169 439 q 54 335 81 381 q 28 224 28 290 q 51 124 28 165 q 113 54 75 82 q 199 13 151 26 q 294 0 247 0 q 437 19 369 0 q 557 96 504 39 l 557 74 q 578 22 557 43 q 631 0 600 0 q 682 22 661 0 q 703 74 703 43 l 703 592 q 619 758 703 701 q 393 814 535 814 q 266 801 318 814 q 178 765 214 788 q 122 715 143 743 q 89 657 101 686 q 82 626 82 639 q 106 576 82 594 q 157 558 129 558 q 187 566 172 558 q 210 590 201 574 m 557 399 l 557 300 q 537 214 557 249 q 484 158 517 179 q 411 128 451 138 q 331 119 371 119 q 278 124 304 119 q 231 141 251 129 q 197 173 210 153 q 183 224 183 193 q 201 288 183 263 q 247 328 218 313 q 313 353 276 344 q 387 367 349 361 q 460 376 425 372 q 522 389 496 381 l 557 399 z "},"":{"ha":757,"x_min":28,"x_max":703,"o":"m 332 931 q 343 906 332 911 q 361 900 354 900 q 388 908 375 900 l 475 965 q 493 1001 493 978 q 487 1030 493 1018 q 471 1049 481 1042 q 451 1060 461 1057 q 433 1063 442 1063 q 397 1044 410 1063 l 340 957 q 332 931 332 944 m 210 590 q 231 631 219 611 q 263 664 243 650 q 313 686 282 678 q 393 694 343 694 q 450 688 421 694 q 503 669 479 682 q 542 638 526 657 q 557 592 557 618 q 552 551 557 569 q 526 519 547 533 q 464 495 506 506 q 349 476 422 485 q 227 454 285 469 q 125 410 169 439 q 54 335 81 381 q 28 224 28 290 q 51 124 28 165 q 113 54 75 82 q 199 13 151 26 q 294 0 247 0 q 437 19 369 0 q 557 96 504 39 l 557 74 q 578 22 557 43 q 631 0 600 0 q 682 22 661 0 q 703 74 703 43 l 703 592 q 619 758 703 701 q 393 814 535 814 q 266 801 318 814 q 178 765 214 788 q 122 715 143 743 q 89 657 101 686 q 82 626 82 639 q 106 576 82 594 q 157 558 129 558 q 187 566 172 558 q 210 590 201 574 m 557 399 l 557 300 q 537 214 557 249 q 484 158 517 179 q 411 128 451 138 q 331 119 371 119 q 278 124 304 119 q 231 141 251 129 q 197 173 210 153 q 183 224 183 193 q 201 288 183 263 q 247 328 218 313 q 313 353 276 344 q 387 367 349 361 q 460 376 425 372 q 522 389 496 381 l 557 399 z "},"":{"ha":757,"x_min":28,"x_max":703,"o":"m 429 1058 q 403 1071 417 1071 q 375 1058 388 1071 l 275 957 q 264 931 264 943 q 280 900 264 906 q 300 894 296 894 q 326 906 315 894 l 403 982 l 478 906 q 504 894 489 894 q 531 906 522 894 q 540 932 540 917 q 531 957 540 947 l 429 1058 m 210 590 q 231 631 219 611 q 263 664 243 650 q 313 686 282 678 q 393 694 343 694 q 450 688 421 694 q 503 669 479 682 q 542 638 526 657 q 557 592 557 618 q 552 551 557 569 q 526 519 547 533 q 464 495 506 506 q 349 476 422 485 q 227 454 285 469 q 125 410 169 439 q 54 335 81 381 q 28 224 28 290 q 51 124 28 165 q 113 54 75 82 q 199 13 151 26 q 294 0 247 0 q 437 19 369 0 q 557 96 504 39 l 557 74 q 578 22 557 43 q 631 0 600 0 q 682 22 661 0 q 703 74 703 43 l 703 592 q 619 758 703 701 q 393 814 535 814 q 266 801 318 814 q 178 765 214 788 q 122 715 143 743 q 89 657 101 686 q 82 626 82 639 q 106 576 82 594 q 157 558 129 558 q 187 566 172 558 q 210 590 201 574 m 557 399 l 557 300 q 537 214 557 249 q 484 158 517 179 q 411 128 451 138 q 331 119 371 119 q 278 124 304 119 q 231 141 251 129 q 197 173 210 153 q 183 224 183 193 q 201 288 183 263 q 247 328 218 313 q 313 353 276 344 q 387 367 349 361 q 460 376 425 372 q 522 389 496 381 l 557 399 z "},"":{"ha":757,"x_min":28,"x_max":703,"o":"m 254 894 q 278 901 269 894 q 295 914 288 907 q 312 927 303 921 q 336 933 321 933 l 468 899 q 481 896 475 896 q 493 896 486 896 q 529 901 511 896 q 561 917 547 907 q 583 942 575 928 q 592 975 592 957 q 574 1016 592 999 q 532 1033 557 1033 q 508 1027 517 1033 q 490 1014 499 1021 q 473 1001 482 1007 q 449 994 464 994 l 318 1029 q 306 1032 311 1032 q 293 1032 300 1032 q 226 1010 257 1032 q 194 953 194 989 q 213 912 194 929 q 254 894 231 894 m 210 590 q 231 631 219 611 q 263 664 243 650 q 313 686 282 678 q 393 694 343 694 q 450 688 421 694 q 503 669 479 682 q 542 638 526 657 q 557 592 557 618 q 552 551 557 569 q 526 519 547 533 q 464 495 506 506 q 349 476 422 485 q 227 454 285 469 q 125 410 169 439 q 54 335 81 381 q 28 224 28 290 q 51 124 28 165 q 113 54 75 82 q 199 13 151 26 q 294 0 247 0 q 437 19 369 0 q 557 96 504 39 l 557 74 q 578 22 557 43 q 631 0 600 0 q 682 22 661 0 q 703 74 703 43 l 703 592 q 619 758 703 701 q 393 814 535 814 q 266 801 318 814 q 178 765 214 788 q 122 715 143 743 q 89 657 101 686 q 82 626 82 639 q 106 576 82 594 q 157 558 129 558 q 187 566 172 558 q 210 590 201 574 m 557 399 l 557 300 q 537 214 557 249 q 484 158 517 179 q 411 128 451 138 q 331 119 371 119 q 278 124 304 119 q 231 141 251 129 q 197 173 210 153 q 183 224 183 193 q 201 288 183 263 q 247 328 218 313 q 313 353 276 344 q 387 367 349 361 q 460 376 425 372 q 522 389 496 381 l 557 399 z "},"":{"ha":757,"x_min":28,"x_max":703,"o":"m 214 976 q 238 919 214 943 q 294 896 261 896 q 351 919 328 896 q 375 976 375 943 q 351 1033 375 1008 q 294 1057 328 1057 q 238 1033 261 1057 q 214 976 214 1008 m 411 976 q 435 919 411 943 q 492 896 458 896 q 549 919 525 896 q 572 976 572 943 q 549 1033 572 1008 q 492 1057 525 1057 q 435 1033 458 1057 q 411 976 411 1008 m 210 590 q 231 631 219 611 q 263 664 243 650 q 313 686 282 678 q 393 694 343 694 q 450 688 421 694 q 503 669 479 682 q 542 638 526 657 q 557 592 557 618 q 552 551 557 569 q 526 519 547 533 q 464 495 506 506 q 349 476 422 485 q 227 454 285 469 q 125 410 169 439 q 54 335 81 381 q 28 224 28 290 q 51 124 28 165 q 113 54 75 82 q 199 13 151 26 q 294 0 247 0 q 437 19 369 0 q 557 96 504 39 l 557 74 q 578 22 557 43 q 631 0 600 0 q 682 22 661 0 q 703 74 703 43 l 703 592 q 619 758 703 701 q 393 814 535 814 q 266 801 318 814 q 178 765 214 788 q 122 715 143 743 q 89 657 101 686 q 82 626 82 639 q 106 576 82 594 q 157 558 129 558 q 187 566 172 558 q 210 590 201 574 m 557 399 l 557 300 q 537 214 557 249 q 484 158 517 179 q 411 128 451 138 q 331 119 371 119 q 278 124 304 119 q 231 141 251 129 q 197 173 210 153 q 183 224 183 193 q 201 288 183 263 q 247 328 218 313 q 313 353 276 344 q 387 367 349 361 q 460 376 425 372 q 522 389 496 381 l 557 399 z "},"":{"ha":757,"x_min":28,"x_max":703,"o":"m 210 590 q 231 631 219 611 q 263 664 243 650 q 313 686 282 678 q 393 694 343 694 q 450 688 421 694 q 503 669 479 682 q 542 638 526 657 q 557 592 557 618 q 552 551 557 569 q 526 519 547 533 q 464 495 506 506 q 349 476 422 485 q 227 454 285 469 q 125 410 169 439 q 54 335 81 381 q 28 224 28 290 q 51 124 28 165 q 113 54 75 82 q 199 13 151 26 q 294 0 247 0 q 437 19 369 0 q 557 96 504 39 l 557 74 q 578 22 557 43 q 631 0 600 0 q 682 22 661 0 q 703 74 703 43 l 703 592 q 619 758 703 701 q 393 814 535 814 q 266 801 318 814 q 178 765 214 788 q 122 715 143 743 q 89 657 101 686 q 82 626 82 639 q 106 576 82 594 q 157 558 129 558 q 187 566 172 558 q 210 590 201 574 m 557 399 l 557 300 q 537 214 557 249 q 484 158 517 179 q 411 128 451 138 q 331 119 371 119 q 278 124 304 119 q 231 141 251 129 q 197 173 210 153 q 183 224 183 193 q 201 288 183 263 q 247 328 218 313 q 313 353 276 344 q 387 367 349 361 q 460 376 425 372 q 522 389 496 381 l 557 399 m 390 1115 q 313 1083 344 1115 q 281 1006 281 1051 q 313 928 281 960 q 390 896 344 896 q 468 928 436 896 q 500 1006 500 960 q 468 1083 500 1051 q 390 1115 436 1115 m 390 1079 q 442 1058 421 1079 q 464 1006 464 1036 q 442 953 464 975 q 390 932 421 932 q 338 953 360 932 q 317 1006 317 975 q 338 1058 317 1036 q 390 1079 360 1079 z "},"":{"ha":1319,"x_min":28,"x_max":1292,"o":"m 557 399 l 557 300 q 537 214 557 249 q 484 158 517 179 q 411 128 451 138 q 331 119 371 119 q 278 124 304 119 q 231 141 251 129 q 197 173 210 153 q 183 224 183 193 q 201 288 183 263 q 247 328 218 313 q 313 353 276 344 q 387 367 349 361 q 460 376 425 372 q 522 389 496 381 l 557 399 m 703 65 q 815 15 761 29 q 926 0 868 0 q 1074 25 1011 0 q 1176 83 1136 50 q 1236 150 1217 117 q 1256 200 1256 183 q 1235 246 1256 228 q 1189 264 1215 264 q 1160 257 1174 264 q 1135 233 1146 250 q 1096 183 1115 204 q 1053 147 1076 161 q 1000 126 1031 133 q 926 119 969 119 q 813 149 857 119 q 745 219 769 179 q 712 298 721 258 q 703 358 703 338 l 1210 358 q 1267 385 1243 358 q 1292 463 1292 411 q 1263 611 1292 546 q 1183 722 1233 676 q 1063 790 1132 767 q 915 814 994 814 q 784 792 846 814 q 664 717 722 769 q 564 786 631 758 q 393 814 497 814 q 232 790 293 814 q 138 733 171 765 q 93 669 104 700 q 82 626 82 639 q 106 576 82 594 q 157 558 129 558 q 187 566 172 558 q 210 590 201 574 q 231 631 219 611 q 263 664 243 650 q 313 686 282 678 q 393 694 343 694 q 450 688 421 694 q 503 669 479 682 q 542 638 526 657 q 557 592 557 618 q 552 551 557 569 q 526 519 547 533 q 464 495 506 506 q 349 476 422 485 q 227 454 285 469 q 125 410 169 439 q 54 335 81 381 q 28 224 28 290 q 51 124 28 165 q 113 54 75 82 q 199 13 151 26 q 294 0 247 0 q 437 19 369 0 q 557 96 504 39 l 557 74 q 578 22 557 43 q 631 0 600 0 q 679 19 658 0 q 703 65 700 39 m 918 694 q 1022 676 978 694 q 1095 628 1067 658 q 1138 560 1124 599 q 1151 478 1151 521 l 701 478 q 703 498 701 481 q 711 539 704 515 q 732 590 718 563 q 770 641 746 618 q 831 679 794 664 q 918 694 867 694 z "},"":{"ha":764,"x_min":28,"x_max":736,"o":"m 447 -8 q 586 25 531 -3 q 674 87 642 53 q 721 153 707 121 q 735 203 735 186 q 712 252 735 235 q 663 269 689 269 q 626 260 643 269 q 603 226 610 250 q 580 183 596 204 q 540 146 564 163 q 483 119 515 129 q 411 110 450 110 q 326 126 368 110 q 249 176 283 142 q 194 267 215 211 q 174 401 174 322 q 194 537 174 481 q 249 628 215 593 q 326 678 283 663 q 411 694 368 694 q 483 685 450 694 q 540 658 515 675 q 580 621 564 642 q 603 578 596 600 q 626 544 610 554 q 663 535 643 535 q 713 552 690 535 q 736 600 736 569 q 721 649 736 614 q 669 721 706 685 q 569 785 632 757 q 411 814 507 814 q 259 784 329 814 q 138 700 189 754 q 57 570 86 646 q 28 401 28 494 q 56 236 28 310 q 131 110 83 163 q 242 27 179 57 q 375 -7 304 -3 l 375 -54 q 368 -78 375 -64 q 338 -92 361 -92 l 283 -92 q 258 -102 268 -92 q 247 -128 247 -112 q 258 -153 247 -143 q 283 -164 268 -164 l 338 -164 q 419 -135 392 -164 q 447 -54 447 -106 l 447 -8 z "},"":{"ha":808,"x_min":28,"x_max":781,"o":"m 447 929 q 439 956 447 943 l 382 1043 q 346 1061 369 1061 q 328 1058 338 1061 q 308 1048 318 1056 q 292 1028 299 1040 q 286 1000 286 1017 q 304 964 286 976 l 392 907 q 418 899 404 899 q 436 904 425 899 q 447 929 447 910 m 697 358 q 756 385 731 358 q 781 463 781 411 q 751 611 781 546 q 672 722 722 676 q 552 790 621 767 q 404 814 483 814 q 249 781 318 814 q 130 693 179 749 q 54 562 81 638 q 28 401 28 486 q 53 244 28 319 q 128 113 79 169 q 250 24 178 57 q 414 -10 322 -10 q 567 15 504 -10 q 669 74 629 40 q 726 140 708 107 q 744 190 744 174 q 724 236 744 218 q 678 254 703 254 q 649 247 663 254 q 624 224 635 240 q 585 173 604 194 q 542 138 565 151 q 488 117 518 124 q 414 110 457 110 q 324 127 361 110 q 263 171 288 144 q 223 228 238 197 q 201 288 208 260 q 191 335 193 315 q 189 358 189 356 l 697 358 m 407 694 q 511 676 467 694 q 584 628 556 658 q 626 560 613 599 q 640 478 640 521 l 190 478 q 192 498 190 481 q 200 539 193 515 q 221 590 207 563 q 259 641 235 618 q 319 679 283 664 q 407 694 356 694 z "},"":{"ha":808,"x_min":28,"x_max":781,"o":"m 361 929 q 372 904 361 910 q 390 899 383 899 q 417 907 404 899 l 504 964 q 522 1000 522 976 q 516 1028 522 1017 q 500 1048 510 1040 q 481 1058 490 1056 q 463 1061 471 1061 q 426 1043 439 1061 l 369 956 q 361 929 361 943 m 697 358 q 756 385 731 358 q 781 463 781 411 q 751 611 781 546 q 672 722 722 676 q 552 790 621 767 q 404 814 483 814 q 249 781 318 814 q 130 693 179 749 q 54 562 81 638 q 28 401 28 486 q 53 244 28 319 q 128 113 79 169 q 250 24 178 57 q 414 -10 322 -10 q 567 15 504 -10 q 669 74 629 40 q 726 140 708 107 q 744 190 744 174 q 724 236 744 218 q 678 254 703 254 q 649 247 663 254 q 624 224 635 240 q 585 173 604 194 q 542 138 565 151 q 488 117 518 124 q 414 110 457 110 q 324 127 361 110 q 263 171 288 144 q 223 228 238 197 q 201 288 208 260 q 191 335 193 315 q 189 358 189 356 l 697 358 m 407 694 q 511 676 467 694 q 584 628 556 658 q 626 560 613 599 q 640 478 640 521 l 190 478 q 192 498 190 481 q 200 539 193 515 q 221 590 207 563 q 259 641 235 618 q 319 679 283 664 q 407 694 356 694 z "},"":{"ha":808,"x_min":28,"x_max":781,"o":"m 432 1058 q 406 1071 419 1071 q 378 1058 390 1071 l 278 957 q 267 931 267 943 q 283 900 267 906 q 303 894 299 894 q 329 906 318 894 l 406 982 l 481 906 q 507 894 492 894 q 534 906 525 894 q 543 932 543 917 q 533 957 543 947 l 432 1058 m 697 358 q 756 385 731 358 q 781 463 781 411 q 751 611 781 546 q 672 722 722 676 q 552 790 621 767 q 404 814 483 814 q 249 781 318 814 q 130 693 179 749 q 54 562 81 638 q 28 401 28 486 q 53 244 28 319 q 128 113 79 169 q 250 24 178 57 q 414 -10 322 -10 q 567 15 504 -10 q 669 74 629 40 q 726 140 708 107 q 744 190 744 174 q 724 236 744 218 q 678 254 703 254 q 649 247 663 254 q 624 224 635 240 q 585 173 604 194 q 542 138 565 151 q 488 117 518 124 q 414 110 457 110 q 324 127 361 110 q 263 171 288 144 q 223 228 238 197 q 201 288 208 260 q 191 335 193 315 q 189 358 189 356 l 697 358 m 407 694 q 511 676 467 694 q 584 628 556 658 q 626 560 613 599 q 640 478 640 521 l 190 478 q 192 498 190 481 q 200 539 193 515 q 221 590 207 563 q 259 641 235 618 q 319 679 283 664 q 407 694 356 694 z "},"":{"ha":808,"x_min":28,"x_max":781,"o":"m 232 976 q 256 919 232 943 q 313 896 279 896 q 369 919 346 896 q 393 976 393 943 q 369 1033 393 1008 q 313 1057 346 1057 q 256 1033 279 1057 q 232 976 232 1008 m 429 976 q 453 919 429 943 q 510 896 476 896 q 567 919 543 896 q 590 976 590 943 q 567 1033 590 1008 q 510 1057 543 1057 q 453 1033 476 1057 q 429 976 429 1008 m 697 358 q 756 385 731 358 q 781 463 781 411 q 751 611 781 546 q 672 722 722 676 q 552 790 621 767 q 404 814 483 814 q 249 781 318 814 q 130 693 179 749 q 54 562 81 638 q 28 401 28 486 q 53 244 28 319 q 128 113 79 169 q 250 24 178 57 q 414 -10 322 -10 q 567 15 504 -10 q 669 74 629 40 q 726 140 708 107 q 744 190 744 174 q 724 236 744 218 q 678 254 703 254 q 649 247 663 254 q 624 224 635 240 q 585 173 604 194 q 542 138 565 151 q 488 117 518 124 q 414 110 457 110 q 324 127 361 110 q 263 171 288 144 q 223 228 238 197 q 201 288 208 260 q 191 335 193 315 q 189 358 189 356 l 697 358 m 407 694 q 511 676 467 694 q 584 628 556 658 q 626 560 613 599 q 640 478 640 521 l 190 478 q 192 498 190 481 q 200 539 193 515 q 221 590 207 563 q 259 641 235 618 q 319 679 283 664 q 407 694 356 694 z "},"":{"ha":256,"x_min":3,"x_max":201,"o":"m 201 731 q 180 783 201 761 q 128 804 158 804 q 76 783 97 804 q 54 731 54 761 l 54 74 q 76 22 54 43 q 128 0 97 0 q 180 22 158 0 q 201 74 201 43 l 201 731 m 164 929 q 156 956 164 943 l 99 1043 q 63 1061 86 1061 q 44 1058 54 1061 q 25 1048 35 1056 q 9 1028 15 1040 q 3 1000 3 1017 q 21 964 3 976 l 108 907 q 135 899 121 899 q 153 904 142 899 q 164 929 164 910 z "},"":{"ha":256,"x_min":54,"x_max":253,"o":"m 201 731 q 180 783 201 761 q 128 804 158 804 q 76 783 97 804 q 54 731 54 761 l 54 74 q 76 22 54 43 q 128 0 97 0 q 180 22 158 0 q 201 74 201 43 l 201 731 m 92 929 q 103 904 92 910 q 121 899 114 899 q 147 907 135 899 l 235 964 q 253 1000 253 976 q 247 1028 253 1017 q 231 1048 240 1040 q 211 1058 221 1056 q 193 1061 201 1061 q 157 1043 169 1061 l 100 956 q 92 929 92 943 z "},"":{"ha":257,"x_min":-11,"x_max":265,"o":"m 203 731 q 181 783 203 761 q 129 804 160 804 q 77 783 99 804 q 56 731 56 761 l 56 74 q 77 22 56 43 q 129 0 99 0 q 181 22 160 0 q 203 74 203 43 l 203 731 m 154 1058 q 128 1071 142 1071 q 100 1058 113 1071 l 0 957 q -11 931 -11 943 q 5 900 -11 906 q 25 894 21 894 q 51 906 40 894 l 128 982 l 203 906 q 229 894 214 894 q 256 906 247 894 q 265 932 265 917 q 256 957 265 947 l 154 1058 z "},"":{"ha":256,"x_min":-51,"x_max":307,"o":"m -51 976 q -28 919 -51 943 q 29 896 -4 896 q 86 919 63 896 q 110 976 110 943 q 86 1033 110 1008 q 29 1057 63 1057 q -28 1033 -4 1057 q -51 976 -51 1008 m 146 976 q 169 919 146 943 q 226 896 193 896 q 283 919 260 896 q 307 976 307 943 q 283 1033 307 1008 q 226 1057 260 1057 q 169 1033 193 1057 q 146 976 146 1008 m 201 731 q 180 783 201 761 q 128 804 158 804 q 76 783 97 804 q 54 731 54 761 l 54 74 q 76 22 54 43 q 128 0 97 0 q 180 22 158 0 q 201 74 201 43 l 201 731 z "},"":{"ha":835,"x_min":28,"x_max":807,"o":"m 807 401 q 784 638 807 536 q 722 815 761 740 q 631 940 683 890 q 518 1022 578 990 l 601 1106 l 515 1106 l 460 1050 q 266 1097 364 1088 q 88 1106 168 1106 q 45 1088 63 1106 q 28 1046 28 1071 q 45 1003 28 1021 q 88 986 63 986 q 222 982 149 986 q 365 954 294 978 l 288 876 l 372 876 l 424 928 q 506 871 468 906 q 575 786 544 836 q 424 814 504 814 q 272 786 342 814 q 150 706 201 758 q 69 576 99 653 q 40 401 40 500 q 69 226 40 303 q 150 98 99 150 q 272 18 201 46 q 424 -10 342 -10 q 576 18 506 -10 q 697 98 646 46 q 778 226 749 150 q 807 401 807 303 m 661 401 q 643 270 661 325 q 594 180 625 215 q 519 127 563 144 q 424 110 475 110 q 328 127 372 110 q 253 180 285 144 q 204 270 222 215 q 186 401 186 325 q 204 533 186 478 q 253 624 222 589 q 328 677 285 660 q 424 694 372 694 q 519 677 475 694 q 594 624 563 660 q 643 533 625 589 q 661 401 661 478 z "},"":{"ha":760,"x_min":54,"x_max":706,"o":"m 257 894 q 281 901 272 894 q 298 914 290 907 q 315 927 306 921 q 339 933 324 933 l 471 899 q 483 896 478 896 q 496 896 489 896 q 532 901 514 896 q 564 917 550 907 q 586 942 578 928 q 594 975 594 957 q 577 1016 594 999 q 535 1033 560 1033 q 510 1027 519 1033 q 493 1014 501 1021 q 476 1001 485 1007 q 451 994 467 994 l 321 1029 q 308 1032 314 1032 q 296 1032 303 1032 q 228 1010 260 1032 q 197 953 197 989 q 215 912 197 929 q 257 894 233 894 m 439 804 q 351 794 389 804 q 283 768 313 783 q 234 735 254 753 q 200 706 214 718 l 200 731 q 179 783 200 761 q 128 804 158 804 q 76 783 97 804 q 54 731 54 761 l 54 74 q 76 22 54 43 q 128 0 97 0 q 179 22 158 0 q 200 74 200 43 l 200 476 q 214 559 200 521 q 253 625 228 597 q 317 669 279 653 q 400 685 354 685 q 456 676 428 685 q 508 652 485 668 q 545 612 531 636 q 560 557 560 588 l 560 74 q 581 22 560 43 q 632 0 601 0 q 684 22 663 0 q 706 74 706 43 l 706 574 q 683 674 706 631 q 624 746 661 717 q 538 790 586 775 q 439 804 490 804 z "},"":{"ha":822,"x_min":28,"x_max":794,"o":"m 444 929 q 436 956 444 943 l 379 1043 q 343 1061 367 1061 q 325 1058 335 1061 q 306 1048 315 1056 q 290 1028 296 1040 q 283 1000 283 1017 q 301 964 283 976 l 389 907 q 415 899 401 899 q 433 904 422 899 q 444 929 444 910 m 411 -10 q 563 18 493 -10 q 685 98 633 46 q 765 226 736 150 q 794 401 794 303 q 765 576 794 500 q 685 706 736 653 q 563 786 633 758 q 411 814 493 814 q 259 786 329 814 q 138 706 189 758 q 57 576 86 653 q 28 401 28 500 q 57 226 28 303 q 138 98 86 150 q 259 18 189 46 q 411 -10 329 -10 m 649 401 q 631 270 649 325 q 581 180 613 215 q 506 127 550 144 q 411 110 463 110 q 316 127 360 110 q 241 180 272 144 q 192 270 210 215 q 174 401 174 325 q 192 533 174 478 q 241 624 210 589 q 316 677 272 660 q 411 694 360 694 q 506 677 463 694 q 581 624 550 660 q 631 533 613 589 q 649 401 649 478 z "},"":{"ha":822,"x_min":28,"x_max":794,"o":"m 374 926 q 385 901 374 907 q 403 896 396 896 q 429 904 417 896 l 517 961 q 535 997 535 974 q 528 1026 535 1014 q 513 1045 522 1038 q 493 1056 503 1053 q 475 1058 483 1058 q 439 1040 451 1058 l 382 953 q 374 926 374 940 m 411 -10 q 563 18 493 -10 q 685 98 633 46 q 765 226 736 150 q 794 401 794 303 q 765 576 794 500 q 685 706 736 653 q 563 786 633 758 q 411 814 493 814 q 259 786 329 814 q 138 706 189 758 q 57 576 86 653 q 28 401 28 500 q 57 226 28 303 q 138 98 86 150 q 259 18 189 46 q 411 -10 329 -10 m 649 401 q 631 270 649 325 q 581 180 613 215 q 506 127 550 144 q 411 110 463 110 q 316 127 360 110 q 241 180 272 144 q 192 270 210 215 q 174 401 174 325 q 192 533 174 478 q 241 624 210 589 q 316 677 272 660 q 411 694 360 694 q 506 677 463 694 q 581 624 550 660 q 631 533 613 589 q 649 401 649 478 z "},"":{"ha":822,"x_min":28,"x_max":794,"o":"m 439 1058 q 413 1071 426 1071 q 385 1058 397 1071 l 285 957 q 274 931 274 943 q 290 900 274 906 q 310 894 306 894 q 336 906 325 894 l 413 982 l 488 906 q 514 894 499 894 q 541 906 532 894 q 550 932 550 917 q 540 957 550 947 l 439 1058 m 411 -10 q 563 18 493 -10 q 685 98 633 46 q 765 226 736 150 q 794 401 794 303 q 765 576 794 500 q 685 706 736 653 q 563 786 633 758 q 411 814 493 814 q 259 786 329 814 q 138 706 189 758 q 57 576 86 653 q 28 401 28 500 q 57 226 28 303 q 138 98 86 150 q 259 18 189 46 q 411 -10 329 -10 m 649 401 q 631 270 649 325 q 581 180 613 215 q 506 127 550 144 q 411 110 463 110 q 316 127 360 110 q 241 180 272 144 q 192 270 210 215 q 174 401 174 325 q 192 533 174 478 q 241 624 210 589 q 316 677 272 660 q 411 694 360 694 q 506 677 463 694 q 581 624 550 660 q 631 533 613 589 q 649 401 649 478 z "},"":{"ha":822,"x_min":28,"x_max":794,"o":"m 269 894 q 292 901 283 894 q 308 915 301 907 q 322 928 315 922 q 340 935 329 935 q 351 933 347 935 l 482 899 q 506 896 496 896 q 542 901 524 896 q 574 917 560 907 q 597 942 588 928 q 606 975 606 957 q 588 1016 606 999 q 547 1033 571 1033 q 524 1027 532 1033 q 508 1013 515 1021 q 493 999 500 1006 q 475 993 486 993 q 464 994 468 993 l 332 1029 q 319 1032 325 1032 q 307 1032 314 1032 q 240 1010 271 1032 q 210 953 210 989 q 228 912 210 929 q 269 894 246 894 m 411 -10 q 563 18 493 -10 q 685 98 633 46 q 765 226 736 150 q 794 401 794 303 q 765 576 794 500 q 685 706 736 653 q 563 786 633 758 q 411 814 493 814 q 259 786 329 814 q 138 706 189 758 q 57 576 86 653 q 28 401 28 500 q 57 226 28 303 q 138 98 86 150 q 259 18 189 46 q 411 -10 329 -10 m 649 401 q 631 270 649 325 q 581 180 613 215 q 506 127 550 144 q 411 110 463 110 q 316 127 360 110 q 241 180 272 144 q 192 270 210 215 q 174 401 174 325 q 192 533 174 478 q 241 624 210 589 q 316 677 272 660 q 411 694 360 694 q 506 677 463 694 q 581 624 550 660 q 631 533 613 589 q 649 401 649 478 z "},"":{"ha":822,"x_min":28,"x_max":794,"o":"m 233 976 q 257 919 233 943 q 314 896 281 896 q 371 919 347 896 q 394 976 394 943 q 371 1033 394 1008 q 314 1057 347 1057 q 257 1033 281 1057 q 233 976 233 1008 m 432 976 q 456 919 432 943 q 511 896 479 896 q 568 919 544 896 q 592 976 592 943 q 568 1033 592 1008 q 511 1057 544 1057 q 456 1033 479 1057 q 432 976 432 1008 m 411 -10 q 563 18 493 -10 q 685 98 633 46 q 765 226 736 150 q 794 401 794 303 q 765 576 794 500 q 685 706 736 653 q 563 786 633 758 q 411 814 493 814 q 259 786 329 814 q 138 706 189 758 q 57 576 86 653 q 28 401 28 500 q 57 226 28 303 q 138 98 86 150 q 259 18 189 46 q 411 -10 329 -10 m 649 401 q 631 270 649 325 q 581 180 613 215 q 506 127 550 144 q 411 110 463 110 q 316 127 360 110 q 241 180 272 144 q 192 270 210 215 q 174 401 174 325 q 192 533 174 478 q 241 624 210 589 q 316 677 272 660 q 411 694 360 694 q 506 677 463 694 q 581 624 550 660 q 631 533 613 589 q 649 401 649 478 z "},"":{"ha":831,"x_min":28,"x_max":803,"o":"m 178 401 q 196 533 178 478 q 245 624 214 589 q 320 677 276 660 q 415 694 364 694 q 501 681 464 694 q 575 636 538 668 l 204 247 q 190 291 196 268 q 182 335 185 314 q 178 374 179 357 q 178 401 178 392 m 415 -10 q 567 18 497 -10 q 689 98 638 46 q 769 226 740 150 q 799 401 799 303 q 784 528 799 463 q 725 661 769 594 l 790 728 q 803 760 803 742 q 787 794 803 782 q 756 806 771 806 q 724 792 738 806 l 664 729 q 541 795 603 776 q 415 814 479 814 q 263 786 333 814 q 142 706 193 758 q 61 576 90 653 q 32 401 32 500 q 47 274 32 339 q 106 143 61 208 l 42 75 q 28 43 28 61 q 42 11 28 24 q 75 -1 57 -1 q 107 13 94 -1 l 167 75 q 290 9 228 28 q 415 -10 353 -10 m 256 168 l 626 557 q 649 474 644 515 q 653 401 653 432 q 635 270 653 325 q 585 180 617 215 q 510 127 554 144 q 415 110 467 110 q 329 123 365 110 q 256 168 293 136 z "},"":{"ha":760,"x_min":54,"x_max":706,"o":"m 417 929 q 408 956 417 943 l 351 1043 q 315 1061 339 1061 q 297 1058 307 1061 q 278 1048 288 1056 q 262 1028 268 1040 q 256 1000 256 1017 q 274 964 256 976 l 361 907 q 388 899 374 899 q 406 904 394 899 q 417 929 417 910 m 321 0 q 409 10 371 0 q 476 36 447 21 q 526 69 506 51 q 560 99 546 86 l 560 74 q 581 22 560 43 q 632 0 601 0 q 684 22 663 0 q 706 74 706 43 l 706 731 q 684 783 706 761 q 632 804 663 804 q 581 783 601 804 q 560 731 560 761 l 560 328 q 546 245 560 283 q 506 179 532 207 q 443 135 481 151 q 360 119 406 119 q 303 128 332 119 q 252 152 275 136 q 215 192 229 168 q 200 247 200 215 l 200 731 q 179 783 200 761 q 128 804 158 804 q 76 783 97 804 q 54 731 54 761 l 54 231 q 76 131 54 174 q 136 58 99 88 q 222 15 174 29 q 321 0 269 0 z "},"":{"ha":760,"x_min":54,"x_max":706,"o":"m 333 928 q 344 903 333 908 q 363 897 356 897 q 389 906 376 897 l 476 963 q 494 999 494 975 q 488 1027 494 1015 q 472 1047 482 1039 q 453 1057 463 1054 q 435 1060 443 1060 q 399 1042 411 1060 l 342 954 q 333 928 333 942 m 321 0 q 409 10 371 0 q 476 36 447 21 q 526 69 506 51 q 560 99 546 86 l 560 74 q 581 22 560 43 q 632 0 601 0 q 684 22 663 0 q 706 74 706 43 l 706 731 q 684 783 706 761 q 632 804 663 804 q 581 783 601 804 q 560 731 560 761 l 560 328 q 546 245 560 283 q 506 179 532 207 q 443 135 481 151 q 360 119 406 119 q 303 128 332 119 q 252 152 275 136 q 215 192 229 168 q 200 247 200 215 l 200 731 q 179 783 200 761 q 128 804 158 804 q 76 783 97 804 q 54 731 54 761 l 54 231 q 76 131 54 174 q 136 58 99 88 q 222 15 174 29 q 321 0 269 0 z "},"":{"ha":760,"x_min":54,"x_max":706,"o":"m 408 1058 q 382 1071 396 1071 q 354 1058 367 1071 l 254 957 q 243 931 243 943 q 259 900 243 906 q 279 894 275 894 q 306 906 294 894 l 382 982 l 457 906 q 483 894 468 894 q 510 906 501 894 q 519 932 519 917 q 510 957 519 947 l 408 1058 m 321 0 q 409 10 371 0 q 476 36 447 21 q 526 69 506 51 q 560 99 546 86 l 560 74 q 581 22 560 43 q 632 0 601 0 q 684 22 663 0 q 706 74 706 43 l 706 731 q 684 783 706 761 q 632 804 663 804 q 581 783 601 804 q 560 731 560 761 l 560 328 q 546 245 560 283 q 506 179 532 207 q 443 135 481 151 q 360 119 406 119 q 303 128 332 119 q 252 152 275 136 q 215 192 229 168 q 200 247 200 215 l 200 731 q 179 783 200 761 q 128 804 158 804 q 76 783 97 804 q 54 731 54 761 l 54 231 q 76 131 54 174 q 136 58 99 88 q 222 15 174 29 q 321 0 269 0 z "},"":{"ha":760,"x_min":54,"x_max":706,"o":"m 201 976 q 225 919 201 943 q 282 896 249 896 q 338 919 314 896 q 363 976 363 943 q 338 1033 363 1008 q 282 1057 314 1057 q 225 1033 249 1057 q 201 976 201 1008 m 399 976 q 422 919 399 943 q 479 896 446 896 q 536 919 513 896 q 560 976 560 943 q 536 1033 560 1008 q 479 1057 513 1057 q 422 1033 446 1057 q 399 976 399 1008 m 321 0 q 409 10 371 0 q 476 36 447 21 q 526 69 506 51 q 560 99 546 86 l 560 74 q 581 22 560 43 q 632 0 601 0 q 684 22 663 0 q 706 74 706 43 l 706 731 q 684 783 706 761 q 632 804 663 804 q 581 783 601 804 q 560 731 560 761 l 560 328 q 546 245 560 283 q 506 179 532 207 q 443 135 481 151 q 360 119 406 119 q 303 128 332 119 q 252 152 275 136 q 215 192 229 168 q 200 247 200 215 l 200 731 q 179 783 200 761 q 128 804 158 804 q 76 783 97 804 q 54 731 54 761 l 54 231 q 76 131 54 174 q 136 58 99 88 q 222 15 174 29 q 321 0 269 0 z "},"":{"ha":781,"x_min":18,"x_max":763,"o":"m 310 -85 q 288 -127 300 -112 q 261 -148 275 -142 q 233 -156 247 -154 q 206 -157 218 -157 l 163 -157 q 116 -176 135 -157 q 97 -224 97 -196 q 116 -270 97 -251 q 163 -289 135 -289 l 229 -289 q 316 -274 281 -289 q 374 -235 351 -258 q 412 -181 397 -211 q 438 -124 426 -151 l 757 699 q 761 713 760 706 q 763 726 763 719 q 739 785 763 767 q 690 804 715 804 q 645 788 665 804 q 615 747 625 772 l 404 174 l 163 754 q 133 791 153 778 q 89 804 113 804 q 56 797 69 804 q 35 778 43 789 q 22 753 26 767 q 18 729 18 740 q 25 699 18 715 l 344 13 l 310 -85 m 438 907 l 547 978 q 564 997 558 985 q 569 1024 569 1010 q 565 1048 569 1035 q 551 1072 561 1061 q 528 1091 542 1083 q 493 1099 514 1099 q 449 1076 463 1099 l 378 967 q 367 935 367 951 q 374 910 367 924 q 404 896 382 896 q 438 907 422 896 z "},"":{"ha":804,"x_min":64,"x_max":776,"o":"m 210 1022 q 189 1074 210 1053 q 138 1096 168 1096 q 85 1074 107 1096 q 64 1022 64 1053 l 64 -219 q 85 -272 64 -250 q 138 -293 107 -293 q 189 -272 168 -293 q 210 -219 210 -250 l 210 106 q 247 70 226 89 q 294 36 267 51 q 358 10 321 21 q 444 0 394 0 q 581 29 519 0 q 685 112 642 58 q 753 239 729 165 q 776 401 776 313 q 750 565 776 490 q 678 692 724 639 q 573 775 633 746 q 444 804 513 804 q 371 800 403 804 q 313 785 339 796 q 262 758 286 775 q 210 718 238 742 l 210 1022 m 421 119 q 327 143 368 119 q 258 206 286 167 q 216 296 231 244 q 201 401 201 347 q 216 508 201 457 q 258 598 231 558 q 327 661 286 638 q 421 685 368 685 q 513 661 472 685 q 583 598 554 638 q 626 508 611 558 q 640 401 640 457 q 626 296 640 347 q 583 206 611 244 q 513 143 554 167 q 421 119 472 119 z "},"":{"ha":781,"x_min":18,"x_max":763,"o":"m 224 976 q 247 919 224 943 q 303 896 271 896 q 360 919 336 896 q 383 976 383 943 q 360 1033 383 1008 q 303 1057 336 1057 q 247 1033 271 1057 q 224 976 224 1008 m 421 976 q 444 919 421 943 q 501 896 468 896 q 557 919 533 896 q 581 976 581 943 q 557 1033 581 1008 q 501 1057 533 1057 q 444 1033 468 1057 q 421 976 421 1008 m 310 -85 q 288 -127 300 -112 q 261 -148 275 -142 q 233 -156 247 -154 q 206 -157 218 -157 l 163 -157 q 116 -176 135 -157 q 97 -224 97 -196 q 116 -270 97 -251 q 163 -289 135 -289 l 229 -289 q 316 -274 281 -289 q 374 -235 351 -258 q 412 -181 397 -211 q 438 -124 426 -151 l 757 699 q 761 713 760 706 q 763 726 763 719 q 739 785 763 767 q 690 804 715 804 q 645 788 665 804 q 615 747 625 772 l 404 174 l 163 754 q 133 791 153 778 q 89 804 113 804 q 56 797 69 804 q 35 778 43 789 q 22 753 26 767 q 18 729 18 740 q 25 699 18 715 l 344 13 l 310 -85 z "},"":{"ha":622,"x_min":28,"x_max":594,"o":"m 531 485 q 576 503 557 485 q 594 549 594 521 q 576 594 594 575 q 531 613 557 613 l 92 613 q 47 594 65 613 q 28 549 28 575 q 47 503 28 521 q 92 485 65 485 l 531 485 z "},"":{"ha":1260,"x_min":28,"x_max":1232,"o":"m 121 996 q 92 976 108 983 q 61 963 75 969 q 38 947 47 956 q 28 921 28 938 q 40 892 28 903 q 69 881 53 881 l 163 881 l 163 381 q 178 341 163 357 q 218 325 194 325 q 256 341 240 325 q 272 381 272 357 l 272 1042 q 256 1081 272 1065 q 218 1096 240 1096 q 186 1086 197 1096 q 165 1062 175 1076 q 147 1030 156 1047 q 121 996 138 1013 m 160 40 q 154 15 154 29 q 170 -24 154 -8 q 210 -40 186 -40 q 238 -32 225 -40 q 257 -11 250 -24 l 822 1065 q 829 1092 829 1079 q 813 1131 829 1115 q 774 1147 797 1147 q 744 1139 757 1147 q 724 1117 731 1131 l 160 40 m 940 689 q 999 680 971 689 q 1048 655 1026 671 q 1082 617 1069 639 q 1094 571 1094 596 q 1053 480 1094 510 q 913 450 1013 450 q 883 436 893 450 q 874 407 874 422 q 883 378 874 392 q 913 364 893 364 q 1065 330 1013 364 q 1117 210 1117 296 q 1102 148 1117 174 q 1063 104 1088 122 q 1008 78 1039 86 q 944 69 976 69 q 814 110 865 69 q 751 215 763 151 q 732 247 747 236 q 700 258 717 258 q 667 245 682 258 q 651 206 651 232 q 671 131 651 171 q 728 58 690 92 q 823 3 767 25 q 953 -19 879 -19 q 1056 -6 1006 -19 q 1145 37 1106 8 q 1208 109 1185 65 q 1232 211 1232 153 q 1217 300 1232 264 q 1178 359 1201 336 q 1128 394 1156 382 q 1079 410 1101 406 q 1137 439 1114 421 q 1173 478 1160 457 q 1192 524 1186 500 q 1197 572 1197 549 q 1179 656 1197 618 q 1127 722 1161 694 q 1046 764 1093 749 q 940 779 999 779 q 812 756 864 779 q 728 701 760 733 q 684 636 697 669 q 671 583 671 603 q 685 540 671 554 q 722 525 700 525 q 751 535 738 525 q 768 564 764 544 q 831 662 786 635 q 940 689 875 689 z "},"":{"ha":1131,"x_min":28,"x_max":1103,"o":"m 121 996 q 92 976 108 983 q 61 963 75 969 q 38 947 47 956 q 28 921 28 938 q 40 892 28 903 q 69 881 53 881 l 163 881 l 163 381 q 178 341 163 357 q 218 325 194 325 q 256 341 240 325 q 272 381 272 357 l 272 1042 q 256 1081 272 1065 q 218 1096 240 1096 q 186 1086 197 1096 q 165 1062 175 1076 q 147 1030 156 1047 q 121 996 138 1013 m 160 40 q 154 15 154 29 q 170 -24 154 -8 q 210 -40 186 -40 q 238 -32 225 -40 q 257 -11 250 -24 l 822 1065 q 829 1092 829 1079 q 813 1131 829 1115 q 774 1147 797 1147 q 744 1139 757 1147 q 724 1117 731 1131 l 160 40 m 521 261 q 543 208 521 229 q 597 186 565 186 l 869 186 l 869 56 q 885 16 869 32 q 924 0 901 0 q 963 16 947 0 q 979 56 979 32 l 979 186 l 1054 186 q 1088 199 1074 186 q 1103 233 1103 213 q 1088 267 1103 253 q 1054 281 1074 281 l 979 281 l 979 713 q 963 753 979 736 q 921 769 946 769 q 895 763 907 769 q 878 749 883 757 l 536 306 q 521 261 521 285 m 869 589 l 869 281 l 638 281 l 869 589 z "},"":{"ha":1574,"x_min":28,"x_max":1546,"o":"m 474 40 q 468 15 468 29 q 484 -24 468 -8 q 524 -40 500 -40 q 551 -32 539 -40 q 571 -11 564 -24 l 1136 1065 q 1143 1092 1143 1079 q 1127 1131 1143 1115 q 1088 1147 1111 1147 q 1058 1139 1071 1147 q 1038 1117 1044 1131 l 474 40 m 1254 689 q 1313 680 1285 689 q 1362 655 1340 671 q 1396 617 1383 639 q 1408 571 1408 596 q 1367 480 1408 510 q 1226 450 1326 450 q 1197 436 1207 450 q 1188 407 1188 422 q 1197 378 1188 392 q 1226 364 1207 364 q 1378 330 1326 364 q 1431 210 1431 296 q 1416 148 1431 174 q 1377 104 1401 122 q 1322 78 1353 86 q 1258 69 1290 69 q 1128 110 1179 69 q 1065 215 1076 151 q 1046 247 1061 236 q 1014 258 1031 258 q 981 245 996 258 q 965 206 965 232 q 985 131 965 171 q 1042 58 1004 92 q 1137 3 1081 25 q 1267 -19 1193 -19 q 1369 -6 1319 -19 q 1459 37 1419 8 q 1522 109 1499 65 q 1546 211 1546 153 q 1531 300 1546 264 q 1492 359 1515 336 q 1442 394 1469 382 q 1393 410 1415 406 q 1451 439 1428 421 q 1487 478 1474 457 q 1506 524 1500 500 q 1511 572 1511 549 q 1493 656 1511 618 q 1441 722 1475 694 q 1360 764 1407 749 q 1254 779 1313 779 q 1126 756 1178 779 q 1042 701 1074 733 q 998 636 1011 669 q 985 583 985 603 q 999 540 985 554 q 1036 525 1014 525 q 1065 535 1051 525 q 1082 564 1078 544 q 1144 662 1100 635 q 1254 689 1189 689 m 44 886 q 62 836 44 853 q 99 819 79 819 q 137 837 119 819 q 154 886 154 854 q 168 943 154 918 q 205 985 182 968 q 258 1010 228 1001 q 318 1019 288 1019 q 378 1012 349 1019 q 430 987 407 1004 q 466 942 453 969 q 479 876 479 915 q 458 805 479 836 q 399 746 436 774 q 316 691 363 718 q 219 632 269 664 q 153 582 188 611 q 92 522 119 553 q 46 458 64 490 q 28 400 28 426 q 47 351 28 371 q 96 331 67 331 l 514 331 q 548 344 533 331 q 563 378 563 358 q 548 412 563 397 q 514 426 533 426 l 171 426 q 164 435 164 426 q 193 490 164 451 q 275 560 222 528 q 397 631 339 601 q 497 693 454 661 q 564 766 539 725 q 589 869 589 807 q 569 969 589 924 q 512 1047 549 1014 q 426 1097 475 1079 q 318 1115 376 1115 q 219 1099 268 1115 q 132 1052 171 1082 q 69 980 93 1022 q 44 886 44 938 z "},"":{"ha":1440,"x_min":28,"x_max":1413,"o":"m 469 40 q 464 15 464 29 q 480 -24 464 -8 q 519 -40 496 -40 q 547 -32 535 -40 q 567 -11 560 -24 l 1132 1065 q 1139 1092 1139 1079 q 1123 1131 1139 1115 q 1083 1147 1107 1147 q 1053 1139 1067 1147 q 1033 1117 1040 1131 l 469 40 m 831 261 q 853 208 831 229 q 907 186 875 186 l 1179 186 l 1179 56 q 1195 16 1179 32 q 1233 0 1211 0 q 1273 16 1257 0 q 1289 56 1289 32 l 1289 186 l 1364 186 q 1398 199 1383 186 q 1413 233 1413 213 q 1398 267 1413 253 q 1364 281 1383 281 l 1289 281 l 1289 713 q 1272 753 1289 736 q 1231 769 1256 769 q 1205 763 1217 769 q 1188 749 1193 757 l 846 306 q 831 261 831 285 m 1179 589 l 1179 281 l 947 281 l 1179 589 m 317 1006 q 375 997 347 1006 q 424 972 403 988 q 458 934 446 956 q 471 888 471 913 q 430 797 471 826 q 289 767 389 767 q 260 753 269 767 q 250 724 250 739 q 260 694 250 708 q 289 681 269 681 q 441 647 389 681 q 493 526 493 613 q 478 465 493 490 q 440 421 464 439 q 384 394 415 403 q 321 386 353 386 q 190 427 242 386 q 128 532 139 468 q 108 564 124 553 q 76 575 93 575 q 43 562 58 575 q 28 522 28 549 q 47 448 28 488 q 105 375 67 408 q 199 319 143 342 q 329 297 256 297 q 432 311 382 297 q 522 353 482 325 q 585 426 561 382 q 608 528 608 469 q 593 617 608 581 q 555 676 578 653 q 505 710 532 699 q 456 726 478 722 q 513 756 490 738 q 549 795 536 774 q 568 841 563 817 q 574 889 574 865 q 556 973 574 935 q 503 1038 538 1011 q 422 1081 469 1065 q 317 1096 375 1096 q 188 1073 240 1096 q 105 1018 136 1050 q 60 953 74 986 q 47 900 47 919 q 62 856 47 871 q 99 842 76 842 q 127 851 114 842 q 144 881 140 861 q 207 978 163 951 q 317 1006 251 1006 z "},"":{"ha":1224,"x_min":64,"x_max":1160,"o":"m 64 1096 l 64 0 l 1160 0 l 1160 1096 l 64 1096 m 108 1051 l 1115 1051 l 1115 44 l 108 44 l 108 1051 z "},"":{"ha":1310,"x_min":17,"x_max":1293,"o":"m 17 631 l 17 404 l 421 0 l 1293 872 l 1293 1096 l 421 224 l 17 631 z "},"":{"ha":1150,"x_min":38,"x_max":1113,"o":"m 683 646 l 683 431 l 468 431 l 468 646 l 683 646 m 361 753 l 253 753 q 211 761 231 753 q 177 784 192 769 q 154 819 163 799 q 146 861 146 839 q 177 938 146 906 q 253 969 208 969 q 295 960 275 969 q 330 937 315 951 q 353 903 344 922 q 361 861 361 883 l 361 753 m 361 646 l 361 431 l 253 431 q 169 413 208 431 q 101 367 131 396 q 55 299 72 338 q 38 215 38 260 q 55 132 38 171 q 101 64 72 93 q 169 17 131 35 q 253 0 208 0 q 337 17 297 0 q 406 64 376 35 q 451 132 435 93 q 468 215 468 171 l 468 324 l 683 324 l 683 215 q 700 131 683 171 q 746 63 717 92 q 814 17 775 33 q 897 0 853 0 q 981 17 942 0 q 1049 64 1019 35 q 1095 132 1078 93 q 1113 215 1113 171 q 1095 299 1113 260 q 1049 367 1078 338 q 981 413 1019 396 q 897 431 942 431 l 790 431 l 790 646 l 897 646 q 981 663 942 646 q 1049 710 1019 681 q 1095 778 1078 739 q 1113 861 1113 817 q 1095 944 1113 906 q 1049 1013 1078 983 q 981 1059 1019 1042 q 897 1076 942 1076 q 814 1059 853 1076 q 746 1013 775 1042 q 700 944 717 983 q 683 861 683 906 l 683 753 l 468 753 l 468 861 q 451 944 468 906 q 406 1013 435 983 q 337 1059 376 1042 q 253 1076 297 1076 q 169 1059 208 1076 q 101 1013 131 1042 q 55 944 72 983 q 38 861 38 906 q 55 778 38 817 q 101 710 72 739 q 169 663 131 681 q 253 646 208 646 l 361 646 m 361 324 l 361 215 q 353 174 361 193 q 330 140 344 154 q 295 117 315 125 q 253 108 275 108 q 177 140 208 108 q 146 215 146 171 q 154 258 146 238 q 177 292 163 278 q 211 315 192 307 q 253 324 231 324 l 361 324 m 790 324 l 897 324 q 974 292 942 324 q 1006 215 1006 260 q 997 174 1006 193 q 974 140 989 154 q 940 117 960 125 q 897 108 919 108 q 822 140 853 108 q 790 215 790 171 l 790 324 m 790 753 l 790 861 q 822 938 790 906 q 897 969 853 969 q 940 960 919 969 q 974 937 960 951 q 997 903 989 922 q 1006 861 1006 883 q 974 785 1006 817 q 897 753 942 753 l 790 753 z "},"":{"ha":1213,"x_min":28,"x_max":1185,"o":"m 121 996 q 92 976 108 983 q 61 963 75 969 q 38 947 47 956 q 28 921 28 938 q 40 892 28 903 q 69 881 53 881 l 163 881 l 163 381 q 178 341 163 357 q 218 325 194 325 q 256 341 240 325 q 272 381 272 357 l 272 1042 q 256 1081 272 1065 q 218 1096 240 1096 q 186 1086 197 1096 q 165 1062 175 1076 q 147 1030 156 1047 q 121 996 138 1013 m 640 556 q 658 506 640 522 q 694 489 675 489 q 733 506 715 489 q 750 556 750 524 q 764 613 750 588 q 801 654 778 638 q 853 680 824 671 q 914 689 883 689 q 974 681 944 689 q 1026 656 1003 674 q 1062 612 1049 639 q 1075 546 1075 585 q 1053 474 1075 506 q 995 415 1032 443 q 912 360 958 388 q 815 301 865 333 q 749 251 783 281 q 688 191 715 222 q 642 128 660 160 q 624 69 624 96 q 643 20 624 40 q 692 0 663 0 l 1110 0 q 1144 14 1129 0 q 1158 47 1158 28 q 1144 81 1158 67 q 1110 96 1129 96 l 767 96 q 760 104 760 96 q 789 159 760 121 q 871 229 818 197 q 992 301 935 271 q 1092 363 1050 331 q 1160 435 1135 394 q 1185 539 1185 476 q 1165 638 1185 593 q 1108 716 1144 683 q 1022 767 1071 749 q 914 785 972 785 q 815 768 864 785 q 728 722 767 751 q 665 649 689 692 q 640 556 640 607 m 160 40 q 154 15 154 29 q 170 -24 154 -8 q 210 -40 186 -40 q 238 -32 225 -40 q 257 -11 250 -24 l 822 1065 q 829 1092 829 1079 q 813 1131 829 1115 q 774 1147 797 1147 q 744 1139 757 1147 q 724 1117 731 1131 l 160 40 z "},"":{"ha":365,"x_min":0,"x_max":0,"o":""},"":{"ha":1131,"x_min":17,"x_max":1114,"o":"m 565 0 l 1114 549 l 565 1096 l 17 549 l 565 0 m 108 549 l 565 1006 l 1022 549 l 565 92 l 108 549 z "}}}
